G04 ================== begin FILE IDENTIFICATION RECORD ==================*
G04 Layout Name:  adc2.brd*
G04 Film Name:    BOTTOM_COPPER*
G04 File Format:  Gerber RS274X*
G04 File Origin:  Cadence Allegro -unreleased*
G04 Origin Date:  Sun Sep 19 23:40:03 2021*
G04 *
G04 Layer:  VIA CLASS/BOTTOM*
G04 Layer:  PIN/BOTTOM*
G04 Layer:  ETCH/BOTTOM*
G04 *
G04 Offset:    (0.00 0.00)*
G04 Mirror:    No*
G04 Mode:      Positive*
G04 Rotation:  0*
G04 FullContactRelief:  No*
G04 UndefLineWidth:     7.00*
G04 ================== end FILE IDENTIFICATION RECORD ====================*
%FSLAX25Y25*MOIN*%
%IR0*IPPOS*OFA0.00000B0.00000*MIA0B0*SFA1.00000B1.00000*%
%ADD11C,.06*%
%ADD10C,.024*%
%ADD16C,.045*%
%ADD13C,.058*%
%ADD12R,.06X.06*%
%ADD14R,.058X.058*%
%ADD15C,.1*%
%ADD17C,.007*%
%ADD18C,.005*%
%ADD23C,.03404*%
%ADD19C,.07004*%
%ADD21C,.05504*%
%ADD20C,.06804*%
%ADD22C,.12604*%
G75*
%LPD*%
G75*
G36*
G01X10000Y390000D02*
X390000D01*
Y271878D01*
G03X389048Y270350I750J-1528D01*
G03X389998Y268823I1702J0D01*
G01Y10004D01*
X120827D01*
G03X119300Y10954I-1527J-752D01*
G03X117771Y10000I0J-1702D01*
G01X10000D01*
Y390000D01*
G37*
%LPC*%
G75*
G36*
G01X216498Y84500D02*
Y90500D01*
G02X217000Y91002I502J0D01*
G01X223000D01*
G02X223502Y90500I0J-502D01*
G01Y84500D01*
G02X223000Y83998I-502J0D01*
G01X217000D01*
G02X216498Y84500I0J502D01*
G37*
G36*
G01X313998Y284500D02*
Y290500D01*
G02X314500Y291002I502J0D01*
G01X320500D01*
G02X321002Y290500I0J-502D01*
G01Y284500D01*
G02X320500Y283998I-502J0D01*
G01X314500D01*
G02X313998Y284500I0J502D01*
G37*
G36*
G01X263998Y189500D02*
Y195500D01*
G02X264500Y196002I502J0D01*
G01X270500D01*
G02X271002Y195500I0J-502D01*
G01Y189500D01*
G02X270500Y188998I-502J0D01*
G01X264500D01*
G02X263998Y189500I0J502D01*
G37*
G36*
G01X216498D02*
Y195500D01*
G02X217000Y196002I502J0D01*
G01X223000D01*
G02X223502Y195500I0J-502D01*
G01Y189500D01*
G02X223000Y188998I-502J0D01*
G01X217000D01*
G02X216498Y189500I0J502D01*
G37*
G36*
G01X293998Y24500D02*
Y30500D01*
G02X294500Y31002I502J0D01*
G01X300500D01*
G02X301002Y30500I0J-502D01*
G01Y24500D01*
G02X300500Y23998I-502J0D01*
G01X294500D01*
G02X293998Y24500I0J502D01*
G37*
G36*
G01X316498Y187000D02*
Y193000D01*
G02X317000Y193502I502J0D01*
G01X323000D01*
G02X323502Y193000I0J-502D01*
G01Y187000D01*
G02X323000Y186498I-502J0D01*
G01X317000D01*
G02X316498Y187000I0J502D01*
G37*
G36*
G01X293998Y217000D02*
Y223000D01*
G02X294500Y223502I502J0D01*
G01X300500D01*
G02X301002Y223000I0J-502D01*
G01Y217000D01*
G02X300500Y216498I-502J0D01*
G01X294500D01*
G02X293998Y217000I0J502D01*
G37*
G36*
G01X316598Y312100D02*
Y317900D01*
G02X317100Y318402I502J0D01*
G01X322900D01*
G02X323402Y317900I0J-502D01*
G01Y312100D01*
G02X322900Y311598I-502J0D01*
G01X317100D01*
G02X316598Y312100I0J502D01*
G37*
G36*
G01X168998Y374500D02*
Y380500D01*
G02X169500Y381002I502J0D01*
G01X175500D01*
G02X176002Y380500I0J-502D01*
G01Y374500D01*
G02X175500Y373998I-502J0D01*
G01X169500D01*
G02X168998Y374500I0J502D01*
G37*
G36*
G01X123998Y279500D02*
Y285500D01*
G02X124500Y286002I502J0D01*
G01X130500D01*
G02X131002Y285500I0J-502D01*
G01Y279500D01*
G02X130500Y278998I-502J0D01*
G01X124500D01*
G02X123998Y279500I0J502D01*
G37*
G36*
G01X23998Y87000D02*
Y93000D01*
G02X24500Y93502I502J0D01*
G01X30500D01*
G02X31002Y93000I0J-502D01*
G01Y87000D01*
G02X30500Y86498I-502J0D01*
G01X24500D01*
G02X23998Y87000I0J502D01*
G37*
G36*
G01X123998Y179500D02*
Y185500D01*
G02X124500Y186002I502J0D01*
G01X130500D01*
G02X131002Y185500I0J-502D01*
G01Y179500D01*
G02X130500Y178998I-502J0D01*
G01X124500D01*
G02X123998Y179500I0J502D01*
G37*
G36*
G01X168998Y279500D02*
Y285500D01*
G02X169500Y286002I502J0D01*
G01X175500D01*
G02X176002Y285500I0J-502D01*
G01Y279500D01*
G02X175500Y278998I-502J0D01*
G01X169500D01*
G02X168998Y279500I0J502D01*
G37*
G36*
G01X76498Y182000D02*
Y188000D01*
G02X77000Y188502I502J0D01*
G01X83000D01*
G02X83502Y188000I0J-502D01*
G01Y182000D01*
G02X83000Y181498I-502J0D01*
G01X77000D01*
G02X76498Y182000I0J502D01*
G37*
G36*
G01X123998Y362000D02*
Y368000D01*
G02X124500Y368502I502J0D01*
G01X130500D01*
G02X131002Y368000I0J-502D01*
G01Y362000D01*
G02X130500Y361498I-502J0D01*
G01X124500D01*
G02X123998Y362000I0J502D01*
G37*
G36*
G01X168998Y179500D02*
Y185500D01*
G02X169500Y186002I502J0D01*
G01X175500D01*
G02X176002Y185500I0J-502D01*
G01Y179500D01*
G02X175500Y178998I-502J0D01*
G01X169500D01*
G02X168998Y179500I0J502D01*
G37*
G36*
G01X73998Y84500D02*
Y90500D01*
G02X74500Y91002I502J0D01*
G01X80500D01*
G02X81002Y90500I0J-502D01*
G01Y84500D01*
G02X80500Y83998I-502J0D01*
G01X74500D01*
G02X73998Y84500I0J502D01*
G37*
G36*
G01X198998Y24500D02*
Y30500D01*
G02X199500Y31002I502J0D01*
G01X205500D01*
G02X206002Y30500I0J-502D01*
G01Y24500D01*
G02X205500Y23998I-502J0D01*
G01X199500D01*
G02X198998Y24500I0J502D01*
G37*
G36*
G01X76498Y279500D02*
Y285500D01*
G02X77000Y286002I502J0D01*
G01X83000D01*
G02X83502Y285500I0J-502D01*
G01Y279500D01*
G02X83000Y278998I-502J0D01*
G01X77000D01*
G02X76498Y279500I0J502D01*
G37*
G36*
G01X216498Y342000D02*
Y348000D01*
G02X217000Y348502I502J0D01*
G01X223000D01*
G02X223502Y348000I0J-502D01*
G01Y342000D01*
G02X223000Y341498I-502J0D01*
G01X217000D01*
G02X216498Y342000I0J502D01*
G37*
G36*
G01X76498Y364500D02*
Y370500D01*
G02X77000Y371002I502J0D01*
G01X83000D01*
G02X83502Y370500I0J-502D01*
G01Y364500D01*
G02X83000Y363998I-502J0D01*
G01X77000D01*
G02X76498Y364500I0J502D01*
G37*
G36*
G01X23998Y192000D02*
Y198000D01*
G02X24500Y198502I502J0D01*
G01X30500D01*
G02X31002Y198000I0J-502D01*
G01Y192000D01*
G02X30500Y191498I-502J0D01*
G01X24500D01*
G02X23998Y192000I0J502D01*
G37*
G36*
G01X24098Y344600D02*
Y350400D01*
G02X24600Y350902I502J0D01*
G01X30400D01*
G02X30902Y350400I0J-502D01*
G01Y344600D01*
G02X30400Y344098I-502J0D01*
G01X24600D01*
G02X24098Y344600I0J502D01*
G37*
G36*
G01X121498Y84500D02*
Y90500D01*
G02X122000Y91002I502J0D01*
G01X128000D01*
G02X128502Y90500I0J-502D01*
G01Y84500D01*
G02X128000Y83998I-502J0D01*
G01X122000D01*
G02X121498Y84500I0J502D01*
G37*
G36*
G01X251513Y40658D02*
G03X252078Y40944I172J361D01*
G02X253750Y42327I1672J-319D01*
G02X255452Y40625I0J-1702D01*
G02X253763Y38923I-1702J0D01*
G03X253379Y38418I2J-400D01*
G02X253502Y37500I-3379J-920D01*
G02X250000Y41002I-3502J0D01*
G02X251513Y40658I-1J-3502D01*
G37*
G36*
G01X333047Y43534D02*
G03X332637Y44001I-394J67D01*
G02X332500Y43998I-145J3499D01*
G02X336002Y47500I0J3502D01*
G02X335298Y45394I-3502J0D01*
G03X335448Y44791I319J-241D01*
G02X336427Y43250I-723J-1541D01*
G02X333023I-1702J0D01*
G02X333047Y43534I1702J-1D01*
G37*
G36*
G01X123745Y53649D02*
G03X123608Y54286I-295J270D01*
G02X121498Y57500I1393J3214D01*
G02X128502I3502J0D01*
G02X126392Y54286I-3503J0D01*
G03X126255Y53649I158J-367D01*
G02X126702Y52500I-1255J-1150D01*
G02X126255Y51351I-1702J1D01*
G03X126392Y50714I295J-270D01*
G02X128502Y47500I-1393J-3214D01*
G02X121498I-3502J0D01*
G02X123608Y50714I3503J0D01*
G03X123745Y51351I-158J367D01*
G02X123298Y52500I1255J1150D01*
G02X123745Y53649I1702J-1D01*
G37*
G36*
G01X349498Y70502D02*
X351998D01*
Y73002D01*
X356802D01*
Y69498D01*
X354302D01*
Y66998D01*
X349498D01*
Y70502D01*
G37*
G36*
G01X123745Y73649D02*
G03X123608Y74286I-295J270D01*
G02X121498Y77500I1393J3214D01*
G02X128502I3502J0D01*
G02X126392Y74286I-3503J0D01*
G03X126255Y73649I158J-367D01*
G02X126702Y72500I-1255J-1150D01*
G02X126255Y71351I-1702J1D01*
G03X126392Y70714I295J-270D01*
G02X128502Y67500I-1393J-3214D01*
G02X121498I-3502J0D01*
G02X123608Y70714I3503J0D01*
G03X123745Y71351I-158J367D01*
G02X123298Y72500I1255J1150D01*
G02X123745Y73649I1702J-1D01*
G37*
G36*
G01X274723Y76748D02*
X270924D01*
X270884Y76600D01*
G02X267500Y73998I-3384J900D01*
G02Y81002I0J3502D01*
G02X270884Y78400I0J-3502D01*
G01X270924Y78252D01*
X274723D01*
G02X277777I1527J-752D01*
G01X285000D01*
G02X285531Y78031I-1J-751D01*
G01X290311Y73252D01*
X307500D01*
G02X308031Y73031I-1J-751D01*
G01X327811Y53252D01*
X337500D01*
G02X338031Y53031I-1J-751D01*
G01X340610Y50452D01*
X340743Y50530D01*
G02X342500Y51002I1756J-3030D01*
G02X338998Y47500I0J-3502D01*
G02X339470Y49257I3502J1D01*
G01X339548Y49390D01*
X337189Y51748D01*
X327500D01*
G02X326969Y51969I1J751D01*
G01X307189Y71748D01*
X290000D01*
G02X289469Y71969I1J751D01*
G01X284689Y76748D01*
X277777D01*
G02X274723I-1527J752D01*
G37*
G36*
G01X144246Y62327D02*
Y94673D01*
G02X143296Y96200I752J1527D01*
G02X146700I1702J0D01*
G02X145750Y94673I-1702J0D01*
G01Y62327D01*
G02X146700Y60800I-752J-1527D01*
G02X143296I-1702J0D01*
G02X144246Y62327I1702J0D01*
G37*
G36*
G01X240273Y109246D02*
G02X238746Y108296I-1527J752D01*
G02Y111700I0J1702D01*
G02X240273Y110750I0J-1702D01*
G01X284673D01*
G02X286200Y111700I1527J-752D01*
G02Y108296I0J-1702D01*
G02X284673Y109246I0J1702D01*
G01X240273D01*
G37*
G36*
G01X232025Y114250D02*
G02X230498Y113300I-1527J752D01*
G02Y116704I0J1702D01*
G02X232025Y115754I0J-1702D01*
G01X236268D01*
G02X237795Y116704I1527J-752D01*
G02Y113300I0J-1702D01*
G02X236268Y114250I0J1702D01*
G01X232025D01*
G37*
G36*
G01X112528Y147423D02*
G03X113185Y147543I289J277D01*
G02X114750Y148577I1565J-667D01*
G02Y145173I0J-1702D01*
G02X114063Y145318I0J1702D01*
G03X113502Y144957I-161J-366D01*
G02X110000Y141498I-3502J43D01*
G02X106754Y143686I0J3502D01*
G03X106096Y143814I-371J-150D01*
G02X104875Y143298I-1221J1187D01*
G02Y146702I0J1702D01*
G02X106096Y146186I0J-1703D01*
G03X106754Y146314I287J278D01*
G02X110000Y148502I3246J-1314D01*
G02X112528Y147423I0J-3501D01*
G37*
G36*
G01X161299Y151181D02*
G03X160682Y151038I-253J-310D01*
G02X157500Y148998I-3182J1462D01*
G02Y156002I0J3502D01*
G02X160682Y153962I0J-3502D01*
G03X161299Y153819I364J167D01*
G02X162375Y154202I1076J-1320D01*
G02Y150798I0J-1702D01*
G02X161299Y151181I0J1703D01*
G37*
G36*
G01X211746Y158043D02*
Y160973D01*
G02X210796Y162500I752J1527D01*
G02X214200I1702J0D01*
G02X213250Y160973I-1702J0D01*
G01Y154027D01*
G02X214200Y152500I-752J-1527D01*
G02X210796I-1702J0D01*
G02X211746Y154027I1702J0D01*
G01Y154457D01*
G03X211138Y154798I-400J0D01*
G02X210250Y154548I-888J1452D01*
G02Y157952I0J1702D01*
G02X211138Y157702I0J-1702D01*
G03X211746Y158043I208J341D01*
G37*
G36*
G01X226746Y122429D02*
Y169841D01*
G02X225796Y171368I752J1527D01*
G02X229200I1702J0D01*
G02X228250Y169841I-1702J0D01*
G01Y122429D01*
G02X229200Y120902I-752J-1527D01*
G02X225796I-1702J0D01*
G02X226746Y122429I1702J0D01*
G37*
G36*
G01X172077Y196746D02*
G02X170550Y195796I-1527J752D01*
G02Y199200I0J1702D01*
G02X172077Y198250I0J-1702D01*
G01X197223D01*
G02X198750Y199200I1527J-752D01*
G02Y195796I0J-1702D01*
G02X197223Y196746I0J1702D01*
G01X172077D01*
G37*
G36*
G01X254250Y178777D02*
Y196673D01*
G02X253300Y198200I752J1527D01*
G02X256704I1702J0D01*
G02X255754Y196673I-1702J0D01*
G01Y178777D01*
G02Y175723I-752J-1527D01*
G01Y160277D01*
G02X256704Y158750I-752J-1527D01*
G02X253300I-1702J0D01*
G02X254250Y160277I1702J0D01*
G01Y175723D01*
G02Y178777I752J1527D01*
G37*
G36*
G01X311750Y178227D02*
Y197841D01*
G02X310800Y199368I752J1527D01*
G02X314204I1702J0D01*
G02X313254Y197841I-1702J0D01*
G01Y178227D01*
G02X314204Y176700I-752J-1527D01*
G02X310800I-1702J0D01*
G02X311750Y178227I1702J0D01*
G37*
G36*
G01X31002Y255500D02*
Y253252D01*
X54076D01*
X54116Y253400D01*
G02X57500Y256002I3384J-900D01*
G02Y248998I0J-3502D01*
G02X54116Y251600I0J3502D01*
G01X54076Y251748D01*
X31002D01*
Y249500D01*
G02X30500Y248998I-502J0D01*
G01X24500D01*
G02X23998Y249500I0J502D01*
G01Y255500D01*
G02X24500Y256002I502J0D01*
G01X30500D01*
G02X31002Y255500I0J-502D01*
G37*
G36*
G01X149246Y244977D02*
Y252773D01*
G02X148296Y254300I752J1527D01*
G02X151700I1702J0D01*
G02X150750Y252773I-1702J0D01*
G01Y244977D01*
G02X151700Y243450I-752J-1527D01*
G02X148296I-1702J0D01*
G02X149246Y244977I1702J0D01*
G37*
G36*
G01X321746Y229027D02*
Y259273D01*
G02X320796Y260800I752J1527D01*
G02X324200I1702J0D01*
G02X323250Y259273I-1702J0D01*
G01Y229027D01*
G02X324200Y227500I-752J-1527D01*
G02X322498Y225798I-1702J0D01*
G02X321350Y226244I1J1702D01*
G03X320713Y226107I-270J-296D01*
G02X317500Y223998I-3213J1393D01*
G02Y231002I0J3502D01*
G02X320713Y228893I0J-3502D01*
G03X321350Y228756I367J159D01*
G02X321746Y229027I1150J-1255D01*
G37*
G36*
G01X78745Y268649D02*
G03X78608Y269286I-295J270D01*
G02X76498Y272500I1393J3214D01*
G02X83502I3502J0D01*
G02X81392Y269286I-3503J0D01*
G03X81255Y268649I158J-367D01*
G02X81702Y267500I-1255J-1150D01*
G02X81255Y266351I-1702J1D01*
G03X81392Y265714I295J-270D01*
G02X83502Y262500I-1393J-3214D01*
G02X76498I-3502J0D01*
G02X78608Y265714I3503J0D01*
G03X78745Y266351I-158J367D01*
G02X78298Y267500I1255J1150D01*
G02X78745Y268649I1702J-1D01*
G37*
G36*
G01X169347Y270975D02*
G03X168752Y271124I-360J-174D01*
G02X167750Y270798I-1002J1377D01*
G02Y274202I0J1702D01*
G02X168752Y273876I0J-1703D01*
G03X169347Y274025I235J323D01*
G02X172500Y276002I3153J-1526D01*
G02Y268998I0J-3502D01*
G02X169347Y270975I0J3503D01*
G37*
G36*
G01X309246Y285277D02*
Y299173D01*
G02X308296Y300700I752J1527D01*
G02X311700I1702J0D01*
G02X310750Y299173I-1702J0D01*
G01Y285277D01*
G02X311700Y283750I-752J-1527D01*
G02X308296I-1702J0D01*
G02X309246Y285277I1702J0D01*
G37*
G36*
G01X219248Y293502D02*
Y300173D01*
G02X218298Y301700I752J1527D01*
G02X221702I1702J0D01*
G02X220752Y300173I-1702J0D01*
G01Y293502D01*
X223000D01*
G02X223502Y293000I0J-502D01*
G01Y287000D01*
G02X223000Y286498I-502J0D01*
G01X217000D01*
G02X216498Y287000I0J502D01*
G01Y293000D01*
G02X217000Y293502I502J0D01*
G01X219248D01*
G37*
G36*
G01X149250Y291677D02*
Y310341D01*
G02X148300Y311868I752J1527D01*
G02X151704I1702J0D01*
G02X150754Y310341I-1702J0D01*
G01Y291677D01*
G02X151704Y290150I-752J-1527D01*
G02X151233Y288974I-1702J-1D01*
G03X151232Y288422I289J-277D01*
G02X151700Y287250I-1234J-1172D01*
G02X150750Y285723I-1702J0D01*
G01Y259727D01*
G02X151700Y258200I-752J-1527D01*
G02X148296I-1702J0D01*
G02X149246Y259727I1702J0D01*
G01Y285723D01*
G02X148296Y287250I752J1527D01*
G02X148767Y288426I1702J1D01*
G03X148768Y288978I-289J277D01*
G02X148300Y290150I1234J1172D01*
G02X149250Y291677I1702J0D01*
G37*
G36*
G01X149727Y339246D02*
G02X148200Y338296I-1527J752D01*
G02Y341700I0J1702D01*
G02X149727Y340750I0J-1702D01*
G01X164673D01*
G02X166200Y341700I1527J-752D01*
G02Y338296I0J-1702D01*
G02X164673Y339246I0J1702D01*
G01X149727D01*
G37*
G36*
G01X180727Y341750D02*
G02X179200Y340800I-1527J752D01*
G02Y344204I0J1702D01*
G02X180727Y343254I0J-1702D01*
G01X194623D01*
G02X196150Y344204I1527J-752D01*
G02Y340800I0J-1702D01*
G02X194623Y341750I0J1702D01*
G01X180727D01*
G37*
G36*
G01X116969Y335531D02*
X124548Y343110D01*
X124470Y343243D01*
G02X123998Y345000I3030J1756D01*
G02X127500Y341498I3502J0D01*
G02X125613Y342050I0J3501D01*
G01X118252Y334689D01*
Y175500D01*
G02X118031Y174969I-751J1D01*
G01X117531Y174469D01*
G02X117000Y174248I-532J530D01*
G01X113424D01*
X113384Y174100D01*
G02X110000Y171498I-3384J900D01*
G02Y178502I0J3502D01*
G02X113384Y175900I0J-3502D01*
G01X113424Y175752D01*
X116689D01*
X116748Y175811D01*
Y335000D01*
G02X116969Y335531I751J-1D01*
G37*
G36*
G01X129062Y358134D02*
G03X129623Y358375I178J358D01*
G02X131250Y359577I1627J-500D01*
G02X132952Y357875I0J-1702D01*
G02X131310Y356174I-1702J0D01*
G03X130932Y355695I14J-400D01*
G02X131002Y355000I-3432J-697D01*
G02X127500Y358502I-3502J0D01*
G02X129062Y358134I-1J-3502D01*
G37*
G36*
G01X112053Y363996D02*
G03X111485Y364328I-399J-30D01*
G02X110000Y363998I-1484J3172D01*
G02X113502Y367500I0J3502D01*
G02X113310Y366357I-3502J1D01*
G03X113700Y365826I378J-131D01*
G02X113750Y365827I59J-1701D01*
G02Y362423I0J-1702D01*
G02X112053Y363996I0J1702D01*
G37*
G36*
G01X297400Y43999D02*
G02X293998Y47500I100J3501D01*
G02X301002I3502J0D01*
G02X299434Y44581I-3501J0D01*
G03X299531Y43867I221J-334D01*
G02X300702Y42250I-531J-1617D01*
G02X299864Y40783I-1703J0D01*
G03X299804Y40138I203J-344D01*
G02X301002Y37500I-2304J-2637D01*
G02X293998I-3502J0D01*
G02X297129Y40982I3502J0D01*
G03X297451Y41546I-42J398D01*
G02X297298Y42250I1549J705D01*
G02X297695Y43343I1703J0D01*
G03X297400Y43999I-307J256D01*
G37*
G36*
G01X318772Y136720D02*
G02X316498Y140000I1229J3280D01*
G02X323502I3502J0D01*
G02X321228Y136720I-3503J0D01*
G03X321108Y136042I140J-374D01*
G02X321702Y134750I-1108J-1292D01*
G02X321376Y133748I-1703J0D01*
G03X321525Y133153I323J-235D01*
G02X323502Y130000I-1526J-3153D01*
G02X316498I-3502J0D01*
G02X318475Y133153I3503J0D01*
G03X318624Y133748I-174J360D01*
G02X318298Y134750I1377J1002D01*
G02X318892Y136042I1702J0D01*
G03X318772Y136720I-260J304D01*
G37*
G36*
G01X213025Y203254D02*
X214871D01*
G02X216398Y204204I1527J-752D01*
G02X217857Y203378I0J-1702D01*
G03X218543Y203377I343J206D01*
G02X220000Y204200I1457J-878D01*
G02X221527Y203250I0J-1702D01*
G01X237773D01*
G02X240827I1527J-752D01*
G01X243673D01*
G02X245200Y204200I1527J-752D01*
G02Y200796I0J-1702D01*
G02X243673Y201746I0J1702D01*
G01X240827D01*
G02X237773I-1527J752D01*
G01X221527D01*
G02X220000Y200796I-1527J752D01*
G02X218541Y201622I0J1702D01*
G03X217855Y201623I-343J-206D01*
G02X216398Y200800I-1457J878D01*
G02X214871Y201750I0J1702D01*
G01X213025D01*
G02X211498Y200800I-1527J752D01*
G02Y204204I0J1702D01*
G02X213025Y203254I0J-1702D01*
G37*
G36*
G01X175587Y235236D02*
G02X177250Y236577I1663J-361D01*
G02Y233173I0J-1702D01*
G02X176541Y233328I1J1702D01*
G03X175977Y232917I-167J-364D01*
G02X176002Y232500I-3477J-418D01*
G02X172500Y236002I-3502J0D01*
G02X174920Y235032I1J-3502D01*
G03X175587Y235236I276J289D01*
G37*
G36*
G01X56352Y239192D02*
G02X53998Y242500I1147J3308D01*
G02X61002I3502J0D01*
G02X58805Y239250I-3502J0D01*
G03X58701Y238569I149J-371D01*
G02X59327Y237250I-1077J-1319D01*
G02X58973Y236211I-1702J0D01*
G03X59107Y235612I317J-244D01*
G02X61002Y232500I-1608J-3112D01*
G02X53998I-3502J0D01*
G02X56059Y235692I3502J0D01*
G03X56224Y236284I-164J365D01*
G02X55923Y237250I1400J966D01*
G02X56488Y238516I1701J0D01*
G03X56352Y239192I-267J298D01*
G37*
G36*
G01X268871Y243954D02*
G02X268673Y244750I1504J797D01*
G02X270375Y243048I1702J0D01*
G01X270368D01*
G03X270072Y242377I-2J-400D01*
G02X271002Y240000I-2573J-2377D01*
G02X267500Y243502I-3502J0D01*
G02X268413Y243381I0J-3502D01*
G03X268871Y243954I104J386D01*
G37*
G36*
G01X135727Y268250D02*
X142923D01*
G02X144450Y269200I1527J-752D01*
G02Y265796I0J-1702D01*
G02X142923Y266746I0J1702D01*
G01X135727D01*
G02X134200Y265796I-1527J752D01*
G01X134160D01*
G03X133789Y265226I-9J-400D01*
G02X133952Y264500I-1539J-727D01*
G02X132250Y262798I-1702J0D01*
G02X131563Y262943I0J1702D01*
G03X131001Y262569I-162J-366D01*
G02X131002Y262500I-3501J-85D01*
G02X127500Y266002I-3502J0D01*
G02X129996Y264956I0J-3501D01*
G03X130656Y265097I285J281D01*
G02X132250Y266202I1594J-597D01*
G01X132290D01*
G03X132661Y266772I9J400D01*
G02X132498Y267498I1539J727D01*
G02X134200Y269200I1702J0D01*
G02X135727Y268250I0J-1702D01*
G37*
G36*
G01X263998Y348000D02*
G02X264500Y348502I502J0D01*
G01X270500D01*
G02X271002Y348000I0J-502D01*
G01Y342000D01*
G02X270500Y341498I-502J0D01*
G01X265459D01*
G03X265134Y340866I0J-400D01*
G02X265452Y339875I-1385J-991D01*
G02X262048I-1702J0D01*
G02X263628Y341573I1702J0D01*
G03X263999Y341984I-29J399D01*
G02X263998Y342000I500J39D01*
G01Y348000D01*
G37*
G54D23*
X220000Y96375D03*
X20750Y123000D03*
X150150Y332375D03*
X168375Y93250D03*
X292750Y203625D03*
X266750Y357500D03*
X89375D03*
X304000Y375000D03*
X279250Y370625D03*
X53750Y189750D03*
X86750Y171875D03*
X120750Y183000D03*
X85850Y155000D03*
X102250Y284375D03*
X150750Y143875D03*
X177750Y22750D03*
X133825Y282500D03*
X114125Y62750D03*
X34875Y347500D03*
X73625Y145000D03*
X340000Y325825D03*
X71125Y227250D03*
X110000Y118600D03*
X140000Y37500D03*
X163250Y169375D03*
X195875Y172500D03*
X178350Y252500D03*
X184875Y262500D03*
X209250Y145375D03*
X191250Y147500D03*
X178875Y152500D03*
X211250Y74875D03*
X234375Y61250D03*
X215250Y62500D03*
X243373Y67500D03*
X347250Y28801D03*
X40625Y149247D03*
X178250Y356500D03*
X80000Y376375D03*
X79000Y295250D03*
X367500Y306675D03*
X322375Y47500D03*
X328750Y113750D03*
X348625Y57500D03*
X332500Y108750D03*
X342500Y103750D03*
G54D19*
X297500Y335000D03*
Y325000D03*
Y315000D03*
Y345000D03*
X267500Y315000D03*
Y335000D03*
Y325000D03*
X155000Y67500D03*
Y77500D03*
Y47500D03*
Y57500D03*
Y27500D03*
Y37500D03*
X125000D03*
X155000Y87500D03*
X125000Y27500D03*
X57500Y125000D03*
Y155000D03*
Y175000D03*
Y185000D03*
Y145000D03*
Y135000D03*
Y165000D03*
X27500Y135000D03*
Y165000D03*
Y185000D03*
Y155000D03*
Y145000D03*
Y175000D03*
X57500Y195000D03*
X27500Y125000D03*
X110000Y327500D03*
Y337500D03*
Y347500D03*
Y317500D03*
Y307500D03*
X80000Y317500D03*
Y347500D03*
Y337500D03*
Y327500D03*
Y357500D03*
X110000D03*
X80000Y307500D03*
X250000Y335000D03*
Y325000D03*
Y315000D03*
X220000D03*
X250000Y345000D03*
X220000Y335000D03*
Y325000D03*
X110000Y262500D03*
Y272500D03*
Y242500D03*
Y252500D03*
Y222500D03*
Y232500D03*
X80000D03*
Y242500D03*
Y252500D03*
X110000Y282500D03*
X80000Y222500D03*
X172500Y37500D03*
Y47500D03*
Y57500D03*
Y67500D03*
Y77500D03*
Y87500D03*
Y97500D03*
X202500Y87500D03*
Y77500D03*
Y67500D03*
Y57500D03*
Y47500D03*
Y37500D03*
X172500Y27500D03*
X202500Y97500D03*
X107500Y57500D03*
Y77500D03*
Y67500D03*
Y47500D03*
Y37500D03*
Y27500D03*
X77500Y57500D03*
Y37500D03*
Y47500D03*
Y67500D03*
Y77500D03*
X107500Y87500D03*
X77500Y27500D03*
X202500Y152500D03*
Y172500D03*
Y162500D03*
Y142500D03*
Y132500D03*
Y122500D03*
X172500Y152500D03*
Y132500D03*
Y142500D03*
Y162500D03*
Y172500D03*
X202500Y182500D03*
X172500Y122500D03*
X157500Y335000D03*
Y355000D03*
Y345000D03*
Y325000D03*
Y315000D03*
Y305000D03*
X127500Y335000D03*
Y315000D03*
Y325000D03*
X157500Y365000D03*
X127500Y305000D03*
X110000Y155000D03*
Y165000D03*
Y135000D03*
Y125000D03*
X80000Y155000D03*
Y135000D03*
Y145000D03*
Y165000D03*
Y175000D03*
X110000Y185000D03*
X80000Y125000D03*
X202500Y252500D03*
Y272500D03*
Y262500D03*
Y242500D03*
Y232500D03*
Y222500D03*
X172500Y252500D03*
Y242500D03*
Y262500D03*
X202500Y282500D03*
X172500Y222500D03*
X157500Y172500D03*
Y162500D03*
Y142500D03*
Y132500D03*
Y122500D03*
X127500Y152500D03*
Y132500D03*
Y142500D03*
Y162500D03*
Y172500D03*
X157500Y182500D03*
X127500Y122500D03*
X57500Y70000D03*
Y80000D03*
Y50000D03*
Y60000D03*
Y30000D03*
Y40000D03*
X27500D03*
Y50000D03*
Y60000D03*
Y70000D03*
Y80000D03*
X57500Y90000D03*
X27500Y30000D03*
X157500Y262500D03*
Y272500D03*
Y242500D03*
Y252500D03*
Y222500D03*
Y232500D03*
X127500D03*
Y242500D03*
Y252500D03*
Y272500D03*
X157500Y282500D03*
X127500Y222500D03*
X202500Y357500D03*
Y367500D03*
Y337500D03*
Y347500D03*
Y317500D03*
Y327500D03*
X172500D03*
Y337500D03*
Y347500D03*
Y357500D03*
Y367500D03*
X202500Y377500D03*
X172500Y317500D03*
X297500Y290000D03*
X267500Y220000D03*
Y230000D03*
X297500Y270000D03*
Y260000D03*
Y250000D03*
Y240000D03*
Y230000D03*
X267500Y280000D03*
Y290000D03*
Y270000D03*
Y260000D03*
Y250000D03*
X297500Y280000D03*
X320000Y120000D03*
X350000Y190000D03*
Y180000D03*
X320000Y150000D03*
Y160000D03*
Y170000D03*
Y180000D03*
X350000Y130000D03*
Y120000D03*
Y140000D03*
Y150000D03*
Y160000D03*
Y170000D03*
X297500Y97500D03*
X267500Y27500D03*
Y37500D03*
X297500Y77500D03*
Y67500D03*
Y57500D03*
X267500Y87500D03*
Y97500D03*
Y67500D03*
Y57500D03*
Y47500D03*
X297500Y87500D03*
X342500Y67500D03*
X332500D03*
X342500Y57500D03*
X332500D03*
X342500Y37500D03*
X332500D03*
X220000Y122500D03*
X250000Y192500D03*
Y172500D03*
Y132500D03*
Y122500D03*
X220000Y132500D03*
Y142500D03*
Y152500D03*
Y162500D03*
Y172500D03*
Y182500D03*
X250000Y162500D03*
Y152500D03*
Y142500D03*
Y182500D03*
X267500Y122500D03*
X297500Y192500D03*
Y172500D03*
Y132500D03*
Y122500D03*
X267500Y132500D03*
Y142500D03*
Y152500D03*
Y162500D03*
Y172500D03*
Y182500D03*
X297500Y162500D03*
Y152500D03*
Y142500D03*
Y182500D03*
X220000Y220000D03*
X250000Y290000D03*
Y270000D03*
Y230000D03*
Y220000D03*
X220000Y230000D03*
Y240000D03*
Y250000D03*
Y260000D03*
Y270000D03*
Y280000D03*
X250000Y260000D03*
Y250000D03*
Y240000D03*
Y280000D03*
X317500Y217500D03*
X347500Y287500D03*
Y237500D03*
Y247500D03*
Y257500D03*
Y227500D03*
X317500Y247500D03*
X347500Y217500D03*
X317500Y257500D03*
Y237500D03*
X347500Y277500D03*
X317500D03*
X347500Y267500D03*
X317500D03*
X367500Y325000D03*
Y315000D03*
Y300000D03*
Y290000D03*
X40000Y377500D03*
Y367500D03*
X292500Y362500D03*
X302500D03*
X272500Y357500D03*
Y367500D03*
X220000Y27500D03*
X250000Y87500D03*
Y27500D03*
X220000Y37500D03*
X250000Y77500D03*
Y67500D03*
Y57500D03*
Y47500D03*
X220000D03*
Y57500D03*
Y67500D03*
Y77500D03*
X372500Y372500D03*
X362500D03*
X372500Y362500D03*
X362500D03*
X372500Y352500D03*
X362500D03*
X372500Y342500D03*
X362500D03*
X57500Y222500D03*
X27500D03*
Y242500D03*
Y232500D03*
G54D21*
X342500Y362500D03*
X312500D03*
X292500Y380000D03*
X262500D03*
X250000Y360000D03*
X220000D03*
X342500Y375000D03*
X312500D03*
X222500Y377500D03*
X252500D03*
G54D20*
X57500Y277500D03*
Y307500D03*
Y327500D03*
Y337500D03*
Y297500D03*
Y287500D03*
Y317500D03*
X27500Y287500D03*
Y317500D03*
Y337500D03*
Y307500D03*
Y297500D03*
Y327500D03*
X57500Y347500D03*
X27500Y277500D03*
X330000Y315000D03*
X340000D03*
G54D22*
X370000Y190000D03*
X20000Y370000D03*
X370000Y30000D03*
%LPD*%
G75*
G54D10*
X11200Y11200D03*
Y21200D03*
Y31200D03*
Y41200D03*
Y51200D03*
Y61200D03*
Y71200D03*
Y81200D03*
Y91200D03*
Y101200D03*
Y111200D03*
Y121200D03*
Y131200D03*
Y141200D03*
Y151200D03*
Y161200D03*
Y171200D03*
Y181200D03*
Y191200D03*
X4849Y178750D03*
X11200Y201200D03*
Y221200D03*
X4849Y211650D03*
X11200Y231200D03*
Y241200D03*
Y261200D03*
Y271200D03*
Y281200D03*
Y291200D03*
Y301200D03*
Y311200D03*
Y321200D03*
Y331200D03*
Y341200D03*
Y351200D03*
Y361200D03*
Y371200D03*
Y381200D03*
X21200Y11200D03*
X31200D03*
X41200D03*
X21200Y21200D03*
X31200D03*
X41200D03*
X21200Y31200D03*
X31200D03*
X41200D03*
X21200Y41200D03*
X41200D03*
X21200Y51200D03*
X41200D03*
X21200Y61200D03*
X41200D03*
X21200Y71200D03*
X41200D03*
Y91200D03*
X31200Y101200D03*
X41200D03*
X31200Y111200D03*
X41200D03*
X31200Y121200D03*
X41200D03*
X31200Y131200D03*
X20750Y123000D03*
X31200Y141200D03*
X40625Y149247D03*
X21200Y181200D03*
Y191200D03*
Y201200D03*
X31200D03*
X41200D03*
X21200Y221200D03*
X31200D03*
X41200D03*
X21200Y231200D03*
X41200D03*
X21200Y241200D03*
X41200D03*
X21200Y261200D03*
X31200D03*
X21200Y271200D03*
X31200D03*
X21200Y281200D03*
X31200D03*
X21200Y291200D03*
X31200D03*
X21200Y301200D03*
X31200D03*
Y311200D03*
Y331200D03*
Y341200D03*
X21200Y371200D03*
Y361200D03*
X31200D03*
X41200D03*
X31200Y371200D03*
X41200D03*
X34875Y347500D03*
X21200Y381200D03*
X31200D03*
X51200Y11200D03*
X61200D03*
X70800Y7302D03*
X51200Y21200D03*
X61200D03*
X51200Y31200D03*
Y41200D03*
Y51200D03*
Y61200D03*
Y71200D03*
Y101200D03*
X61200D03*
X51200Y111200D03*
X61200D03*
X71200D03*
X51200Y121200D03*
X61200D03*
X71200D03*
X51200Y151200D03*
X61200D03*
X71200D03*
X53750Y189750D03*
X51200Y201200D03*
X61200D03*
X71200D03*
X51200Y221200D03*
X71200D03*
X51200Y231200D03*
X71200D03*
X51200Y241200D03*
X71200D03*
Y251200D03*
X71125Y227250D03*
X57625Y237250D03*
X61200Y261200D03*
X71200D03*
X61200Y271200D03*
X71200D03*
X61200Y281200D03*
Y291200D03*
Y301200D03*
Y311200D03*
X51200Y331200D03*
X61200D03*
X51200Y341200D03*
X61200D03*
Y351200D03*
X51200Y361200D03*
X61200D03*
X51200Y371200D03*
X61200D03*
X51200Y381200D03*
X61200D03*
X81200Y11200D03*
X91200D03*
X101200D03*
X81200Y21200D03*
X91200D03*
X101200D03*
X81200Y31200D03*
X91200D03*
X101200D03*
X81200Y41200D03*
X91200D03*
X101200D03*
X81200Y51200D03*
X91200D03*
X101200D03*
X81200Y101200D03*
X91200D03*
X101200D03*
X81200Y111200D03*
X91200D03*
X101200D03*
X81200Y121200D03*
X91200D03*
X101200D03*
X91200Y131200D03*
X101200D03*
X91200Y151200D03*
X101200D03*
Y161200D03*
X85850Y155000D03*
X73625Y145000D03*
X91200Y191200D03*
X101200D03*
X86750Y171875D03*
X81200Y201200D03*
X91200D03*
X101200D03*
X81200Y221200D03*
X91200D03*
X101200D03*
X91200Y261200D03*
Y271200D03*
Y281200D03*
X80000Y267500D03*
X81200Y291200D03*
X91200D03*
X81200Y301200D03*
X91200D03*
Y311200D03*
X79000Y295250D03*
X91200Y341200D03*
Y351200D03*
Y371200D03*
X101200D03*
X89375Y357500D03*
X91200Y381200D03*
X80000Y376375D03*
X111200Y11200D03*
X119300Y9252D03*
X111200Y21200D03*
X131200D03*
X111200Y31200D03*
X131200D03*
X111200Y41200D03*
Y51200D03*
X121200D03*
X131200D03*
X121200Y71200D03*
X131200D03*
X125000Y52500D03*
X114125Y62750D03*
X111200Y81200D03*
Y101200D03*
X121200D03*
X131200D03*
X125000Y72500D03*
X111200Y111200D03*
X131200Y121200D03*
X110000Y118600D03*
X121200Y161200D03*
X114750Y146875D03*
X104875Y145000D03*
X121200Y191200D03*
X131200D03*
X120750Y183000D03*
X111200Y201200D03*
X121200D03*
X131200D03*
X121200Y211200D03*
X131200D03*
X121200Y221200D03*
X131200D03*
X121200Y241200D03*
Y251200D03*
Y261200D03*
X102250Y284375D03*
X131200Y331200D03*
X131250Y357875D03*
X113750Y364125D03*
X141200Y21200D03*
Y31200D03*
Y41200D03*
X151200D03*
X140000Y37500D03*
X141200Y51200D03*
X151200D03*
X141200Y71200D03*
X151200D03*
X161200D03*
X144998Y60800D03*
X157207Y100301D03*
X161200Y81200D03*
X141200Y101200D03*
X151200D03*
X161200D03*
X144998Y96200D03*
X141200Y121200D03*
Y141200D03*
X150750Y143875D03*
X161200Y191200D03*
Y201200D03*
Y211200D03*
X149998Y243450D03*
Y258200D03*
Y254300D03*
X132250Y264500D03*
X144450Y267498D03*
X134200D03*
X141200Y301200D03*
X149998Y287250D03*
X150002Y290150D03*
Y311868D03*
X133825Y282500D03*
X141200Y331200D03*
X148200Y339998D03*
X150150Y332375D03*
X141200Y351200D03*
X161200D03*
X141200Y361200D03*
X161200D03*
X177750Y22750D03*
X181200Y51200D03*
X171200Y101200D03*
X181200D03*
X191200D03*
X168375Y93250D03*
X171200Y121200D03*
X181200D03*
X191200D03*
X181200Y131200D03*
Y141200D03*
X162375Y152500D03*
X191250Y147500D03*
X178875Y152500D03*
X181200Y181200D03*
Y191200D03*
X163250Y169375D03*
X181200Y201200D03*
Y211200D03*
X171200Y221200D03*
X181200D03*
X170550Y197498D03*
X181200Y231200D03*
Y241200D03*
X177250Y234875D03*
X181200Y271200D03*
Y281200D03*
X178350Y252500D03*
X184875Y262500D03*
X167750Y272500D03*
X171200Y291200D03*
X181200D03*
X171200Y301200D03*
X181200D03*
X171200Y311200D03*
X181200D03*
X171200Y321200D03*
X181200D03*
Y331200D03*
X166200Y339998D03*
X179200Y342502D03*
X178250Y356500D03*
X206250Y7302D03*
X211200Y21200D03*
X221200D03*
X215250Y62500D03*
X201200Y101200D03*
X211200D03*
X211250Y74875D03*
X220000Y96375D03*
X211200Y121200D03*
X221200D03*
X211200Y131200D03*
X221200D03*
X209250Y145375D03*
X210250Y156250D03*
X212498Y152500D03*
X211200Y171200D03*
Y181200D03*
Y191200D03*
X195875Y172500D03*
X212498Y162500D03*
X201200Y201200D03*
Y211200D03*
X221200D03*
Y221200D03*
X198750Y197498D03*
X220000Y202498D03*
X216398Y202502D03*
X211498D03*
X221200Y231200D03*
X211200Y261200D03*
Y271200D03*
X201200Y291200D03*
X211200D03*
X201200Y301200D03*
Y311200D03*
X220000Y301700D03*
X221200Y321200D03*
X196150Y342502D03*
X231200Y21200D03*
X241200D03*
X251200D03*
X243373Y67500D03*
X234375Y61250D03*
X231200Y91200D03*
Y101200D03*
X251200D03*
X241200Y121200D03*
X251200D03*
X231200Y131200D03*
X241200D03*
X251200D03*
X227498Y120902D03*
X237795Y115002D03*
X230498D03*
X238746Y109998D03*
X231200Y141200D03*
X241200D03*
X231200Y151200D03*
X241200D03*
Y161200D03*
Y171200D03*
Y181200D03*
X251200D03*
X231200Y191200D03*
X241200D03*
X227498Y171368D03*
X231200Y211200D03*
X251200D03*
X231200Y221200D03*
X251200D03*
X245200Y202498D03*
X239300D03*
X231200Y231200D03*
X251200D03*
X231200Y241200D03*
Y251200D03*
Y261200D03*
Y271200D03*
Y281200D03*
X251200D03*
X231200Y291200D03*
Y301200D03*
X241200D03*
X251200D03*
X231200Y321200D03*
Y351200D03*
X241200D03*
X251200D03*
X231200Y361200D03*
X241200D03*
X231200Y381200D03*
X261200Y21200D03*
X271200D03*
X281200D03*
X271200Y31200D03*
X281200D03*
X261200Y41200D03*
X253750Y40625D03*
X271200Y81200D03*
X281200D03*
Y91200D03*
X261200Y101200D03*
X271200D03*
X281200D03*
X276250Y77500D03*
X261200Y121200D03*
X271200D03*
X281200D03*
X261200Y131200D03*
X271200D03*
X281200D03*
Y141200D03*
Y151200D03*
Y161200D03*
X255002Y158750D03*
X261200Y171200D03*
X281200Y191200D03*
X255002Y177250D03*
X281200Y201200D03*
X261200Y211200D03*
X281200D03*
X261200Y221200D03*
X281200D03*
X255002Y198200D03*
X261200Y231200D03*
X271200D03*
X281200D03*
Y241200D03*
X270375Y244750D03*
X281200Y261200D03*
X261200Y271200D03*
X281200D03*
X261200Y281200D03*
X271200D03*
X281200D03*
X261200Y291200D03*
X271200D03*
X281200D03*
X261200Y301200D03*
X271200D03*
X281200D03*
X261200Y331200D03*
X271200D03*
X281200D03*
Y341200D03*
X263750Y339875D03*
X281200Y361200D03*
X266750Y357500D03*
X279250Y370625D03*
X281200Y381200D03*
X291200Y21200D03*
X301200D03*
X311200D03*
X291200Y31200D03*
X311200D03*
X301200Y51200D03*
Y61200D03*
X299000Y42250D03*
X291200Y81200D03*
X301200D03*
X311200D03*
X291200Y91200D03*
X301200D03*
X311200D03*
X291200Y101200D03*
X301200D03*
X311200D03*
X291200Y121200D03*
X301200D03*
X311200D03*
X291200Y131200D03*
X301200D03*
X311200D03*
X286200Y109998D03*
X291200Y151200D03*
Y161200D03*
Y171200D03*
X301200Y201200D03*
Y211200D03*
X292750Y203625D03*
X291200Y241200D03*
Y251200D03*
X311200D03*
X291200Y261200D03*
Y271200D03*
X301200D03*
X291200Y281200D03*
Y291200D03*
X301200D03*
X291200Y301200D03*
X301200D03*
X309998Y283750D03*
Y300700D03*
X311200Y321200D03*
X291200Y331200D03*
X301200D03*
X311200D03*
X291200Y341200D03*
X301200D03*
X311200D03*
X301200Y351200D03*
Y361200D03*
Y371200D03*
X311200D03*
X301200Y381200D03*
X311200D03*
X304000Y375000D03*
X321200Y21200D03*
X331200D03*
X341200D03*
X321200Y31200D03*
X331200D03*
X341200D03*
X321200Y71200D03*
X334725Y43250D03*
X322375Y47500D03*
X321200Y81200D03*
Y91200D03*
Y101200D03*
Y111200D03*
Y121200D03*
X328750Y113750D03*
X332500Y108750D03*
X331200Y161200D03*
X341200D03*
X320000Y134750D03*
X331200Y181200D03*
X341200D03*
X312502Y176700D03*
X321200Y201200D03*
X331200D03*
X341200D03*
X321200Y211200D03*
X331200D03*
X341200D03*
X321200Y221200D03*
X331200D03*
X341200D03*
X312502Y199368D03*
X331200Y251200D03*
X341200D03*
X322498Y227500D03*
X331200Y281200D03*
X322498Y260800D03*
X331200Y291200D03*
X321200Y321200D03*
X331200D03*
X321200Y331200D03*
X331200D03*
X321200Y341200D03*
X331200D03*
X341200D03*
X340000Y325825D03*
X321200Y351200D03*
X331200D03*
X341200D03*
X321200Y361200D03*
X331200D03*
X321200Y371200D03*
X331200D03*
X341200D03*
X321200Y381200D03*
X331200D03*
X341200D03*
X371200Y31200D03*
X351200Y21200D03*
X361200D03*
X371200D03*
X351200Y31200D03*
X361200D03*
X351200Y41200D03*
X361200D03*
X371200D03*
X347250Y28801D03*
X351200Y51200D03*
X361200D03*
X371200D03*
X351200Y61200D03*
X361200D03*
X371200D03*
X361200Y71200D03*
X371200D03*
X348625Y57500D03*
X351200Y81200D03*
X361200D03*
X371200D03*
X351200Y91200D03*
X361200D03*
X371200D03*
X351200Y101200D03*
X361200D03*
X371200D03*
X351200Y111200D03*
X361200D03*
X371200D03*
X351200Y121200D03*
X361200D03*
X371200D03*
X351200Y131200D03*
X361200D03*
X371200D03*
X342500Y103750D03*
X361200Y141200D03*
X371200D03*
X361200Y151200D03*
X371200D03*
X361200Y161200D03*
X371200D03*
Y191200D03*
X361200Y171200D03*
X371200D03*
X351200Y181200D03*
X361200D03*
X371200D03*
X361200Y191200D03*
X351200Y201200D03*
X361200D03*
X371200D03*
X351200Y211200D03*
X361200D03*
X371200D03*
X351200Y221200D03*
X361200D03*
X371200D03*
X361200Y251200D03*
X371200D03*
X351200Y291200D03*
X361200D03*
X371200D03*
X351200Y301200D03*
X361200D03*
X367500Y306675D03*
X351200Y331200D03*
X361200D03*
X351200Y351200D03*
X361200D03*
X351200Y361200D03*
Y371200D03*
Y381200D03*
X361200D03*
X371200D03*
X396600Y1402D03*
X392700Y3352D03*
X381200Y21200D03*
Y31200D03*
Y41200D03*
Y51200D03*
Y61200D03*
Y71200D03*
Y81200D03*
Y91200D03*
Y101200D03*
Y111200D03*
Y121200D03*
Y131200D03*
Y141200D03*
Y151200D03*
Y161200D03*
Y171200D03*
Y181200D03*
Y191200D03*
Y211200D03*
Y221200D03*
X392700Y202700D03*
X381200Y251200D03*
X394650Y247100D03*
Y237150D03*
X392700Y232250D03*
Y244200D03*
X394650Y262250D03*
X392700Y273250D03*
X390750Y270350D03*
X394650Y265150D03*
X381200Y291200D03*
Y301200D03*
Y311200D03*
X391750Y283750D03*
X381200Y321200D03*
Y331200D03*
Y341200D03*
X391200Y371200D03*
Y361200D03*
X381200D03*
Y371200D03*
X391750Y352500D03*
X391200Y381200D03*
X381200D03*
X394650Y387250D03*
G54D11*
X27500Y30000D03*
Y40000D03*
Y50000D03*
Y60000D03*
Y70000D03*
Y80000D03*
Y125000D03*
Y135000D03*
Y145000D03*
Y155000D03*
Y165000D03*
Y175000D03*
Y185000D03*
Y222500D03*
Y232500D03*
Y242500D03*
X40000Y367500D03*
Y377500D03*
X57500Y30000D03*
Y40000D03*
Y50000D03*
Y60000D03*
Y70000D03*
Y80000D03*
Y90000D03*
Y125000D03*
Y155000D03*
Y145000D03*
Y135000D03*
Y185000D03*
Y175000D03*
Y165000D03*
Y195000D03*
Y222500D03*
Y232500D03*
Y242500D03*
Y252500D03*
X77500Y27500D03*
Y37500D03*
Y47500D03*
Y57500D03*
Y67500D03*
Y77500D03*
X80000Y125000D03*
Y135000D03*
Y145000D03*
Y155000D03*
Y165000D03*
Y175000D03*
Y222500D03*
Y232500D03*
Y242500D03*
Y252500D03*
Y262500D03*
Y272500D03*
Y307500D03*
Y317500D03*
Y327500D03*
Y337500D03*
Y347500D03*
Y357500D03*
X125000Y27500D03*
Y37500D03*
X107500Y27500D03*
Y37500D03*
X125000Y47500D03*
Y57500D03*
Y67500D03*
X107500Y47500D03*
Y57500D03*
Y67500D03*
X125000Y77500D03*
X107500D03*
Y87500D03*
X127500Y122500D03*
Y132500D03*
X110000Y125000D03*
X127500Y142500D03*
Y152500D03*
Y162500D03*
X110000Y135000D03*
Y145000D03*
Y155000D03*
X127500Y172500D03*
X110000Y165000D03*
Y175000D03*
Y185000D03*
Y222500D03*
X127500D03*
X110000Y232500D03*
Y242500D03*
Y252500D03*
X127500Y232500D03*
Y242500D03*
Y252500D03*
X110000Y262500D03*
Y272500D03*
Y282500D03*
X127500Y262500D03*
Y272500D03*
Y305000D03*
X110000Y307500D03*
X127500Y315000D03*
Y325000D03*
Y335000D03*
X110000Y317500D03*
Y327500D03*
Y337500D03*
X127500Y345000D03*
Y355000D03*
X110000Y347500D03*
Y357500D03*
Y367500D03*
X155000Y27500D03*
Y37500D03*
Y47500D03*
Y57500D03*
Y67500D03*
Y77500D03*
Y87500D03*
X157500Y122500D03*
Y132500D03*
Y142500D03*
Y152500D03*
Y162500D03*
Y172500D03*
Y182500D03*
Y222500D03*
Y232500D03*
Y242500D03*
Y252500D03*
Y262500D03*
Y272500D03*
Y282500D03*
Y305000D03*
Y315000D03*
Y325000D03*
Y335000D03*
Y345000D03*
Y355000D03*
Y365000D03*
X172500Y27500D03*
Y37500D03*
Y47500D03*
Y57500D03*
Y67500D03*
Y77500D03*
Y87500D03*
Y97500D03*
Y122500D03*
Y132500D03*
Y142500D03*
Y152500D03*
Y162500D03*
Y172500D03*
Y222500D03*
Y232500D03*
Y242500D03*
Y252500D03*
Y262500D03*
Y272500D03*
Y317500D03*
Y327500D03*
Y337500D03*
Y347500D03*
Y357500D03*
Y367500D03*
X202500Y37500D03*
X220000Y27500D03*
Y37500D03*
X202500Y67500D03*
Y57500D03*
Y47500D03*
X220000D03*
Y57500D03*
Y67500D03*
X202500Y97500D03*
Y87500D03*
Y77500D03*
X220000D03*
Y122500D03*
Y132500D03*
X202500Y122500D03*
Y132500D03*
X220000Y142500D03*
Y152500D03*
Y162500D03*
X202500Y142500D03*
Y152500D03*
Y162500D03*
X220000Y172500D03*
Y182500D03*
X202500Y172500D03*
Y182500D03*
X220000Y220000D03*
X202500Y222500D03*
X220000Y230000D03*
Y240000D03*
Y250000D03*
X202500Y232500D03*
Y242500D03*
Y252500D03*
X220000Y260000D03*
Y270000D03*
Y280000D03*
X202500Y262500D03*
Y272500D03*
Y282500D03*
Y317500D03*
Y327500D03*
Y337500D03*
X220000Y315000D03*
Y325000D03*
Y335000D03*
X202500Y347500D03*
Y357500D03*
Y367500D03*
Y377500D03*
X250000Y27500D03*
Y37500D03*
Y47500D03*
Y57500D03*
Y67500D03*
Y77500D03*
Y87500D03*
Y132500D03*
Y122500D03*
Y162500D03*
Y152500D03*
Y142500D03*
Y192500D03*
Y182500D03*
Y172500D03*
Y220000D03*
Y250000D03*
Y240000D03*
Y230000D03*
Y280000D03*
Y270000D03*
Y260000D03*
Y290000D03*
Y315000D03*
Y325000D03*
Y335000D03*
Y345000D03*
X267500Y27500D03*
Y37500D03*
Y47500D03*
Y57500D03*
Y67500D03*
Y77500D03*
Y87500D03*
Y97500D03*
Y122500D03*
Y132500D03*
Y142500D03*
Y152500D03*
Y162500D03*
Y172500D03*
Y182500D03*
Y220000D03*
Y230000D03*
Y240000D03*
Y250000D03*
Y260000D03*
Y270000D03*
Y280000D03*
Y290000D03*
Y315000D03*
Y325000D03*
Y335000D03*
X272500Y357500D03*
Y367500D03*
X297500Y37500D03*
Y67500D03*
Y57500D03*
Y47500D03*
Y97500D03*
Y87500D03*
Y77500D03*
Y132500D03*
Y122500D03*
Y162500D03*
Y152500D03*
Y142500D03*
Y192500D03*
Y182500D03*
Y172500D03*
Y250000D03*
Y240000D03*
Y230000D03*
Y280000D03*
Y270000D03*
Y260000D03*
Y290000D03*
Y315000D03*
Y325000D03*
Y335000D03*
Y345000D03*
X292500Y362500D03*
X302500D03*
X342500Y37500D03*
X332500D03*
X342500Y67500D03*
Y57500D03*
X332500Y67500D03*
Y57500D03*
X342500Y47500D03*
X332500D03*
X320000Y120000D03*
Y130000D03*
Y140000D03*
Y150000D03*
Y160000D03*
Y170000D03*
Y180000D03*
X317500Y217500D03*
Y227500D03*
Y237500D03*
Y247500D03*
Y257500D03*
Y267500D03*
Y277500D03*
X350000Y130000D03*
Y120000D03*
Y160000D03*
Y150000D03*
Y140000D03*
Y190000D03*
Y180000D03*
Y170000D03*
X347500Y217500D03*
Y247500D03*
Y237500D03*
Y227500D03*
Y277500D03*
Y267500D03*
Y257500D03*
Y287500D03*
X367500Y300000D03*
Y290000D03*
X372500Y342500D03*
X362500D03*
X367500Y325000D03*
Y315000D03*
X372500Y372500D03*
Y362500D03*
X362500Y372500D03*
Y362500D03*
X372500Y352500D03*
X362500D03*
G54D12*
X27500Y90000D03*
Y195000D03*
Y252500D03*
X77500Y87500D03*
X80000Y185000D03*
Y282500D03*
Y367500D03*
X125000Y87500D03*
X127500Y182500D03*
Y282500D03*
Y365000D03*
X172500Y182500D03*
Y282500D03*
Y377500D03*
X202500Y27500D03*
X220000Y87500D03*
Y192500D03*
Y290000D03*
Y345000D03*
X267500Y192500D03*
Y345000D03*
X297500Y27500D03*
Y220000D03*
X320000Y190000D03*
X317500Y287500D03*
G54D13*
X27500Y277500D03*
Y307500D03*
Y297500D03*
Y287500D03*
Y337500D03*
Y327500D03*
Y317500D03*
X57500Y277500D03*
Y287500D03*
Y297500D03*
Y307500D03*
Y317500D03*
Y327500D03*
Y337500D03*
Y347500D03*
X330000Y315000D03*
X340000D03*
G54D14*
X27500Y347500D03*
X320000Y315000D03*
G54D15*
X20000Y370000D03*
X370000Y30000D03*
Y190000D03*
G54D16*
X220000Y360000D03*
X250000D03*
X222500Y377500D03*
X262500Y380000D03*
X252500Y377500D03*
X292500Y380000D03*
X312500Y362500D03*
Y375000D03*
X342500Y362500D03*
Y375000D03*
G54D17*
G01X350800Y67500D02*
Y68625D01*
X350267Y70000D01*
G01X351333D02*
X350800Y68625D01*
G01X352947Y67500D02*
X353000Y68042D01*
X353080Y68500D01*
X353187Y68917D01*
X353320Y69375D01*
X353533Y70000D01*
X352467D01*
G01X353300D02*
Y71125D01*
X352767Y72500D01*
G01X353833D02*
X353300Y71125D01*
G01X355447Y70000D02*
X355500Y70542D01*
X355580Y71000D01*
X355687Y71417D01*
X355820Y71875D01*
X356033Y72500D01*
X354967D01*
G54D18*
G01X4849Y211650D02*
Y178750D01*
G01X394650Y262250D02*
X396600D01*
Y391750D01*
X4849D01*
Y211650D01*
G01X27500Y30000D02*
X31202D01*
G01X27500Y26298D02*
Y30000D01*
G01D02*
Y33702D01*
G01X23798Y30000D02*
X27500D01*
G01Y125000D02*
X31202D01*
G01X27500Y121298D02*
Y125000D01*
G01D02*
Y128702D01*
G01X23798Y125000D02*
X27500D01*
G01Y135000D02*
X31202D01*
G01X27500Y131298D02*
Y135000D01*
G01D02*
Y138702D01*
G01X23798Y135000D02*
X27500D01*
G01Y165000D02*
X31202D01*
G01X27500Y161298D02*
Y165000D01*
G01D02*
Y168702D01*
G01X23798Y165000D02*
X27500D01*
G01Y218798D02*
Y222500D01*
G01D02*
X31202D01*
G01X27500D02*
Y226202D01*
G01X23798Y222500D02*
X27500D01*
G01X31102Y277500D02*
X27500D01*
G01Y273898D02*
Y277500D01*
G01D02*
Y281102D01*
G01X23898Y277500D02*
X27500D01*
G01Y252500D02*
X57500D01*
G01X31102Y287500D02*
X27500D01*
G01Y283898D02*
Y287500D01*
G01D02*
Y291102D01*
G01X23898Y287500D02*
X27500D01*
G01Y317500D02*
X31102D01*
G01X27500Y313898D02*
Y317500D01*
G01D02*
Y321102D01*
G01X23898Y317500D02*
X27500D01*
G01X40000Y367500D02*
X43702D01*
G01X40000Y363798D02*
Y367500D01*
G01D02*
Y371202D01*
G01X36298Y367500D02*
X40000D01*
G01X57500Y125000D02*
X61202D01*
G01X57500Y121298D02*
Y125000D01*
G01D02*
Y128702D01*
G01X53798Y125000D02*
X57500D01*
G01X206250Y7302D02*
X70800D01*
G01X77500Y27500D02*
X81202D01*
G01X77500Y23798D02*
Y27500D01*
G01D02*
Y31202D01*
G01X73798Y27500D02*
X77500D01*
G01X80000Y125000D02*
X83702D01*
G01X80000Y121298D02*
Y125000D01*
G01D02*
Y128702D01*
G01X76298Y125000D02*
X80000D01*
G01Y218798D02*
Y222500D01*
G01D02*
X83702D01*
G01X80000D02*
Y226202D01*
G01X76298Y222500D02*
X80000D01*
G01Y307500D02*
X83702D01*
G01X80000Y303798D02*
Y307500D01*
G01D02*
Y311202D01*
G01X76298Y307500D02*
X80000D01*
G01X390750Y270350D02*
Y9252D01*
X119300D01*
G01X125000Y27500D02*
X128702D01*
G01X125000Y23798D02*
Y27500D01*
G01D02*
Y31202D01*
G01X121298Y27500D02*
X125000D01*
G01X131202Y122500D02*
X127500D01*
G01Y118798D02*
Y122500D01*
G01D02*
Y126202D01*
G01X123798Y122500D02*
X127500D01*
G01X110000Y175000D02*
X117000D01*
X117500Y175500D01*
Y335000D01*
X127500Y345000D01*
G01Y218798D02*
Y222500D01*
G01D02*
X131202D01*
G01X127500D02*
Y226202D01*
G01X123798Y222500D02*
X127500D01*
G01Y305000D02*
X131202D01*
G01X127500Y301298D02*
Y305000D01*
G01D02*
Y308702D01*
G01X123798Y305000D02*
X127500D01*
G01X144998Y60800D02*
Y96200D01*
G01X158074Y92290D02*
X157207D01*
Y100301D01*
G01Y108312D02*
Y100301D01*
G01X149998Y254300D02*
Y243450D01*
G01Y258200D02*
Y287250D01*
G01X144450Y267498D02*
X134200D01*
G01X150002Y290150D02*
Y311868D01*
G01X166200Y339998D02*
X148200D01*
G01X172500Y97500D02*
X176202D01*
G01X172500Y93798D02*
Y97500D01*
G01D02*
Y101202D01*
G01X168798Y97500D02*
X172500D01*
G01Y122500D02*
X176202D01*
G01X172500Y118798D02*
Y122500D01*
G01D02*
Y126202D01*
G01X168798Y122500D02*
X172500D01*
G01Y218798D02*
Y222500D01*
G01X170550Y197498D02*
X198750D01*
G01X172500Y222500D02*
X176202D01*
G01X172500D02*
Y226202D01*
G01X168798Y222500D02*
X172500D01*
G01Y317500D02*
X176202D01*
G01X172500Y313798D02*
Y317500D01*
G01D02*
Y321202D01*
G01X168798Y317500D02*
X172500D01*
G01X196150Y342502D02*
X179200D01*
G01X220000Y27500D02*
X223702D01*
G01X220000Y23798D02*
Y27500D01*
G01D02*
Y31202D01*
G01X216298Y27500D02*
X220000D01*
G01X202500Y97500D02*
X206202D01*
G01X202500Y93798D02*
Y97500D01*
G01D02*
Y101202D01*
G01X198798Y97500D02*
X202500D01*
G01X220000Y122500D02*
X223702D01*
G01X220000Y118798D02*
Y122500D01*
G01D02*
Y126202D01*
G01X216298Y122500D02*
X220000D01*
G01Y128798D02*
Y132500D01*
G01D02*
X223702D01*
G01X220000D02*
Y136202D01*
G01X216298Y132500D02*
X220000D01*
G01X212498Y162500D02*
Y152500D01*
G01X220000Y220000D02*
X223702D01*
G01X220000Y216298D02*
Y220000D01*
G01D02*
Y223702D01*
G01X216298Y220000D02*
X220000D01*
G01Y202498D02*
X239300D01*
G01X216398Y202502D02*
X211498D01*
G01X220000Y230000D02*
X223702D01*
G01X220000Y226298D02*
Y230000D01*
G01D02*
Y233702D01*
G01X216298Y230000D02*
X220000D01*
G01Y301700D02*
Y290000D01*
G01Y325000D02*
X223702D01*
G01X220000Y321298D02*
Y325000D01*
G01D02*
Y328702D01*
G01X216298Y325000D02*
X220000D01*
G01X250000Y122500D02*
X253702D01*
G01X250000Y118798D02*
Y122500D01*
G01D02*
Y126202D01*
G01X246298Y122500D02*
X250000D01*
G01Y128798D02*
Y132500D01*
G01X227498Y120902D02*
Y171368D01*
G01X237795Y115002D02*
X230498D01*
G01X238746Y109998D02*
X286200D01*
G01X250000Y132500D02*
X253702D01*
G01X250000D02*
Y136202D01*
G01X246298Y132500D02*
X250000D01*
G01Y182500D02*
X253702D01*
G01X250000Y178798D02*
Y182500D01*
G01D02*
Y186202D01*
G01X246298Y182500D02*
X250000D01*
G01Y220000D02*
X253702D01*
G01X250000Y216298D02*
Y220000D01*
G01D02*
Y223702D01*
G01X246298Y220000D02*
X250000D01*
G01X239300Y202498D02*
X245200D01*
G01X250000Y230000D02*
X253702D01*
G01X250000Y226298D02*
Y230000D01*
G01D02*
Y233702D01*
G01X246298Y230000D02*
X250000D01*
G01Y280000D02*
X253702D01*
G01X250000Y276298D02*
Y280000D01*
G01D02*
Y283702D01*
G01X246298Y280000D02*
X250000D01*
G01Y315000D02*
X253702D01*
G01X250000Y311298D02*
Y315000D01*
G01D02*
Y318702D01*
G01X246298Y315000D02*
X250000D01*
G01X267500Y37500D02*
X271202D01*
G01X267500Y33798D02*
Y37500D01*
G01D02*
Y41202D01*
G01X263798Y37500D02*
X267500D01*
G01Y97500D02*
X271202D01*
G01X267500Y87500D02*
X271202D01*
G01X267500Y93798D02*
Y97500D01*
G01D02*
Y101202D01*
G01X263798Y97500D02*
X267500D01*
G01Y83798D02*
Y87500D01*
G01D02*
Y91202D01*
G01X263798Y87500D02*
X267500D01*
G01X342500Y47500D02*
X337500Y52500D01*
X327500D01*
X307500Y72500D01*
X290000D01*
X285000Y77500D01*
X276250D01*
G01D02*
X267500D01*
G01Y122500D02*
X271202D01*
G01X267500Y128798D02*
Y132500D01*
G01Y118798D02*
Y122500D01*
G01D02*
Y126202D01*
G01X263798Y122500D02*
X267500D01*
G01Y132500D02*
X271202D01*
G01X267500D02*
Y136202D01*
G01X263798Y132500D02*
X267500D01*
G01X255002Y177250D02*
Y158750D01*
G01Y198200D02*
Y177250D01*
G01X267500Y230000D02*
X271202D01*
G01X267500Y226298D02*
Y230000D01*
G01D02*
Y233702D01*
G01X263798Y230000D02*
X267500D01*
G01Y280000D02*
X271202D01*
G01X267500Y276298D02*
Y280000D01*
G01D02*
Y283702D01*
G01X263798Y280000D02*
X267500D01*
G01Y290000D02*
X271202D01*
G01X267500Y286298D02*
Y290000D01*
G01D02*
Y293702D01*
G01X263798Y290000D02*
X267500D01*
G01Y315000D02*
X271202D01*
G01X267500Y311298D02*
Y315000D01*
G01D02*
Y318702D01*
G01X263798Y315000D02*
X267500D01*
G01X297500Y97500D02*
X301202D01*
G01X297500Y93798D02*
Y97500D01*
G01D02*
Y101202D01*
G01X293798Y97500D02*
X297500D01*
G01Y122500D02*
X301202D01*
G01X297500Y118798D02*
Y122500D01*
G01D02*
Y126202D01*
G01X293798Y122500D02*
X297500D01*
G01Y128798D02*
Y132500D01*
G01D02*
X301202D01*
G01X297500D02*
Y136202D01*
G01X293798Y132500D02*
X297500D01*
G01Y182500D02*
X301202D01*
G01X297500Y178798D02*
Y182500D01*
G01D02*
Y186202D01*
G01X293798Y182500D02*
X297500D01*
G01Y270000D02*
X301202D01*
G01X297500Y266298D02*
Y270000D01*
G01D02*
Y273702D01*
G01X293798Y270000D02*
X297500D01*
G01Y290000D02*
X301202D01*
G01X297500Y286298D02*
Y290000D01*
G01D02*
Y293702D01*
G01X293798Y290000D02*
X297500D01*
G01X309998Y283750D02*
Y300700D01*
G01X302500Y362500D02*
X306202D01*
G01X302500Y358798D02*
Y362500D01*
G01D02*
Y366202D01*
G01X298798Y362500D02*
X302500D01*
G01X320000Y120000D02*
X323702D01*
G01X320000Y116298D02*
Y120000D01*
G01D02*
Y123702D01*
G01X316298Y120000D02*
X320000D01*
G01X312502Y176700D02*
Y199368D01*
G01X317500Y217500D02*
X321202D01*
G01X317500Y213798D02*
Y217500D01*
G01D02*
Y221202D01*
G01X313798Y217500D02*
X317500D01*
G01X322498Y227500D02*
Y260800D01*
G01X330000Y315000D02*
X333602D01*
G01X330000Y311398D02*
Y315000D01*
G01D02*
Y318602D01*
G01X326398Y315000D02*
X330000D01*
G01X350000Y120000D02*
X353702D01*
G01X350000Y130000D02*
X353702D01*
G01X350000Y126298D02*
Y130000D01*
G01D02*
Y133702D01*
G01X346298Y130000D02*
X350000D01*
G01Y116298D02*
Y120000D01*
G01D02*
Y123702D01*
G01X346298Y120000D02*
X350000D01*
G01Y180000D02*
X353702D01*
G01X350000Y176298D02*
Y180000D01*
G01D02*
Y183702D01*
G01X346298Y180000D02*
X350000D01*
G01X347500Y237500D02*
X351202D01*
G01X347500Y233798D02*
Y237500D01*
G01D02*
Y241202D01*
G01X343798Y237500D02*
X347500D01*
G01X367500Y290000D02*
X371202D01*
G01X367500Y286298D02*
Y290000D01*
G01D02*
Y293702D01*
G01X363798Y290000D02*
X367500D01*
G01Y315000D02*
X371202D01*
G01X367500Y311298D02*
Y315000D01*
G01D02*
Y318702D01*
G01X363798Y315000D02*
X367500D01*
G01X362500Y352500D02*
X366202D01*
G01X362500Y348798D02*
Y352500D01*
G01D02*
Y356202D01*
G01X358798Y352500D02*
X362500D01*
G01X392700Y273250D02*
Y255050D01*
X396600D01*
Y1402D01*
G01X392700Y202700D02*
Y3352D01*
G01X394650Y247100D02*
Y237150D01*
G01X392700Y232250D02*
Y244200D01*
G01X394650Y265150D02*
Y387250D01*
G01X391750Y283750D02*
Y352500D01*
M02*
