M48
INCH
T01C.013
T02C.028
T03C.034
T04C.036
T05C.037
T06C.11
;LEADER: 12 
;HEADER: 
;CODE  : ASCII 
;FILE  : adc2-1-2.drl for  ... layers TOP and BOTTOM
;DESIGN: adc2.brd
;T01 Holesize 1. = 13.000000 Tolerance = +0.000000/-0.000000 PLATED MILS Quantity = 723
;T02 Holesize 2. = 28.000000 Tolerance = +0.000000/-0.000000 PLATED MILS Quantity = 10
;T03 Holesize 3. = 34.000000 Tolerance = +0.000000/-0.000000 PLATED MILS Quantity = 16
;T04 Holesize 4. = 36.000000 Tolerance = +0.000000/-0.000000 PLATED MILS Quantity = 376
;T05 Holesize 5. = 37.000000 Tolerance = +0.000000/-0.000000 PLATED MILS Quantity = 3
;T06 Holesize 6. = 110.000000 Tolerance = +0.000000/-0.000000 PLATED MILS Quantity = 3
%
G90
T01
X0080000Y0376375
X0079000Y0295250
X0114125Y0062750
X0309998Y0300700
X0391750Y0352500
X0391750Y0283750
X0212498Y0152500
X0255002Y0198200
X0255002Y0158750
X0309998Y0283750
X0212498Y0162500
X0255002Y0177250
X0086750Y0171875
X0394650Y0387250
X0394650Y0265150
X0367500Y0306675
X0167750Y0272500
X0134200Y0267498
X0144450Y0267498
X0234375Y0061250
X0332500Y0108750
X0177750Y0022750
X0210250Y0156250
X0347250Y0028801
X0110000Y0118600
X0215250Y0062500
X0220000Y0096375
X0119300Y0009252
X0390750Y0270350
X0348625Y0057500
X0276250Y0077500
X0020750Y0123000
X0113750Y0364125
X0253750Y0040625
X0279250Y0370625
X0150150Y0332375
X0263750Y0339875
X0163250Y0169375
X0131250Y0357875
X0286200Y0109998
X0238746Y0109998
X0073625Y0145000
X0132250Y0264500
X0184875Y0262500
X0211250Y0074875
X0342500Y0103750
X0322375Y0047500
X0104875Y0145000
X0114750Y0146875
X0053750Y0189750
X0220000Y0301700
X0320000Y0134750
X0085850Y0155000
X0120750Y0183000
X0243373Y0067500
X0149998Y0243450
X0149998Y0254300
X0334725Y0043250
X0211498Y0202502
X0216398Y0202502
X0148200Y0339998
X0166200Y0339998
X0292750Y0203625
X0266750Y0357500
X0178875Y0152500
X0299000Y0042250
X0328750Y0113750
X0102250Y0284375
X0178250Y0356500
X0392700Y0003352
X0392700Y0202700
X0239300Y0202498
X0220000Y0202498
X0245200Y0202498
X0040625Y0149247
X0057625Y0237250
X0133825Y0282500
X0034875Y0347500
X0125000Y0072500
X0209250Y0145375
X0178350Y0252500
X0191250Y0147500
X0270375Y0244750
X0392700Y0244200
X0392700Y0232250
X0312502Y0199368
X0150002Y0311868
X0230498Y0115002
X0237795Y0115002
X0150002Y0290150
X0312502Y0176700
X0177250Y0234875
X0394650Y0237150
X0394650Y0247100
X0396600Y0001402
X0392700Y0273250
X0195875Y0172500
X0322498Y0260800
X0322498Y0227500
X0150750Y0143875
X0227498Y0171368
X0227498Y0120902
X0144998Y0096200
X0144998Y0060800
X0162375Y0152500
X0340000Y0325825
X0304000Y0375000
X0080000Y0267500
X0168375Y0093250
X0004849Y0211650
X0394650Y0262250
X0004849Y0178750
X0140000Y0037500
X0125000Y0052500
X0149998Y0287250
X0149998Y0258200
X0071125Y0227250
X0089375Y0357500
X0198750Y0197498
X0070800Y0007302
X0206250Y0007302
X0179200Y0342502
X0196150Y0342502
X0170550Y0197498
X0381200Y0381200
R08X-0010000
X0281200Y0381200
X0231200Y0381200
X0091200Y0381200
X0061200Y0381200
X0051200Y0381200
X0031200Y0381200
X0021200Y0381200
X0011200Y0381200
X0381200Y0371200
X0351200Y0371200
X0341200Y0371200
R04X-0010000
X0101200Y0371200
X0091200Y0371200
X0061200Y0371200
R03X-0010000
X0011200Y0371200
X0381200Y0361200
X0351200Y0361200
X0331200Y0361200
X0321200Y0361200
X0301200Y0361200
X0281200Y0361200
X0241200Y0361200
X0231200Y0361200
X0161200Y0361200
X0141200Y0361200
X0061200Y0361200
R05X-0010000
X0361200Y0351200
R04X-0010000
X0301200Y0351200
X0251200Y0351200
X0241200Y0351200
X0231200Y0351200
X0161200Y0351200
X0141200Y0351200
X0091200Y0351200
X0061200Y0351200
X0011200Y0351200
X0381200Y0341200
X0341200Y0341200
X0331200Y0341200
R05X-0010000
X0091200Y0341200
X0061200Y0341200
X0051200Y0341200
R02X-0020000
X0381200Y0331200
X0361200Y0331200
X0351200Y0331200
X0331200Y0331200
X0321200Y0331200
R06X-0010000
X0181200Y0331200
X0141200Y0331200
X0131200Y0331200
X0061200Y0331200
X0051200Y0331200
R02X-0020000
X0381200Y0321200
X0331200Y0321200
X0321200Y0321200
X0311200Y0321200
X0231200Y0321200
X0221200Y0321200
X0181200Y0321200
X0171200Y0321200
X0011200Y0321200
X0381200Y0311200
X0201200Y0311200
X0181200Y0311200
X0171200Y0311200
X0091200Y0311200
R02X-0030000
X0011200Y0311200
X0381200Y0301200
X0361200Y0301200
X0351200Y0301200
X0301200Y0301200
X0291200Y0301200
R06X-0010000
X0201200Y0301200
X0181200Y0301200
X0171200Y0301200
X0141200Y0301200
X0091200Y0301200
X0081200Y0301200
X0061200Y0301200
X0031200Y0301200
X0021200Y0301200
X0011200Y0301200
X0381200Y0291200
R03X-0010000
X0331200Y0291200
X0301200Y0291200
X0291200Y0291200
R03X-0010000
X0231200Y0291200
X0211200Y0291200
X0201200Y0291200
X0181200Y0291200
X0171200Y0291200
X0091200Y0291200
X0081200Y0291200
X0061200Y0291200
X0031200Y0291200
R02X-0010000
X0331200Y0281200
X0291200Y0281200
X0281200Y0281200
R03X-0010000
X0231200Y0281200
X0181200Y0281200
X0091200Y0281200
R02X-0030000
X0021200Y0281200
X0011200Y0281200
X0301200Y0271200
R02X-0010000
X0261200Y0271200
X0231200Y0271200
X0211200Y0271200
X0181200Y0271200
X0091200Y0271200
X0071200Y0271200
X0061200Y0271200
X0031200Y0271200
X0021200Y0271200
X0011200Y0271200
X0291200Y0261200
X0281200Y0261200
X0231200Y0261200
X0211200Y0261200
X0121200Y0261200
X0091200Y0261200
X0071200Y0261200
X0061200Y0261200
X0031200Y0261200
R02X-0010000
X0381200Y0251200
R02X-0010000
X0341200Y0251200
X0331200Y0251200
X0311200Y0251200
X0291200Y0251200
X0231200Y0251200
X0121200Y0251200
X0071200Y0251200
X0291200Y0241200
X0281200Y0241200
X0231200Y0241200
X0181200Y0241200
X0121200Y0241200
X0071200Y0241200
X0051200Y0241200
X0041200Y0241200
X0021200Y0241200
X0011200Y0241200
X0281200Y0231200
R03X-0010000
X0231200Y0231200
X0221200Y0231200
X0181200Y0231200
X0071200Y0231200
X0051200Y0231200
X0041200Y0231200
X0021200Y0231200
X0011200Y0231200
X0381200Y0221200
R06X-0010000
X0281200Y0221200
X0261200Y0221200
X0251200Y0221200
X0231200Y0221200
X0221200Y0221200
X0181200Y0221200
X0171200Y0221200
X0131200Y0221200
X0121200Y0221200
X0101200Y0221200
X0091200Y0221200
R02X-0010000
X0051200Y0221200
R04X-0010000
X0381200Y0211200
R06X-0010000
X0301200Y0211200
R02X-0020000
X0251200Y0211200
X0231200Y0211200
X0221200Y0211200
R03X-0020000
X0131200Y0211200
X0121200Y0211200
X0371200Y0201200
R05X-0010000
X0301200Y0201200
X0281200Y0201200
X0201200Y0201200
R02X-0020000
X0131200Y0201200
R12X-0010000
X0381200Y0191200
X0361200Y0191200
X0281200Y0191200
X0241200Y0191200
X0231200Y0191200
X0211200Y0191200
X0181200Y0191200
X0161200Y0191200
X0131200Y0191200
X0121200Y0191200
X0101200Y0191200
X0091200Y0191200
X0021200Y0191200
X0011200Y0191200
X0381200Y0181200
R05X-0010000
X0251200Y0181200
X0241200Y0181200
X0211200Y0181200
X0181200Y0181200
X0021200Y0181200
X0011200Y0181200
X0381200Y0171200
R02X-0010000
X0291200Y0171200
X0261200Y0171200
X0241200Y0171200
X0211200Y0171200
X0011200Y0171200
X0381200Y0161200
R02X-0010000
X0341200Y0161200
X0331200Y0161200
X0291200Y0161200
X0281200Y0161200
X0241200Y0161200
X0121200Y0161200
X0101200Y0161200
X0011200Y0161200
X0381200Y0151200
R02X-0010000
X0291200Y0151200
X0281200Y0151200
X0241200Y0151200
X0231200Y0151200
X0101200Y0151200
X0091200Y0151200
X0071200Y0151200
R02X-0010000
X0011200Y0151200
X0381200Y0141200
R02X-0010000
X0281200Y0141200
X0241200Y0141200
X0231200Y0141200
X0181200Y0141200
X0141200Y0141200
X0031200Y0141200
X0011200Y0141200
X0381200Y0131200
R03X-0010000
X0311200Y0131200
R10X-0010000
X0181200Y0131200
X0101200Y0131200
X0091200Y0131200
X0031200Y0131200
X0011200Y0131200
X0381200Y0121200
R03X-0010000
X0321200Y0121200
R08X-0010000
X0221200Y0121200
X0211200Y0121200
X0191200Y0121200
R02X-0010000
X0141200Y0121200
X0131200Y0121200
X0101200Y0121200
R07X-0010000
X0011200Y0121200
X0381200Y0111200
R03X-0010000
X0321200Y0111200
X0111200Y0111200
X0101200Y0111200
R07X-0010000
X0011200Y0111200
X0381200Y0101200
R03X-0010000
X0321200Y0101200
R07X-0010000
X0231200Y0101200
X0211200Y0101200
X0201200Y0101200
R12X-0010000
X0061200Y0101200
R03X-0010000
X0011200Y0101200
X0381200Y0091200
R03X-0010000
X0321200Y0091200
R04X-0010000
X0231200Y0091200
X0041200Y0091200
X0011200Y0091200
X0381200Y0081200
R03X-0010000
X0321200Y0081200
R05X-0010000
X0161200Y0081200
X0111200Y0081200
X0011200Y0081200
X0381200Y0071200
R02X-0010000
X0321200Y0071200
X0161200Y0071200
X0151200Y0071200
R03X-0010000
X0051200Y0071200
X0041200Y0071200
X0021200Y0071200
X0011200Y0071200
X0381200Y0061200
R03X-0010000
X0301200Y0061200
X0051200Y0061200
X0041200Y0061200
X0021200Y0061200
X0011200Y0061200
X0381200Y0051200
R03X-0010000
X0301200Y0051200
X0181200Y0051200
X0151200Y0051200
R07X-0010000
X0051200Y0051200
X0041200Y0051200
X0021200Y0051200
X0011200Y0051200
X0381200Y0041200
R03X-0010000
X0261200Y0041200
X0151200Y0041200
X0141200Y0041200
X0111200Y0041200
X0101200Y0041200
R02X-0010000
X0051200Y0041200
X0041200Y0041200
X0021200Y0041200
X0011200Y0041200
X0381200Y0031200
X0361200Y0031200
X0351200Y0031200
R04X-0010000
X0291200Y0031200
R02X-0010000
X0141200Y0031200
X0131200Y0031200
X0111200Y0031200
R03X-0010000
X0051200Y0031200
R04X-0010000
X0381200Y0021200
R17X-0010000
X0141200Y0021200
X0131200Y0021200
X0111200Y0021200
R03X-0010000
X0061200Y0021200
R05X-0010000
X0111200Y0011200
R03X-0010000
X0061200Y0011200
R05X-0010000
X0157207Y0100301
X0371200Y0031200
X0371200Y0191200
X0391200Y0361200
X0021200Y0371200
X0391200Y0371200
X0391200Y0381200
T02
X0252500Y0377500
X0222500Y0377500
X0220000Y0360000
X0250000Y0360000
X0262500Y0380000
X0292500Y0380000
X0312500Y0375000
X0342500Y0375000
X0312500Y0362500
X0342500Y0362500
T03
X0027500Y0347500
R07Y-0010000
X0057500Y0277500
R07Y0010000
T04
X0027500Y0090000
R06Y-0010000
X0057500Y0030000
R06Y0010000
X0077500Y0087500
R06Y-0010000
X0107500Y0027500
R06Y0010000
X0080000Y0185000
R06Y-0010000
X0110000Y0125000
R06Y0010000
X0027500Y0195000
R07Y-0010000
X0057500Y0125000
R07Y0010000
X0080000Y0282500
R06Y-0010000
X0110000Y0222500
R06Y0010000
X0027500Y0252500
R03Y-0010000
X0057500Y0222500
R03Y0010000
X0040000Y0367500
X0040000Y0377500
X0080000Y0367500
R06Y-0010000
X0110000Y0307500
R06Y0010000
X0172500Y0377500
R06Y-0010000
X0202500Y0317500
R06Y0010000
X0127500Y0365000
R06Y-0010000
X0157500Y0305000
R06Y0010000
X0127500Y0282500
R06Y-0010000
X0157500Y0222500
R06Y0010000
X0172500Y0282500
R06Y-0010000
X0202500Y0222500
R06Y0010000
X0127500Y0182500
R06Y-0010000
X0157500Y0122500
R06Y0010000
X0172500Y0182500
R06Y-0010000
X0202500Y0122500
R06Y0010000
X0125000Y0087500
R06Y-0010000
X0155000Y0027500
R06Y0010000
X0220000Y0087500
R06Y-0010000
X0250000Y0027500
R06Y0010000
X0202500Y0027500
R07Y0010000
X0172500Y0097500
R07Y-0010000
X0267500Y0192500
R07Y-0010000
X0297500Y0122500
R07Y0010000
X0220000Y0192500
R07Y-0010000
X0250000Y0122500
R07Y0010000
X0220000Y0290000
R07Y-0010000
X0250000Y0220000
R07Y0010000
X0272500Y0367500
X0272500Y0357500
X0220000Y0345000
R03Y-0010000
X0250000Y0315000
R03Y0010000
X0267500Y0345000
R03Y-0010000
X0297500Y0315000
R03Y0010000
X0302500Y0362500
X0292500Y0362500
X0367500Y0315000
X0367500Y0325000
X0362500Y0342500
X0372500Y0342500
X0362500Y0352500
X0372500Y0352500
X0362500Y0362500
X0372500Y0362500
X0362500Y0372500
X0372500Y0372500
X0367500Y0290000
X0367500Y0300000
X0317500Y0287500
R07Y-0010000
X0347500Y0217500
R07Y0010000
X0297500Y0220000
R07Y0010000
X0267500Y0290000
R07Y-0010000
X0320000Y0190000
R07Y-0010000
X0350000Y0120000
R07Y0010000
X0332500Y0037500
X0342500Y0037500
X0332500Y0047500
X0342500Y0047500
X0332500Y0057500
X0342500Y0057500
X0332500Y0067500
X0342500Y0067500
X0297500Y0027500
R07Y0010000
X0267500Y0097500
R07Y-0010000
T05
X0320000Y0315000
R02X0010000
T06
X0020000Y0370000
X0370000Y0190000
X0370000Y0030000
M30
