G04 ================== begin FILE IDENTIFICATION RECORD ==================*
G04 Layout Name:  adc2.brd*
G04 Film Name:    TOP_SILKSCREEN*
G04 File Format:  Gerber RS274X*
G04 File Origin:  Cadence Allegro -unreleased*
G04 Origin Date:  Sun Sep 19 23:40:03 2021*
G04 *
G04 Layer:  MANUFACTURING/AUTOSILK_TOP*
G04 *
G04 Offset:    (0.00 0.00)*
G04 Mirror:    No*
G04 Mode:      Positive*
G04 Rotation:  0*
G04 FullContactRelief:  No*
G04 UndefLineWidth:     7.00*
G04 ================== end FILE IDENTIFICATION RECORD ====================*
%FSLAX25Y25*MOIN*%
%IR0*IPPOS*OFA0.00000B0.00000*MIA0B0*SFA1.00000B1.00000*%
%ADD10C,.007*%
%ADD11C,.008*%
G75*
%LPD*%
G75*
G54D10*
G01X31500Y97500D02*
Y32361D01*
G01Y30039D02*
Y22500D01*
X53500D01*
Y97500D01*
X47500D01*
X45000Y95000D01*
X40000D01*
X37500Y97500D01*
X31500D01*
G01X38833Y88710D02*
X35250D01*
X34500Y88457D01*
X34000Y87950D01*
X33833Y87317D01*
X34000Y86684D01*
X34500Y86177D01*
X35250Y85924D01*
X38833D01*
G01X33833Y82217D02*
X38833D01*
X37833Y82977D01*
G01X33833D02*
Y81457D01*
G01X34833Y78510D02*
X34250Y78130D01*
X33916Y77624D01*
X33833Y77054D01*
X33916Y76547D01*
X34333Y76040D01*
X34833Y75724D01*
X35333Y75660D01*
X35916Y75787D01*
X36333Y76230D01*
X36500Y76674D01*
Y77244D01*
G01Y76674D02*
X36750Y76294D01*
X37166Y75977D01*
X37666Y75850D01*
X38166Y75977D01*
X38583Y76294D01*
X38833Y76864D01*
X38750Y77434D01*
X38416Y78004D01*
G01X34833Y73410D02*
X34250Y73030D01*
X33916Y72524D01*
X33833Y71954D01*
X33916Y71447D01*
X34333Y70940D01*
X34833Y70624D01*
X35333Y70560D01*
X35916Y70687D01*
X36333Y71130D01*
X36500Y71574D01*
Y72144D01*
G01Y71574D02*
X36750Y71194D01*
X37166Y70877D01*
X37666Y70750D01*
X38166Y70877D01*
X38583Y71194D01*
X38833Y71764D01*
X38750Y72334D01*
X38416Y72904D01*
G01X53500Y188577D02*
Y116500D01*
X31500D01*
Y120039D01*
G01Y122361D02*
Y130039D01*
G01Y132361D02*
Y140039D01*
G01Y142361D02*
Y200039D01*
G01X28593Y209583D02*
X28213Y209833D01*
X27770Y210000D01*
X27263D01*
X26693Y209750D01*
X26250Y209333D01*
X25933Y208833D01*
X25680Y208000D01*
X25617Y207250D01*
X25743Y206500D01*
X25933Y206000D01*
X26313Y205500D01*
X26757Y205167D01*
X27200Y205000D01*
X27643D01*
X28087Y205167D01*
X28467Y205417D01*
X28783Y205750D01*
G01X30907Y205000D02*
Y210000D01*
X32173D01*
X32680Y209750D01*
X33060Y209417D01*
X33377Y208917D01*
X33630Y208333D01*
X33693Y207500D01*
X33630Y206667D01*
X33377Y206083D01*
X33060Y205583D01*
X32680Y205250D01*
X32173Y205000D01*
X30907D01*
G01X38160D02*
Y210000D01*
X35817Y206417D01*
X38983D01*
G01X42500Y210000D02*
X41993Y209833D01*
X41613Y209417D01*
X41360Y208917D01*
X41170Y208250D01*
X41107Y207500D01*
X41170Y206750D01*
X41360Y206083D01*
X41613Y205583D01*
X41993Y205167D01*
X42500Y205000D01*
X43007Y205167D01*
X43387Y205583D01*
X43640Y206083D01*
X43830Y206750D01*
X43893Y207500D01*
X43830Y208250D01*
X43640Y208917D01*
X43387Y209417D01*
X43007Y209833D01*
X42500Y210000D01*
G01X46397Y209167D02*
X46777Y209667D01*
X47220Y209917D01*
X47727Y210000D01*
X48360Y209833D01*
X48803Y209417D01*
X48930Y208917D01*
X48867Y208417D01*
X48613Y208000D01*
X47347Y207167D01*
X46777Y206583D01*
X46397Y205750D01*
X46270Y205000D01*
X48930D01*
G01X52573D02*
X52700Y206083D01*
X52890Y207000D01*
X53143Y207833D01*
X53460Y208750D01*
X53967Y210000D01*
X51433D01*
G01X58307Y207667D02*
X58560Y207917D01*
X58750Y208333D01*
X58877Y208917D01*
X58750Y209417D01*
X58497Y209750D01*
X58053Y210000D01*
X56343D01*
Y205000D01*
X58433D01*
X58877Y205333D01*
X59130Y205833D01*
X59257Y206417D01*
X59130Y207000D01*
X58750Y207500D01*
X58307Y207667D01*
X56343D01*
G01X33457Y197500D02*
Y193917D01*
X33710Y193167D01*
X34217Y192667D01*
X34850Y192500D01*
X35483Y192667D01*
X35990Y193167D01*
X36243Y193917D01*
Y197500D01*
G01X39950Y192500D02*
Y197500D01*
X39190Y196500D01*
G01Y192500D02*
X40710D01*
G01X45810D02*
Y197500D01*
X43467Y193917D01*
X46633D01*
G01X50910Y192500D02*
Y197500D01*
X48567Y193917D01*
X51733D01*
G01X31500Y204000D02*
X37500D01*
X40000Y201250D01*
X40002D01*
G01X31500Y202361D02*
Y204000D01*
G01Y257500D02*
X37500D01*
X40000Y255000D01*
X45000D01*
X47500Y257500D01*
X53500D01*
Y217500D01*
X31500D01*
Y220039D01*
G01X39950Y247500D02*
Y249750D01*
X38683Y252500D01*
G01X41217D02*
X39950Y249750D01*
G01X45050Y247500D02*
Y252500D01*
X44290Y251500D01*
G01Y247500D02*
X45810D01*
G01X31500Y222361D02*
Y257500D01*
G01X47500Y344253D02*
X42125D01*
X41000Y343880D01*
X40250Y343133D01*
X40000Y342200D01*
X40250Y341267D01*
X41000Y340520D01*
X42125Y340147D01*
X47500D01*
G01X40000Y334700D02*
X47500D01*
X46000Y335820D01*
G01X40000D02*
Y333580D01*
G01Y326080D02*
X47500D01*
X42125Y329533D01*
Y324867D01*
G01X41125Y321753D02*
X40500Y321193D01*
X40125Y320540D01*
X40000Y319700D01*
X40250Y318860D01*
X40750Y318207D01*
X41625Y317740D01*
X42625Y317647D01*
X43625Y317833D01*
X44250Y318300D01*
X44750Y318953D01*
X44875Y319607D01*
X44750Y320260D01*
X44250Y321100D01*
X47500Y320820D01*
Y318300D01*
G01X30192Y370550D02*
G03X40000Y362500I9808J1950D01*
G01X38400Y382500D02*
Y387500D01*
X37640Y386500D01*
G01Y382500D02*
X39160D01*
G01X43500Y387500D02*
X42993Y387333D01*
X42613Y386917D01*
X42360Y386417D01*
X42170Y385750D01*
X42107Y385000D01*
X42170Y384250D01*
X42360Y383583D01*
X42613Y383083D01*
X42993Y382667D01*
X43500Y382500D01*
X44007Y382667D01*
X44387Y383083D01*
X44640Y383583D01*
X44830Y384250D01*
X44893Y385000D01*
X44830Y385750D01*
X44640Y386417D01*
X44387Y386917D01*
X44007Y387333D01*
X43500Y387500D01*
G01X47523Y385833D02*
Y383500D01*
X47777Y382917D01*
X48157Y382583D01*
X48600Y382500D01*
X49043Y382583D01*
X49423Y382917D01*
X49677Y383500D01*
G01Y382500D02*
Y385833D01*
G01X15343Y382583D02*
X14963Y382833D01*
X14520Y383000D01*
X14013D01*
X13443Y382750D01*
X13000Y382333D01*
X12683Y381833D01*
X12430Y381000D01*
X12367Y380250D01*
X12493Y379500D01*
X12683Y379000D01*
X13063Y378500D01*
X13507Y378167D01*
X13950Y378000D01*
X14393D01*
X14837Y378167D01*
X15217Y378417D01*
X15533Y378750D01*
G01X17657D02*
X18037Y378333D01*
X18480Y378083D01*
X19050Y378000D01*
X19620Y378167D01*
X20063Y378500D01*
X20380Y379083D01*
X20443Y379750D01*
X20317Y380417D01*
X20000Y380833D01*
X19557Y381167D01*
X19113Y381250D01*
X18670Y381167D01*
X18100Y380833D01*
X18290Y383000D01*
X20000D01*
G01X40000Y382500D02*
G03X30000Y372500I0J-10000D01*
G01D02*
G03X30047Y371531I10000J-1D01*
G01X48916Y117174D02*
X49166Y117554D01*
X49333Y117997D01*
Y118504D01*
X49083Y119074D01*
X48666Y119517D01*
X48166Y119834D01*
X47333Y120087D01*
X46583Y120150D01*
X45833Y120024D01*
X45333Y119834D01*
X44833Y119454D01*
X44500Y119010D01*
X44333Y118567D01*
Y118124D01*
X44500Y117680D01*
X44750Y117300D01*
X45083Y116984D01*
G01X44333Y114860D02*
X49333D01*
Y113594D01*
X49083Y113087D01*
X48750Y112707D01*
X48250Y112390D01*
X47666Y112137D01*
X46833Y112074D01*
X46000Y112137D01*
X45416Y112390D01*
X44916Y112707D01*
X44583Y113087D01*
X44333Y113594D01*
Y114860D01*
G01Y107607D02*
X49333D01*
X45750Y109950D01*
Y106784D01*
G01X49333Y103267D02*
X49166Y103774D01*
X48750Y104154D01*
X48250Y104407D01*
X47583Y104597D01*
X46833Y104660D01*
X46083Y104597D01*
X45416Y104407D01*
X44916Y104154D01*
X44500Y103774D01*
X44333Y103267D01*
X44500Y102760D01*
X44916Y102380D01*
X45416Y102127D01*
X46083Y101937D01*
X46833Y101874D01*
X47583Y101937D01*
X48250Y102127D01*
X48750Y102380D01*
X49166Y102760D01*
X49333Y103267D01*
G01X46416Y99370D02*
X47000Y98927D01*
X47333Y98547D01*
X47500Y98040D01*
X47333Y97597D01*
X47000Y97280D01*
X46500Y97027D01*
X45916Y96964D01*
X45416Y97027D01*
X44916Y97280D01*
X44500Y97660D01*
X44333Y98104D01*
X44500Y98610D01*
X45000Y99054D01*
X45750Y99307D01*
X46583Y99370D01*
X47666Y99244D01*
X48250Y99054D01*
X48833Y98737D01*
X49250Y98294D01*
X49333Y97850D01*
X49166Y97407D01*
X48750Y97090D01*
G01X44916Y94144D02*
X44500Y93700D01*
X44333Y93194D01*
X44500Y92687D01*
X45000Y92244D01*
X45750Y91927D01*
X46500Y91800D01*
X47416D01*
X48166Y91927D01*
X48833Y92244D01*
X49166Y92624D01*
X49333Y93067D01*
X49166Y93574D01*
X48833Y93954D01*
X48333Y94207D01*
X47666Y94334D01*
X47083Y94207D01*
X46500Y93890D01*
X46166Y93510D01*
X46083Y93067D01*
X46250Y92560D01*
X46666Y92180D01*
X47416Y91800D01*
G01X44166Y89107D02*
X49333Y86827D01*
G01X45000Y84197D02*
X44583Y83690D01*
X44333Y83120D01*
Y82614D01*
X44583Y82107D01*
X45000Y81727D01*
X45583Y81537D01*
X46166Y81664D01*
X46666Y81980D01*
X47000Y82550D01*
X47166Y83310D01*
X47500Y83754D01*
X48083Y83944D01*
X48666Y83817D01*
X49083Y83500D01*
X49333Y83057D01*
Y82614D01*
X49166Y82170D01*
X48750Y81790D01*
G01X44333Y77767D02*
X44416Y78274D01*
X44750Y78717D01*
X45250Y79097D01*
X45833Y79350D01*
X46500Y79477D01*
X47166D01*
X47833Y79350D01*
X48416Y79097D01*
X48916Y78717D01*
X49250Y78274D01*
X49333Y77767D01*
X49250Y77260D01*
X48916Y76817D01*
X48416Y76437D01*
X47833Y76184D01*
X47166Y76057D01*
X46500D01*
X45833Y76184D01*
X45250Y76437D01*
X44750Y76817D01*
X44416Y77260D01*
X44333Y77767D01*
G01X42398Y201250D02*
X45000D01*
X47500Y204000D01*
X53500D01*
Y190923D01*
G01X40000Y362500D02*
G03X50000Y372500I0J10000D01*
G01D02*
G03X40000Y382500I-10000J0D01*
G01X81500Y40039D02*
Y32361D01*
G01Y30039D02*
Y22361D01*
G01Y20039D02*
Y20000D01*
X103500D01*
Y95000D01*
X97500D01*
X95000Y92500D01*
X90000D01*
X87500Y95000D01*
X81500D01*
G01D02*
Y52361D01*
G01Y50039D02*
Y42361D01*
G01X83457Y87500D02*
Y83917D01*
X83710Y83167D01*
X84217Y82667D01*
X84850Y82500D01*
X85483Y82667D01*
X85990Y83167D01*
X86243Y83917D01*
Y87500D01*
G01X89950Y82500D02*
Y87500D01*
X89190Y86500D01*
G01Y82500D02*
X90710D01*
G01X93657Y83500D02*
X94037Y82917D01*
X94543Y82583D01*
X95113Y82500D01*
X95620Y82583D01*
X96127Y83000D01*
X96443Y83500D01*
X96507Y84000D01*
X96380Y84583D01*
X95937Y85000D01*
X95493Y85167D01*
X94923D01*
G01X95493D02*
X95873Y85417D01*
X96190Y85833D01*
X96317Y86333D01*
X96190Y86833D01*
X95873Y87250D01*
X95303Y87500D01*
X94733Y87417D01*
X94163Y87083D01*
G01X99073Y83083D02*
X99517Y82667D01*
X100023Y82500D01*
X100530Y82667D01*
X100973Y83167D01*
X101290Y83917D01*
X101417Y84667D01*
Y85583D01*
X101290Y86333D01*
X100973Y87000D01*
X100593Y87333D01*
X100150Y87500D01*
X99643Y87333D01*
X99263Y87000D01*
X99010Y86500D01*
X98883Y85833D01*
X99010Y85250D01*
X99327Y84667D01*
X99707Y84333D01*
X100150Y84250D01*
X100657Y84417D01*
X101037Y84833D01*
X101417Y85583D01*
G01X84000Y192500D02*
Y117500D01*
X106000D01*
Y144584D01*
G01X101416Y208074D02*
X101666Y208454D01*
X101833Y208897D01*
Y209404D01*
X101583Y209974D01*
X101166Y210417D01*
X100666Y210734D01*
X99833Y210987D01*
X99083Y211050D01*
X98333Y210924D01*
X97833Y210734D01*
X97333Y210354D01*
X97000Y209910D01*
X96833Y209467D01*
Y209024D01*
X97000Y208580D01*
X97250Y208200D01*
X97583Y207884D01*
G01X96833Y205760D02*
X101833D01*
Y204494D01*
X101583Y203987D01*
X101250Y203607D01*
X100750Y203290D01*
X100166Y203037D01*
X99333Y202974D01*
X98500Y203037D01*
X97916Y203290D01*
X97416Y203607D01*
X97083Y203987D01*
X96833Y204494D01*
Y205760D01*
G01Y198507D02*
X101833D01*
X98250Y200850D01*
Y197684D01*
G01X101833Y194167D02*
X101666Y194674D01*
X101250Y195054D01*
X100750Y195307D01*
X100083Y195497D01*
X99333Y195560D01*
X98583Y195497D01*
X97916Y195307D01*
X97416Y195054D01*
X97000Y194674D01*
X96833Y194167D01*
X97000Y193660D01*
X97416Y193280D01*
X97916Y193027D01*
X98583Y192837D01*
X99333Y192774D01*
X100083Y192837D01*
X100750Y193027D01*
X101250Y193280D01*
X101666Y193660D01*
X101833Y194167D01*
G01X96833Y189067D02*
X96916Y188624D01*
X97166Y188117D01*
X97583Y187800D01*
X98166Y187674D01*
X98750Y187800D01*
X99250Y188180D01*
X99500Y188750D01*
Y189384D01*
X99666Y189764D01*
X100083Y190080D01*
X100666Y190207D01*
X101250Y190017D01*
X101666Y189574D01*
X101833Y189067D01*
X101666Y188560D01*
X101250Y188117D01*
X100666Y187927D01*
X100083Y188054D01*
X99666Y188370D01*
X99500Y188750D01*
Y189384D01*
X99250Y189954D01*
X98750Y190334D01*
X98166Y190460D01*
X97583Y190334D01*
X97166Y190017D01*
X96916Y189510D01*
X96833Y189067D01*
G01Y183967D02*
X101833D01*
X100833Y184727D01*
G01X96833D02*
Y183207D01*
G01X99500Y178360D02*
X99750Y178107D01*
X100166Y177917D01*
X100750Y177790D01*
X101250Y177917D01*
X101583Y178170D01*
X101833Y178614D01*
Y180324D01*
X96833D01*
Y178234D01*
X97166Y177790D01*
X97666Y177537D01*
X98250Y177410D01*
X98833Y177537D01*
X99333Y177917D01*
X99500Y178360D01*
Y180324D01*
G01X94833Y187210D02*
X91250D01*
X90500Y186957D01*
X90000Y186450D01*
X89833Y185817D01*
X90000Y185184D01*
X90500Y184677D01*
X91250Y184424D01*
X94833D01*
G01X89833Y180717D02*
X94833D01*
X93833Y181477D01*
G01X89833D02*
Y179957D01*
G01X90833Y177010D02*
X90250Y176630D01*
X89916Y176124D01*
X89833Y175554D01*
X89916Y175047D01*
X90333Y174540D01*
X90833Y174224D01*
X91333Y174160D01*
X91916Y174287D01*
X92333Y174730D01*
X92500Y175174D01*
Y175744D01*
G01Y175174D02*
X92750Y174794D01*
X93166Y174477D01*
X93666Y174350D01*
X94166Y174477D01*
X94583Y174794D01*
X94833Y175364D01*
X94750Y175934D01*
X94416Y176504D01*
G01X91916Y171720D02*
X92500Y171277D01*
X92833Y170897D01*
X93000Y170390D01*
X92833Y169947D01*
X92500Y169630D01*
X92000Y169377D01*
X91416Y169314D01*
X90916Y169377D01*
X90416Y169630D01*
X90000Y170010D01*
X89833Y170454D01*
X90000Y170960D01*
X90500Y171404D01*
X91250Y171657D01*
X92083Y171720D01*
X93166Y171594D01*
X93750Y171404D01*
X94333Y171087D01*
X94750Y170644D01*
X94833Y170200D01*
X94666Y169757D01*
X94250Y169440D01*
G01X84000Y290000D02*
Y215000D01*
X106000D01*
Y290000D01*
X100000D01*
X97500Y287500D01*
X92500D01*
X90000Y290000D01*
X84000D01*
G01X106000Y145416D02*
Y192500D01*
X100000D01*
X97500Y190000D01*
X92500D01*
X92097Y190403D01*
G01X90403Y192097D02*
X90000Y192500D01*
X84000D01*
G01X94833Y284710D02*
X91250D01*
X90500Y284457D01*
X90000Y283950D01*
X89833Y283317D01*
X90000Y282684D01*
X90500Y282177D01*
X91250Y281924D01*
X94833D01*
G01X89833Y278217D02*
X94833D01*
X93833Y278977D01*
G01X89833D02*
Y277457D01*
G01Y272357D02*
X94833D01*
X91250Y274700D01*
Y271534D01*
G01X89833Y268017D02*
X94833D01*
X93833Y268777D01*
G01X89833D02*
Y267257D01*
G01X84543Y298083D02*
X84163Y298333D01*
X83720Y298500D01*
X83213D01*
X82643Y298250D01*
X82200Y297833D01*
X81883Y297333D01*
X81630Y296500D01*
X81567Y295750D01*
X81693Y295000D01*
X81883Y294500D01*
X82263Y294000D01*
X82707Y293667D01*
X83150Y293500D01*
X83593D01*
X84037Y293667D01*
X84417Y293917D01*
X84733Y294250D01*
G01X86857Y293500D02*
Y298500D01*
X88123D01*
X88630Y298250D01*
X89010Y297917D01*
X89327Y297417D01*
X89580Y296833D01*
X89643Y296000D01*
X89580Y295167D01*
X89327Y294583D01*
X89010Y294083D01*
X88630Y293750D01*
X88123Y293500D01*
X86857D01*
G01X94110D02*
Y298500D01*
X91767Y294917D01*
X94933D01*
G01X98450Y298500D02*
X97943Y298333D01*
X97563Y297917D01*
X97310Y297417D01*
X97120Y296750D01*
X97057Y296000D01*
X97120Y295250D01*
X97310Y294583D01*
X97563Y294083D01*
X97943Y293667D01*
X98450Y293500D01*
X98957Y293667D01*
X99337Y294083D01*
X99590Y294583D01*
X99780Y295250D01*
X99843Y296000D01*
X99780Y296750D01*
X99590Y297417D01*
X99337Y297917D01*
X98957Y298333D01*
X98450Y298500D01*
G01X103550Y293500D02*
Y298500D01*
X102790Y297500D01*
G01Y293500D02*
X104310D01*
G01X108650Y298500D02*
X108143Y298333D01*
X107763Y297917D01*
X107510Y297417D01*
X107320Y296750D01*
X107257Y296000D01*
X107320Y295250D01*
X107510Y294583D01*
X107763Y294083D01*
X108143Y293667D01*
X108650Y293500D01*
X109157Y293667D01*
X109537Y294083D01*
X109790Y294583D01*
X109980Y295250D01*
X110043Y296000D01*
X109980Y296750D01*
X109790Y297417D01*
X109537Y297917D01*
X109157Y298333D01*
X108650Y298500D01*
G01X112547Y295583D02*
X112990Y296167D01*
X113370Y296500D01*
X113877Y296667D01*
X114320Y296500D01*
X114637Y296167D01*
X114890Y295667D01*
X114953Y295083D01*
X114890Y294583D01*
X114637Y294083D01*
X114257Y293667D01*
X113813Y293500D01*
X113307Y293667D01*
X112863Y294167D01*
X112610Y294917D01*
X112547Y295750D01*
X112673Y296833D01*
X112863Y297417D01*
X113180Y298000D01*
X113623Y298417D01*
X114067Y298500D01*
X114510Y298333D01*
X114827Y297917D01*
G01X119357Y296167D02*
X119610Y296417D01*
X119800Y296833D01*
X119927Y297417D01*
X119800Y297917D01*
X119547Y298250D01*
X119103Y298500D01*
X117393D01*
Y293500D01*
X119483D01*
X119927Y293833D01*
X120180Y294333D01*
X120307Y294917D01*
X120180Y295500D01*
X119800Y296000D01*
X119357Y296167D01*
X117393D01*
G01X84000Y375000D02*
Y300000D01*
X106000D01*
Y375000D01*
X100000D01*
X97500Y372500D01*
X92500D01*
X90000Y375000D01*
X84000D01*
G01X97916Y393124D02*
X98166Y393504D01*
X98333Y393947D01*
Y394454D01*
X98083Y395024D01*
X97666Y395467D01*
X97166Y395784D01*
X96333Y396037D01*
X95583Y396100D01*
X94833Y395974D01*
X94333Y395784D01*
X93833Y395404D01*
X93500Y394960D01*
X93333Y394517D01*
Y394074D01*
X93500Y393630D01*
X93750Y393250D01*
X94083Y392934D01*
G01X93333Y390810D02*
X98333D01*
Y389544D01*
X98083Y389037D01*
X97750Y388657D01*
X97250Y388340D01*
X96666Y388087D01*
X95833Y388024D01*
X95000Y388087D01*
X94416Y388340D01*
X93916Y388657D01*
X93583Y389037D01*
X93333Y389544D01*
Y390810D01*
G01Y383557D02*
X98333D01*
X94750Y385900D01*
Y382734D01*
G01X98333Y379217D02*
X98166Y379724D01*
X97750Y380104D01*
X97250Y380357D01*
X96583Y380547D01*
X95833Y380610D01*
X95083Y380547D01*
X94416Y380357D01*
X93916Y380104D01*
X93500Y379724D01*
X93333Y379217D01*
X93500Y378710D01*
X93916Y378330D01*
X94416Y378077D01*
X95083Y377887D01*
X95833Y377824D01*
X96583Y377887D01*
X97250Y378077D01*
X97750Y378330D01*
X98166Y378710D01*
X98333Y379217D01*
G01X95416Y375320D02*
X96000Y374877D01*
X96333Y374497D01*
X96500Y373990D01*
X96333Y373547D01*
X96000Y373230D01*
X95500Y372977D01*
X94916Y372914D01*
X94416Y372977D01*
X93916Y373230D01*
X93500Y373610D01*
X93333Y374054D01*
X93500Y374560D01*
X94000Y375004D01*
X94750Y375257D01*
X95583Y375320D01*
X96666Y375194D01*
X97250Y375004D01*
X97833Y374687D01*
X98250Y374244D01*
X98333Y373800D01*
X98166Y373357D01*
X97750Y373040D01*
G01X95416Y370220D02*
X96000Y369777D01*
X96333Y369397D01*
X96500Y368890D01*
X96333Y368447D01*
X96000Y368130D01*
X95500Y367877D01*
X94916Y367814D01*
X94416Y367877D01*
X93916Y368130D01*
X93500Y368510D01*
X93333Y368954D01*
X93500Y369460D01*
X94000Y369904D01*
X94750Y370157D01*
X95583Y370220D01*
X96666Y370094D01*
X97250Y369904D01*
X97833Y369587D01*
X98250Y369144D01*
X98333Y368700D01*
X98166Y368257D01*
X97750Y367940D01*
G01X96000Y363410D02*
X96250Y363157D01*
X96666Y362967D01*
X97250Y362840D01*
X97750Y362967D01*
X98083Y363220D01*
X98333Y363664D01*
Y365374D01*
X93333D01*
Y363284D01*
X93666Y362840D01*
X94166Y362587D01*
X94750Y362460D01*
X95333Y362587D01*
X95833Y362967D01*
X96000Y363410D01*
Y365374D01*
G01X93333Y360464D02*
X98333D01*
X94166Y358817D01*
X98333Y357170D01*
X93333D01*
G01X91333Y366210D02*
X87750D01*
X87000Y365957D01*
X86500Y365450D01*
X86333Y364817D01*
X86500Y364184D01*
X87000Y363677D01*
X87750Y363424D01*
X91333D01*
G01X86333Y359717D02*
X91333D01*
X90333Y360477D01*
G01X86333D02*
Y358957D01*
G01Y353857D02*
X91333D01*
X87750Y356200D01*
Y353034D01*
G01X87333Y350910D02*
X86750Y350530D01*
X86416Y350024D01*
X86333Y349454D01*
X86416Y348947D01*
X86833Y348440D01*
X87333Y348124D01*
X87833Y348060D01*
X88416Y348187D01*
X88833Y348630D01*
X89000Y349074D01*
Y349644D01*
G01Y349074D02*
X89250Y348694D01*
X89666Y348377D01*
X90166Y348250D01*
X90666Y348377D01*
X91083Y348694D01*
X91333Y349264D01*
X91250Y349834D01*
X90916Y350404D01*
G01X129000Y95000D02*
Y20000D01*
X151000D01*
Y40017D01*
G01Y72383D02*
Y95000D01*
X145000D01*
X142500Y92500D01*
X137500D01*
X135000Y95000D01*
X129000D01*
G01X126993Y298083D02*
X126613Y298333D01*
X126170Y298500D01*
X125663D01*
X125093Y298250D01*
X124650Y297833D01*
X124333Y297333D01*
X124080Y296500D01*
X124017Y295750D01*
X124143Y295000D01*
X124333Y294500D01*
X124713Y294000D01*
X125157Y293667D01*
X125600Y293500D01*
X126043D01*
X126487Y293667D01*
X126867Y293917D01*
X127183Y294250D01*
G01X129307Y293500D02*
Y298500D01*
X130573D01*
X131080Y298250D01*
X131460Y297917D01*
X131777Y297417D01*
X132030Y296833D01*
X132093Y296000D01*
X132030Y295167D01*
X131777Y294583D01*
X131460Y294083D01*
X131080Y293750D01*
X130573Y293500D01*
X129307D01*
G01X136560D02*
Y298500D01*
X134217Y294917D01*
X137383D01*
G01X140900Y298500D02*
X140393Y298333D01*
X140013Y297917D01*
X139760Y297417D01*
X139570Y296750D01*
X139507Y296000D01*
X139570Y295250D01*
X139760Y294583D01*
X140013Y294083D01*
X140393Y293667D01*
X140900Y293500D01*
X141407Y293667D01*
X141787Y294083D01*
X142040Y294583D01*
X142230Y295250D01*
X142293Y296000D01*
X142230Y296750D01*
X142040Y297417D01*
X141787Y297917D01*
X141407Y298333D01*
X140900Y298500D01*
G01X144797Y295583D02*
X145240Y296167D01*
X145620Y296500D01*
X146127Y296667D01*
X146570Y296500D01*
X146887Y296167D01*
X147140Y295667D01*
X147203Y295083D01*
X147140Y294583D01*
X146887Y294083D01*
X146507Y293667D01*
X146063Y293500D01*
X145557Y293667D01*
X145113Y294167D01*
X144860Y294917D01*
X144797Y295750D01*
X144923Y296833D01*
X145113Y297417D01*
X145430Y298000D01*
X145873Y298417D01*
X146317Y298500D01*
X146760Y298333D01*
X147077Y297917D01*
G01X150023Y294083D02*
X150467Y293667D01*
X150973Y293500D01*
X151480Y293667D01*
X151923Y294167D01*
X152240Y294917D01*
X152367Y295667D01*
Y296583D01*
X152240Y297333D01*
X151923Y298000D01*
X151543Y298333D01*
X151100Y298500D01*
X150593Y298333D01*
X150213Y298000D01*
X149960Y297500D01*
X149833Y296833D01*
X149960Y296250D01*
X150277Y295667D01*
X150657Y295333D01*
X151100Y295250D01*
X151607Y295417D01*
X151987Y295833D01*
X152367Y296583D01*
G01X155060Y293333D02*
X157340Y298500D01*
G01X159970Y294167D02*
X160477Y293750D01*
X161047Y293500D01*
X161553D01*
X162060Y293750D01*
X162440Y294167D01*
X162630Y294750D01*
X162503Y295333D01*
X162187Y295833D01*
X161617Y296167D01*
X160857Y296333D01*
X160413Y296667D01*
X160223Y297250D01*
X160350Y297833D01*
X160667Y298250D01*
X161110Y298500D01*
X161553D01*
X161997Y298333D01*
X162377Y297917D01*
G01X166400Y293500D02*
X165893Y293583D01*
X165450Y293917D01*
X165070Y294417D01*
X164817Y295000D01*
X164690Y295667D01*
Y296333D01*
X164817Y297000D01*
X165070Y297583D01*
X165450Y298083D01*
X165893Y298417D01*
X166400Y298500D01*
X166907Y298417D01*
X167350Y298083D01*
X167730Y297583D01*
X167983Y297000D01*
X168110Y296333D01*
Y295667D01*
X167983Y295000D01*
X167730Y294417D01*
X167350Y293917D01*
X166907Y293583D01*
X166400Y293500D01*
G01X151000Y42383D02*
Y50017D01*
G01Y52383D02*
Y70017D01*
G01X139416Y121674D02*
X139666Y122054D01*
X139833Y122497D01*
Y123004D01*
X139583Y123574D01*
X139166Y124017D01*
X138666Y124334D01*
X137833Y124587D01*
X137083Y124650D01*
X136333Y124524D01*
X135833Y124334D01*
X135333Y123954D01*
X135000Y123510D01*
X134833Y123067D01*
Y122624D01*
X135000Y122180D01*
X135250Y121800D01*
X135583Y121484D01*
G01X134833Y119360D02*
X139833D01*
Y118094D01*
X139583Y117587D01*
X139250Y117207D01*
X138750Y116890D01*
X138166Y116637D01*
X137333Y116574D01*
X136500Y116637D01*
X135916Y116890D01*
X135416Y117207D01*
X135083Y117587D01*
X134833Y118094D01*
Y119360D01*
G01Y112107D02*
X139833D01*
X136250Y114450D01*
Y111284D01*
G01X139833Y107767D02*
X139666Y108274D01*
X139250Y108654D01*
X138750Y108907D01*
X138083Y109097D01*
X137333Y109160D01*
X136583Y109097D01*
X135916Y108907D01*
X135416Y108654D01*
X135000Y108274D01*
X134833Y107767D01*
X135000Y107260D01*
X135416Y106880D01*
X135916Y106627D01*
X136583Y106437D01*
X137333Y106374D01*
X138083Y106437D01*
X138750Y106627D01*
X139250Y106880D01*
X139666Y107260D01*
X139833Y107767D01*
G01X136916Y103870D02*
X137500Y103427D01*
X137833Y103047D01*
X138000Y102540D01*
X137833Y102097D01*
X137500Y101780D01*
X137000Y101527D01*
X136416Y101464D01*
X135916Y101527D01*
X135416Y101780D01*
X135000Y102160D01*
X134833Y102604D01*
X135000Y103110D01*
X135500Y103554D01*
X136250Y103807D01*
X137083Y103870D01*
X138166Y103744D01*
X138750Y103554D01*
X139333Y103237D01*
X139750Y102794D01*
X139833Y102350D01*
X139666Y101907D01*
X139250Y101590D01*
G01X135416Y98644D02*
X135000Y98200D01*
X134833Y97694D01*
X135000Y97187D01*
X135500Y96744D01*
X136250Y96427D01*
X137000Y96300D01*
X137916D01*
X138666Y96427D01*
X139333Y96744D01*
X139666Y97124D01*
X139833Y97567D01*
X139666Y98074D01*
X139333Y98454D01*
X138833Y98707D01*
X138166Y98834D01*
X137583Y98707D01*
X137000Y98390D01*
X136666Y98010D01*
X136583Y97567D01*
X136750Y97060D01*
X137166Y96680D01*
X137916Y96300D01*
G01X134666Y93607D02*
X139833Y91327D01*
G01X135500Y88697D02*
X135083Y88190D01*
X134833Y87620D01*
Y87114D01*
X135083Y86607D01*
X135500Y86227D01*
X136083Y86037D01*
X136666Y86164D01*
X137166Y86480D01*
X137500Y87050D01*
X137666Y87810D01*
X138000Y88254D01*
X138583Y88444D01*
X139166Y88317D01*
X139583Y88000D01*
X139833Y87557D01*
Y87114D01*
X139666Y86670D01*
X139250Y86290D01*
G01X134833Y82267D02*
X134916Y82774D01*
X135250Y83217D01*
X135750Y83597D01*
X136333Y83850D01*
X137000Y83977D01*
X137666D01*
X138333Y83850D01*
X138916Y83597D01*
X139416Y83217D01*
X139750Y82774D01*
X139833Y82267D01*
X139750Y81760D01*
X139416Y81317D01*
X138916Y80937D01*
X138333Y80684D01*
X137666Y80557D01*
X137000D01*
X136333Y80684D01*
X135750Y80937D01*
X135250Y81317D01*
X134916Y81760D01*
X134833Y82267D01*
G01X146833Y89710D02*
X143250D01*
X142500Y89457D01*
X142000Y88950D01*
X141833Y88317D01*
X142000Y87684D01*
X142500Y87177D01*
X143250Y86924D01*
X146833D01*
G01X141833Y83217D02*
X146833D01*
X145833Y83977D01*
G01X141833D02*
Y82457D01*
G01Y77357D02*
X146833D01*
X143250Y79700D01*
Y76534D01*
G01X143916Y74220D02*
X144500Y73777D01*
X144833Y73397D01*
X145000Y72890D01*
X144833Y72447D01*
X144500Y72130D01*
X144000Y71877D01*
X143416Y71814D01*
X142916Y71877D01*
X142416Y72130D01*
X142000Y72510D01*
X141833Y72954D01*
X142000Y73460D01*
X142500Y73904D01*
X143250Y74157D01*
X144083Y74220D01*
X145166Y74094D01*
X145750Y73904D01*
X146333Y73587D01*
X146750Y73144D01*
X146833Y72700D01*
X146666Y72257D01*
X146250Y71940D01*
G01X131500Y190000D02*
Y122361D01*
G01Y120039D02*
Y115000D01*
X153500D01*
Y190000D01*
X147500D01*
X145000Y187500D01*
X140000D01*
X137500Y190000D01*
X131500D01*
G01X145416Y205574D02*
X145666Y205954D01*
X145833Y206397D01*
Y206904D01*
X145583Y207474D01*
X145166Y207917D01*
X144666Y208234D01*
X143833Y208487D01*
X143083Y208550D01*
X142333Y208424D01*
X141833Y208234D01*
X141333Y207854D01*
X141000Y207410D01*
X140833Y206967D01*
Y206524D01*
X141000Y206080D01*
X141250Y205700D01*
X141583Y205384D01*
G01X140833Y203260D02*
X145833D01*
Y201994D01*
X145583Y201487D01*
X145250Y201107D01*
X144750Y200790D01*
X144166Y200537D01*
X143333Y200474D01*
X142500Y200537D01*
X141916Y200790D01*
X141416Y201107D01*
X141083Y201487D01*
X140833Y201994D01*
Y203260D01*
G01Y196007D02*
X145833D01*
X142250Y198350D01*
Y195184D01*
G01X145833Y191667D02*
X145666Y192174D01*
X145250Y192554D01*
X144750Y192807D01*
X144083Y192997D01*
X143333Y193060D01*
X142583Y192997D01*
X141916Y192807D01*
X141416Y192554D01*
X141000Y192174D01*
X140833Y191667D01*
X141000Y191160D01*
X141416Y190780D01*
X141916Y190527D01*
X142583Y190337D01*
X143333Y190274D01*
X144083Y190337D01*
X144750Y190527D01*
X145250Y190780D01*
X145666Y191160D01*
X145833Y191667D01*
G01X140833Y186694D02*
X141916Y186567D01*
X142833Y186377D01*
X143666Y186124D01*
X144583Y185807D01*
X145833Y185300D01*
Y187834D01*
G01X140833Y181467D02*
X145833D01*
X144833Y182227D01*
G01X140833D02*
Y180707D01*
G01X143500Y175860D02*
X143750Y175607D01*
X144166Y175417D01*
X144750Y175290D01*
X145250Y175417D01*
X145583Y175670D01*
X145833Y176114D01*
Y177824D01*
X140833D01*
Y175734D01*
X141166Y175290D01*
X141666Y175037D01*
X142250Y174910D01*
X142833Y175037D01*
X143333Y175417D01*
X143500Y175860D01*
Y177824D01*
G01X142333Y184710D02*
X138750D01*
X138000Y184457D01*
X137500Y183950D01*
X137333Y183317D01*
X137500Y182684D01*
X138000Y182177D01*
X138750Y181924D01*
X142333D01*
G01X137333Y178217D02*
X142333D01*
X141333Y178977D01*
G01X137333D02*
Y177457D01*
G01X138333Y174510D02*
X137750Y174130D01*
X137416Y173624D01*
X137333Y173054D01*
X137416Y172547D01*
X137833Y172040D01*
X138333Y171724D01*
X138833Y171660D01*
X139416Y171787D01*
X139833Y172230D01*
X140000Y172674D01*
Y173244D01*
G01Y172674D02*
X140250Y172294D01*
X140666Y171977D01*
X141166Y171850D01*
X141666Y171977D01*
X142083Y172294D01*
X142333Y172864D01*
X142250Y173434D01*
X141916Y174004D01*
G01X137333Y167257D02*
X142333D01*
X138750Y169600D01*
Y166434D01*
G01X131500Y220039D02*
Y215000D01*
X153500D01*
Y290000D01*
X151192D01*
G01X131500Y263564D02*
Y222361D01*
G01X133457Y280000D02*
Y276417D01*
X133710Y275667D01*
X134217Y275167D01*
X134850Y275000D01*
X135483Y275167D01*
X135990Y275667D01*
X136243Y276417D01*
Y280000D01*
G01X139950Y275000D02*
Y280000D01*
X139190Y279000D01*
G01Y275000D02*
X140710D01*
G01X143657Y276000D02*
X144037Y275417D01*
X144543Y275083D01*
X145113Y275000D01*
X145620Y275083D01*
X146127Y275500D01*
X146443Y276000D01*
X146507Y276500D01*
X146380Y277083D01*
X145937Y277500D01*
X145493Y277667D01*
X144923D01*
G01X145493D02*
X145873Y277917D01*
X146190Y278333D01*
X146317Y278833D01*
X146190Y279333D01*
X145873Y279750D01*
X145303Y280000D01*
X144733Y279917D01*
X144163Y279583D01*
G01X148947Y279167D02*
X149327Y279667D01*
X149770Y279917D01*
X150277Y280000D01*
X150910Y279833D01*
X151353Y279417D01*
X151480Y278917D01*
X151417Y278417D01*
X151163Y278000D01*
X149897Y277167D01*
X149327Y276583D01*
X148947Y275750D01*
X148820Y275000D01*
X151480D01*
G01X131500Y290000D02*
Y265436D01*
G01X148812Y290000D02*
X147500D01*
X145000Y287500D01*
X140000D01*
X137500Y290000D01*
X131500D01*
G01Y330039D02*
Y297500D01*
X153500D01*
Y372500D01*
X147500D01*
X145000Y370000D01*
X140000D01*
X137500Y372500D01*
X131500D01*
G01Y356702D02*
Y332361D01*
G01X148916Y388074D02*
X149166Y388454D01*
X149333Y388897D01*
Y389404D01*
X149083Y389974D01*
X148666Y390417D01*
X148166Y390734D01*
X147333Y390987D01*
X146583Y391050D01*
X145833Y390924D01*
X145333Y390734D01*
X144833Y390354D01*
X144500Y389910D01*
X144333Y389467D01*
Y389024D01*
X144500Y388580D01*
X144750Y388200D01*
X145083Y387884D01*
G01X144333Y385760D02*
X149333D01*
Y384494D01*
X149083Y383987D01*
X148750Y383607D01*
X148250Y383290D01*
X147666Y383037D01*
X146833Y382974D01*
X146000Y383037D01*
X145416Y383290D01*
X144916Y383607D01*
X144583Y383987D01*
X144333Y384494D01*
Y385760D01*
G01Y378507D02*
X149333D01*
X145750Y380850D01*
Y377684D01*
G01X149333Y374167D02*
X149166Y374674D01*
X148750Y375054D01*
X148250Y375307D01*
X147583Y375497D01*
X146833Y375560D01*
X146083Y375497D01*
X145416Y375307D01*
X144916Y375054D01*
X144500Y374674D01*
X144333Y374167D01*
X144500Y373660D01*
X144916Y373280D01*
X145416Y373027D01*
X146083Y372837D01*
X146833Y372774D01*
X147583Y372837D01*
X148250Y373027D01*
X148750Y373280D01*
X149166Y373660D01*
X149333Y374167D01*
G01X144333Y369067D02*
X144416Y368624D01*
X144666Y368117D01*
X145083Y367800D01*
X145666Y367674D01*
X146250Y367800D01*
X146750Y368180D01*
X147000Y368750D01*
Y369384D01*
X147166Y369764D01*
X147583Y370080D01*
X148166Y370207D01*
X148750Y370017D01*
X149166Y369574D01*
X149333Y369067D01*
X149166Y368560D01*
X148750Y368117D01*
X148166Y367927D01*
X147583Y368054D01*
X147166Y368370D01*
X147000Y368750D01*
Y369384D01*
X146750Y369954D01*
X146250Y370334D01*
X145666Y370460D01*
X145083Y370334D01*
X144666Y370017D01*
X144416Y369510D01*
X144333Y369067D01*
G01Y363967D02*
X149333D01*
X148333Y364727D01*
G01X144333D02*
Y363207D01*
G01X147000Y358360D02*
X147250Y358107D01*
X147666Y357917D01*
X148250Y357790D01*
X148750Y357917D01*
X149083Y358170D01*
X149333Y358614D01*
Y360324D01*
X144333D01*
Y358234D01*
X144666Y357790D01*
X145166Y357537D01*
X145750Y357410D01*
X146333Y357537D01*
X146833Y357917D01*
X147000Y358360D01*
Y360324D01*
G01X145833Y374210D02*
X142250D01*
X141500Y373957D01*
X141000Y373450D01*
X140833Y372817D01*
X141000Y372184D01*
X141500Y371677D01*
X142250Y371424D01*
X145833D01*
G01X140833Y367717D02*
X145833D01*
X144833Y368477D01*
G01X140833D02*
Y366957D01*
G01X141833Y364010D02*
X141250Y363630D01*
X140916Y363124D01*
X140833Y362554D01*
X140916Y362047D01*
X141333Y361540D01*
X141833Y361224D01*
X142333Y361160D01*
X142916Y361287D01*
X143333Y361730D01*
X143500Y362174D01*
Y362744D01*
G01Y362174D02*
X143750Y361794D01*
X144166Y361477D01*
X144666Y361350D01*
X145166Y361477D01*
X145583Y361794D01*
X145833Y362364D01*
X145750Y362934D01*
X145416Y363504D01*
G01X140833Y357644D02*
X141916Y357517D01*
X142833Y357327D01*
X143666Y357074D01*
X144583Y356757D01*
X145833Y356250D01*
Y358784D01*
G01X131500Y372500D02*
Y359048D01*
G01X196543Y30000D02*
Y33583D01*
X196290Y34333D01*
X195783Y34833D01*
X195150Y35000D01*
X194517Y34833D01*
X194010Y34333D01*
X193757Y33583D01*
Y30000D01*
G01X190050Y35000D02*
Y30000D01*
X190810Y31000D01*
G01Y35000D02*
X189290D01*
G01X184190D02*
Y30000D01*
X186533Y33583D01*
X183367D01*
G01X179850Y30000D02*
X180357Y30167D01*
X180737Y30583D01*
X180990Y31083D01*
X181180Y31750D01*
X181243Y32500D01*
X181180Y33250D01*
X180990Y33917D01*
X180737Y34417D01*
X180357Y34833D01*
X179850Y35000D01*
X179343Y34833D01*
X178963Y34417D01*
X178710Y33917D01*
X178520Y33250D01*
X178457Y32500D01*
X178520Y31750D01*
X178710Y31083D01*
X178963Y30583D01*
X179343Y30167D01*
X179850Y30000D01*
G01X203907Y12917D02*
X204287Y12667D01*
X204730Y12500D01*
X205237D01*
X205807Y12750D01*
X206250Y13167D01*
X206567Y13667D01*
X206820Y14500D01*
X206883Y15250D01*
X206757Y16000D01*
X206567Y16500D01*
X206187Y17000D01*
X205743Y17333D01*
X205300Y17500D01*
X204857D01*
X204413Y17333D01*
X204033Y17083D01*
X203717Y16750D01*
G01X201593Y17500D02*
Y12500D01*
X200327D01*
X199820Y12750D01*
X199440Y13083D01*
X199123Y13583D01*
X198870Y14167D01*
X198807Y15000D01*
X198870Y15833D01*
X199123Y16417D01*
X199440Y16917D01*
X199820Y17250D01*
X200327Y17500D01*
X201593D01*
G01X194340D02*
Y12500D01*
X196683Y16083D01*
X193517D01*
G01X191393Y16750D02*
X191013Y17167D01*
X190570Y17417D01*
X190000Y17500D01*
X189430Y17333D01*
X188987Y17000D01*
X188670Y16417D01*
X188607Y15750D01*
X188733Y15083D01*
X189050Y14667D01*
X189493Y14333D01*
X189937Y14250D01*
X190380Y14333D01*
X190950Y14667D01*
X190760Y12500D01*
X189050D01*
G01X186103Y13333D02*
X185723Y12833D01*
X185280Y12583D01*
X184773Y12500D01*
X184140Y12667D01*
X183697Y13083D01*
X183570Y13583D01*
X183633Y14083D01*
X183887Y14500D01*
X185153Y15333D01*
X185723Y15917D01*
X186103Y16750D01*
X186230Y17500D01*
X183570D01*
G01X179800Y12500D02*
X180307Y12667D01*
X180687Y13083D01*
X180940Y13583D01*
X181130Y14250D01*
X181193Y15000D01*
X181130Y15750D01*
X180940Y16417D01*
X180687Y16917D01*
X180307Y17333D01*
X179800Y17500D01*
X179293Y17333D01*
X178913Y16917D01*
X178660Y16417D01*
X178470Y15750D01*
X178407Y15000D01*
X178470Y14250D01*
X178660Y13583D01*
X178913Y13083D01*
X179293Y12667D01*
X179800Y12500D01*
G01X174193Y14833D02*
X173940Y14583D01*
X173750Y14167D01*
X173623Y13583D01*
X173750Y13083D01*
X174003Y12750D01*
X174447Y12500D01*
X176157D01*
Y17500D01*
X174067D01*
X173623Y17167D01*
X173370Y16667D01*
X173243Y16083D01*
X173370Y15500D01*
X173750Y15000D01*
X174193Y14833D01*
X176157D01*
G01X198500Y18500D02*
X192500D01*
X190000Y21250D01*
X185000D01*
X182500Y18500D01*
X176500D01*
Y106000D01*
X198500D01*
Y18500D01*
G01X176500Y190000D02*
Y115000D01*
X198500D01*
Y190000D01*
X192500D01*
X190000Y187500D01*
X185000D01*
X182500Y190000D01*
X176500D01*
G01X187333Y184710D02*
X183750D01*
X183000Y184457D01*
X182500Y183950D01*
X182333Y183317D01*
X182500Y182684D01*
X183000Y182177D01*
X183750Y181924D01*
X187333D01*
G01X182333Y178217D02*
X187333D01*
X186333Y178977D01*
G01X182333D02*
Y177457D01*
G01X183333Y174510D02*
X182750Y174130D01*
X182416Y173624D01*
X182333Y173054D01*
X182416Y172547D01*
X182833Y172040D01*
X183333Y171724D01*
X183833Y171660D01*
X184416Y171787D01*
X184833Y172230D01*
X185000Y172674D01*
Y173244D01*
G01Y172674D02*
X185250Y172294D01*
X185666Y171977D01*
X186166Y171850D01*
X186666Y171977D01*
X187083Y172294D01*
X187333Y172864D01*
X187250Y173434D01*
X186916Y174004D01*
G01X182333Y168017D02*
X182416Y167574D01*
X182666Y167067D01*
X183083Y166750D01*
X183666Y166624D01*
X184250Y166750D01*
X184750Y167130D01*
X185000Y167700D01*
Y168334D01*
X185166Y168714D01*
X185583Y169030D01*
X186166Y169157D01*
X186750Y168967D01*
X187166Y168524D01*
X187333Y168017D01*
X187166Y167510D01*
X186750Y167067D01*
X186166Y166877D01*
X185583Y167004D01*
X185166Y167320D01*
X185000Y167700D01*
Y168334D01*
X184750Y168904D01*
X184250Y169284D01*
X183666Y169410D01*
X183083Y169284D01*
X182666Y168967D01*
X182416Y168460D01*
X182333Y168017D01*
G01X177093Y198083D02*
X176713Y198333D01*
X176270Y198500D01*
X175763D01*
X175193Y198250D01*
X174750Y197833D01*
X174433Y197333D01*
X174180Y196500D01*
X174117Y195750D01*
X174243Y195000D01*
X174433Y194500D01*
X174813Y194000D01*
X175257Y193667D01*
X175700Y193500D01*
X176143D01*
X176587Y193667D01*
X176967Y193917D01*
X177283Y194250D01*
G01X179407Y193500D02*
Y198500D01*
X180673D01*
X181180Y198250D01*
X181560Y197917D01*
X181877Y197417D01*
X182130Y196833D01*
X182193Y196000D01*
X182130Y195167D01*
X181877Y194583D01*
X181560Y194083D01*
X181180Y193750D01*
X180673Y193500D01*
X179407D01*
G01X186660D02*
Y198500D01*
X184317Y194917D01*
X187483D01*
G01X191000Y198500D02*
X190493Y198333D01*
X190113Y197917D01*
X189860Y197417D01*
X189670Y196750D01*
X189607Y196000D01*
X189670Y195250D01*
X189860Y194583D01*
X190113Y194083D01*
X190493Y193667D01*
X191000Y193500D01*
X191507Y193667D01*
X191887Y194083D01*
X192140Y194583D01*
X192330Y195250D01*
X192393Y196000D01*
X192330Y196750D01*
X192140Y197417D01*
X191887Y197917D01*
X191507Y198333D01*
X191000Y198500D01*
G01X196100Y193500D02*
X196543Y193583D01*
X197050Y193833D01*
X197367Y194250D01*
X197493Y194833D01*
X197367Y195417D01*
X196987Y195917D01*
X196417Y196167D01*
X195783D01*
X195403Y196333D01*
X195087Y196750D01*
X194960Y197333D01*
X195150Y197917D01*
X195593Y198333D01*
X196100Y198500D01*
X196607Y198333D01*
X197050Y197917D01*
X197240Y197333D01*
X197113Y196750D01*
X196797Y196333D01*
X196417Y196167D01*
X195783D01*
X195213Y195917D01*
X194833Y195417D01*
X194707Y194833D01*
X194833Y194250D01*
X195150Y193833D01*
X195657Y193583D01*
X196100Y193500D01*
G01X201200D02*
Y198500D01*
X200440Y197500D01*
G01Y193500D02*
X201960D01*
G01X206807Y196167D02*
X207060Y196417D01*
X207250Y196833D01*
X207377Y197417D01*
X207250Y197917D01*
X206997Y198250D01*
X206553Y198500D01*
X204843D01*
Y193500D01*
X206933D01*
X207377Y193833D01*
X207630Y194333D01*
X207757Y194917D01*
X207630Y195500D01*
X207250Y196000D01*
X206807Y196167D01*
X204843D01*
G01X176500Y233939D02*
Y215000D01*
X198500D01*
Y290000D01*
X192500D01*
X190000Y287500D01*
X185000D01*
X182500Y290000D01*
X176500D01*
G01D02*
Y235811D01*
G01X188333Y285710D02*
X184750D01*
X184000Y285457D01*
X183500Y284950D01*
X183333Y284317D01*
X183500Y283684D01*
X184000Y283177D01*
X184750Y282924D01*
X188333D01*
G01X183333Y279217D02*
X188333D01*
X187333Y279977D01*
G01X183333D02*
Y278457D01*
G01X184333Y275510D02*
X183750Y275130D01*
X183416Y274624D01*
X183333Y274054D01*
X183416Y273547D01*
X183833Y273040D01*
X184333Y272724D01*
X184833Y272660D01*
X185416Y272787D01*
X185833Y273230D01*
X186000Y273674D01*
Y274244D01*
G01Y273674D02*
X186250Y273294D01*
X186666Y272977D01*
X187166Y272850D01*
X187666Y272977D01*
X188083Y273294D01*
X188333Y273864D01*
X188250Y274434D01*
X187916Y275004D01*
G01X184083Y270410D02*
X183666Y270030D01*
X183416Y269587D01*
X183333Y269017D01*
X183500Y268447D01*
X183833Y268004D01*
X184416Y267687D01*
X185083Y267624D01*
X185750Y267750D01*
X186166Y268067D01*
X186500Y268510D01*
X186583Y268954D01*
X186500Y269397D01*
X186166Y269967D01*
X188333Y269777D01*
Y268067D01*
G01X189583Y376507D02*
X189833Y376887D01*
X190000Y377330D01*
Y377837D01*
X189750Y378407D01*
X189333Y378850D01*
X188833Y379167D01*
X188000Y379420D01*
X187250Y379483D01*
X186500Y379357D01*
X186000Y379167D01*
X185500Y378787D01*
X185167Y378343D01*
X185000Y377900D01*
Y377457D01*
X185167Y377013D01*
X185417Y376633D01*
X185750Y376317D01*
G01X185000Y374193D02*
X190000D01*
Y372927D01*
X189750Y372420D01*
X189417Y372040D01*
X188917Y371723D01*
X188333Y371470D01*
X187500Y371407D01*
X186667Y371470D01*
X186083Y371723D01*
X185583Y372040D01*
X185250Y372420D01*
X185000Y372927D01*
Y374193D01*
G01Y366940D02*
X190000D01*
X186417Y369283D01*
Y366117D01*
G01X190000Y362600D02*
X189833Y363107D01*
X189417Y363487D01*
X188917Y363740D01*
X188250Y363930D01*
X187500Y363993D01*
X186750Y363930D01*
X186083Y363740D01*
X185583Y363487D01*
X185167Y363107D01*
X185000Y362600D01*
X185167Y362093D01*
X185583Y361713D01*
X186083Y361460D01*
X186750Y361270D01*
X187500Y361207D01*
X188250Y361270D01*
X188917Y361460D01*
X189417Y361713D01*
X189833Y362093D01*
X190000Y362600D01*
G01X187083Y358703D02*
X187667Y358260D01*
X188000Y357880D01*
X188167Y357373D01*
X188000Y356930D01*
X187667Y356613D01*
X187167Y356360D01*
X186583Y356297D01*
X186083Y356360D01*
X185583Y356613D01*
X185167Y356993D01*
X185000Y357437D01*
X185167Y357943D01*
X185667Y358387D01*
X186417Y358640D01*
X187250Y358703D01*
X188333Y358577D01*
X188917Y358387D01*
X189500Y358070D01*
X189917Y357627D01*
X190000Y357183D01*
X189833Y356740D01*
X189417Y356423D01*
G01X185583Y353477D02*
X185167Y353033D01*
X185000Y352527D01*
X185167Y352020D01*
X185667Y351577D01*
X186417Y351260D01*
X187167Y351133D01*
X188083D01*
X188833Y351260D01*
X189500Y351577D01*
X189833Y351957D01*
X190000Y352400D01*
X189833Y352907D01*
X189500Y353287D01*
X189000Y353540D01*
X188333Y353667D01*
X187750Y353540D01*
X187167Y353223D01*
X186833Y352843D01*
X186750Y352400D01*
X186917Y351893D01*
X187333Y351513D01*
X188083Y351133D01*
G01X184833Y348440D02*
X190000Y346160D01*
G01X185667Y343530D02*
X185250Y343023D01*
X185000Y342453D01*
Y341947D01*
X185250Y341440D01*
X185667Y341060D01*
X186250Y340870D01*
X186833Y340997D01*
X187333Y341313D01*
X187667Y341883D01*
X187833Y342643D01*
X188167Y343087D01*
X188750Y343277D01*
X189333Y343150D01*
X189750Y342833D01*
X190000Y342390D01*
Y341947D01*
X189833Y341503D01*
X189417Y341123D01*
G01X185000Y337100D02*
X185083Y337607D01*
X185417Y338050D01*
X185917Y338430D01*
X186500Y338683D01*
X187167Y338810D01*
X187833D01*
X188500Y338683D01*
X189083Y338430D01*
X189583Y338050D01*
X189917Y337607D01*
X190000Y337100D01*
X189917Y336593D01*
X189583Y336150D01*
X189083Y335770D01*
X188500Y335517D01*
X187833Y335390D01*
X187167D01*
X186500Y335517D01*
X185917Y335770D01*
X185417Y336150D01*
X185083Y336593D01*
X185000Y337100D01*
G01X176500Y385000D02*
Y310000D01*
X198500D01*
Y385000D01*
X192500D01*
X190000Y382500D01*
X185000D01*
X182500Y385000D01*
X176500D01*
G01X205957Y370000D02*
Y366417D01*
X206210Y365667D01*
X206717Y365167D01*
X207350Y365000D01*
X207983Y365167D01*
X208490Y365667D01*
X208743Y366417D01*
Y370000D01*
G01X212450Y365000D02*
Y370000D01*
X211690Y369000D01*
G01Y365000D02*
X213210D01*
G01X216157Y366000D02*
X216537Y365417D01*
X217043Y365083D01*
X217613Y365000D01*
X218120Y365083D01*
X218627Y365500D01*
X218943Y366000D01*
X219007Y366500D01*
X218880Y367083D01*
X218437Y367500D01*
X217993Y367667D01*
X217423D01*
G01X217993D02*
X218373Y367917D01*
X218690Y368333D01*
X218817Y368833D01*
X218690Y369333D01*
X218373Y369750D01*
X217803Y370000D01*
X217233Y369917D01*
X216663Y369583D01*
G01X222650Y365000D02*
Y370000D01*
X221890Y369000D01*
G01Y365000D02*
X223410D01*
G01X224000Y95000D02*
Y20000D01*
X246000D01*
Y95000D01*
X240000D01*
X237500Y92500D01*
X232500D01*
X230000Y95000D01*
X224000D01*
G01X225767Y85000D02*
X227350Y90000D01*
X228933Y85000D01*
G01X228363Y86750D02*
X226337D01*
G01X230993Y85000D02*
Y90000D01*
X233907Y85000D01*
Y90000D01*
G01X236157Y85000D02*
Y90000D01*
X237423D01*
X237930Y89750D01*
X238310Y89417D01*
X238627Y88917D01*
X238880Y88333D01*
X238943Y87500D01*
X238880Y86667D01*
X238627Y86083D01*
X238310Y85583D01*
X237930Y85250D01*
X237423Y85000D01*
X236157D01*
G01X242650D02*
X243093Y85083D01*
X243600Y85333D01*
X243917Y85750D01*
X244043Y86333D01*
X243917Y86917D01*
X243537Y87417D01*
X242967Y87667D01*
X242333D01*
X241953Y87833D01*
X241637Y88250D01*
X241510Y88833D01*
X241700Y89417D01*
X242143Y89833D01*
X242650Y90000D01*
X243157Y89833D01*
X243600Y89417D01*
X243790Y88833D01*
X243663Y88250D01*
X243347Y87833D01*
X242967Y87667D01*
X242333D01*
X241763Y87417D01*
X241383Y86917D01*
X241257Y86333D01*
X241383Y85750D01*
X241700Y85333D01*
X242207Y85083D01*
X242650Y85000D01*
G01X245865Y201500D02*
X246000D01*
Y114000D01*
X238454D01*
G01X237136D02*
X231157D01*
G01X229839D02*
X224000D01*
Y201500D01*
G01X226590Y195000D02*
X228110D01*
G01X227350D02*
Y190000D01*
G01X226590D02*
X228110D01*
G01X233843Y194583D02*
X233463Y194833D01*
X233020Y195000D01*
X232513D01*
X231943Y194750D01*
X231500Y194333D01*
X231183Y193833D01*
X230930Y193000D01*
X230867Y192250D01*
X230993Y191500D01*
X231183Y191000D01*
X231563Y190500D01*
X232007Y190167D01*
X232450Y190000D01*
X232893D01*
X233337Y190167D01*
X233717Y190417D01*
X234033Y190750D01*
G01X237550Y190000D02*
Y195000D01*
X236790Y194000D01*
G01Y190000D02*
X238310D01*
G01X241257Y191000D02*
X241637Y190417D01*
X242143Y190083D01*
X242713Y190000D01*
X243220Y190083D01*
X243727Y190500D01*
X244043Y191000D01*
X244107Y191500D01*
X243980Y192083D01*
X243537Y192500D01*
X243093Y192667D01*
X242523D01*
G01X243093D02*
X243473Y192917D01*
X243790Y193333D01*
X243917Y193833D01*
X243790Y194333D01*
X243473Y194750D01*
X242903Y195000D01*
X242333Y194917D01*
X241763Y194583D01*
G01X224000Y299000D02*
X230000D01*
X232500Y296250D01*
X237500D01*
X240000Y299000D01*
X246000D01*
Y211500D01*
X232361D01*
G01X230039D02*
X224000D01*
Y299000D01*
G01Y201500D02*
X230000D01*
X232500Y198750D01*
X237500D01*
X240000Y201500D01*
X244535D01*
G01X234833Y294077D02*
Y292557D01*
G01Y293317D02*
X229833D01*
G01Y294077D02*
Y292557D01*
G01X234416Y286824D02*
X234666Y287204D01*
X234833Y287647D01*
Y288154D01*
X234583Y288724D01*
X234166Y289167D01*
X233666Y289484D01*
X232833Y289737D01*
X232083Y289800D01*
X231333Y289674D01*
X230833Y289484D01*
X230333Y289104D01*
X230000Y288660D01*
X229833Y288217D01*
Y287774D01*
X230000Y287330D01*
X230250Y286950D01*
X230583Y286634D01*
G01X229833Y283117D02*
X234833D01*
X233833Y283877D01*
G01X229833D02*
Y282357D01*
G01Y278017D02*
X234833D01*
X233833Y278777D01*
G01X229833D02*
Y277257D01*
G01X225957Y345000D02*
Y341417D01*
X226210Y340667D01*
X226717Y340167D01*
X227350Y340000D01*
X227983Y340167D01*
X228490Y340667D01*
X228743Y341417D01*
Y345000D01*
G01X232450Y340000D02*
Y345000D01*
X231690Y344000D01*
G01Y340000D02*
X233210D01*
G01X238310D02*
Y345000D01*
X235967Y341417D01*
X239133D01*
G01X241447Y344167D02*
X241827Y344667D01*
X242270Y344917D01*
X242777Y345000D01*
X243410Y344833D01*
X243853Y344417D01*
X243980Y343917D01*
X243917Y343417D01*
X243663Y343000D01*
X242397Y342167D01*
X241827Y341583D01*
X241447Y340750D01*
X241320Y340000D01*
X243980D01*
G01X224000Y350000D02*
X230000D01*
X232500Y347500D01*
X237500D01*
X240000Y350000D01*
X246000D01*
Y310000D01*
X224000D01*
Y350000D01*
G01X220603D02*
Y355000D01*
X222250Y350833D01*
X223897Y355000D01*
Y350000D01*
G01X228743Y354583D02*
X228363Y354833D01*
X227920Y355000D01*
X227413D01*
X226843Y354750D01*
X226400Y354333D01*
X226083Y353833D01*
X225830Y353000D01*
X225767Y352250D01*
X225893Y351500D01*
X226083Y351000D01*
X226463Y350500D01*
X226907Y350167D01*
X227350Y350000D01*
X227793D01*
X228237Y350167D01*
X228617Y350417D01*
X228933Y350750D01*
G01X232450Y350000D02*
Y355000D01*
X231690Y354000D01*
G01Y350000D02*
X233210D01*
G01X238310D02*
Y355000D01*
X235967Y351417D01*
X239133D01*
G01X241257Y350750D02*
X241637Y350333D01*
X242080Y350083D01*
X242650Y350000D01*
X243220Y350167D01*
X243663Y350500D01*
X243980Y351083D01*
X244043Y351750D01*
X243917Y352417D01*
X243600Y352833D01*
X243157Y353167D01*
X242713Y353250D01*
X242270Y353167D01*
X241700Y352833D01*
X241890Y355000D01*
X243600D01*
G01X247750Y350000D02*
X248193Y350083D01*
X248700Y350333D01*
X249017Y350750D01*
X249143Y351333D01*
X249017Y351917D01*
X248637Y352417D01*
X248067Y352667D01*
X247433D01*
X247053Y352833D01*
X246737Y353250D01*
X246610Y353833D01*
X246800Y354417D01*
X247243Y354833D01*
X247750Y355000D01*
X248257Y354833D01*
X248700Y354417D01*
X248890Y353833D01*
X248763Y353250D01*
X248447Y352833D01*
X248067Y352667D01*
X247433D01*
X246863Y352417D01*
X246483Y351917D01*
X246357Y351333D01*
X246483Y350750D01*
X246800Y350333D01*
X247307Y350083D01*
X247750Y350000D01*
G01X234050Y369117D02*
X241550D01*
Y366783D01*
X241175Y366037D01*
X240675Y365570D01*
X239675Y365383D01*
X238675Y365570D01*
X238050Y366130D01*
X237675Y366783D01*
Y369117D01*
G01Y366783D02*
X234050Y365383D01*
G01Y358630D02*
X241550D01*
X236175Y362083D01*
Y357417D01*
G01X239450Y369383D02*
X231950D01*
Y371717D01*
X232325Y372463D01*
X232825Y372930D01*
X233825Y373117D01*
X234825Y372930D01*
X235450Y372370D01*
X235825Y371717D01*
Y369383D01*
G01Y371717D02*
X239450Y373117D01*
G01Y378750D02*
X231950D01*
X233450Y377630D01*
G01X239450D02*
Y379870D01*
G01X301457Y12917D02*
X301837Y12667D01*
X302280Y12500D01*
X302787D01*
X303357Y12750D01*
X303800Y13167D01*
X304117Y13667D01*
X304370Y14500D01*
X304433Y15250D01*
X304307Y16000D01*
X304117Y16500D01*
X303737Y17000D01*
X303293Y17333D01*
X302850Y17500D01*
X302407D01*
X301963Y17333D01*
X301583Y17083D01*
X301267Y16750D01*
G01X299143Y17500D02*
Y12500D01*
X297877D01*
X297370Y12750D01*
X296990Y13083D01*
X296673Y13583D01*
X296420Y14167D01*
X296357Y15000D01*
X296420Y15833D01*
X296673Y16417D01*
X296990Y16917D01*
X297370Y17250D01*
X297877Y17500D01*
X299143D01*
G01X291890D02*
Y12500D01*
X294233Y16083D01*
X291067D01*
G01X287550Y12500D02*
X288057Y12667D01*
X288437Y13083D01*
X288690Y13583D01*
X288880Y14250D01*
X288943Y15000D01*
X288880Y15750D01*
X288690Y16417D01*
X288437Y16917D01*
X288057Y17333D01*
X287550Y17500D01*
X287043Y17333D01*
X286663Y16917D01*
X286410Y16417D01*
X286220Y15750D01*
X286157Y15000D01*
X286220Y14250D01*
X286410Y13583D01*
X286663Y13083D01*
X287043Y12667D01*
X287550Y12500D01*
G01X282577Y17500D02*
X282450Y16417D01*
X282260Y15500D01*
X282007Y14667D01*
X281690Y13750D01*
X281183Y12500D01*
X283717D01*
G01X278553Y15417D02*
X278110Y14833D01*
X277730Y14500D01*
X277223Y14333D01*
X276780Y14500D01*
X276463Y14833D01*
X276210Y15333D01*
X276147Y15917D01*
X276210Y16417D01*
X276463Y16917D01*
X276843Y17333D01*
X277287Y17500D01*
X277793Y17333D01*
X278237Y16833D01*
X278490Y16083D01*
X278553Y15250D01*
X278427Y14167D01*
X278237Y13583D01*
X277920Y13000D01*
X277477Y12583D01*
X277033Y12500D01*
X276590Y12667D01*
X276273Y13083D01*
G01X271743Y14833D02*
X271490Y14583D01*
X271300Y14167D01*
X271173Y13583D01*
X271300Y13083D01*
X271553Y12750D01*
X271997Y12500D01*
X273707D01*
Y17500D01*
X271617D01*
X271173Y17167D01*
X270920Y16667D01*
X270793Y16083D01*
X270920Y15500D01*
X271300Y15000D01*
X271743Y14833D01*
X273707D01*
G01X268797Y17500D02*
Y12500D01*
X267150Y16667D01*
X265503Y12500D01*
Y17500D01*
G01X280002Y21250D02*
X280000D01*
X277500Y18500D01*
X271500D01*
Y20039D01*
G01Y22361D02*
Y30039D01*
G01Y32361D02*
Y80039D01*
G01Y82361D02*
Y100039D01*
G01Y201500D02*
X277500D01*
X280000Y198750D01*
X285000D01*
X287500Y201500D01*
X293500D01*
Y114000D01*
X271500D01*
Y120039D01*
G01Y122361D02*
Y130039D01*
G01Y102361D02*
Y106000D01*
X293500D01*
Y18500D01*
G01X271500Y132361D02*
Y201500D01*
G01X274090Y195000D02*
X275610D01*
G01X274850D02*
Y190000D01*
G01X274090D02*
X275610D01*
G01X281343Y194583D02*
X280963Y194833D01*
X280520Y195000D01*
X280013D01*
X279443Y194750D01*
X279000Y194333D01*
X278683Y193833D01*
X278430Y193000D01*
X278367Y192250D01*
X278493Y191500D01*
X278683Y191000D01*
X279063Y190500D01*
X279507Y190167D01*
X279950Y190000D01*
X280393D01*
X280837Y190167D01*
X281217Y190417D01*
X281533Y190750D01*
G01X285050Y190000D02*
Y195000D01*
X284290Y194000D01*
G01Y190000D02*
X285810D01*
G01X288947Y194167D02*
X289327Y194667D01*
X289770Y194917D01*
X290277Y195000D01*
X290910Y194833D01*
X291353Y194417D01*
X291480Y193917D01*
X291417Y193417D01*
X291163Y193000D01*
X289897Y192167D01*
X289327Y191583D01*
X288947Y190750D01*
X288820Y190000D01*
X291480D01*
G01X263443Y204583D02*
X263063Y204833D01*
X262620Y205000D01*
X262113D01*
X261543Y204750D01*
X261100Y204333D01*
X260783Y203833D01*
X260530Y203000D01*
X260467Y202250D01*
X260593Y201500D01*
X260783Y201000D01*
X261163Y200500D01*
X261607Y200167D01*
X262050Y200000D01*
X262493D01*
X262937Y200167D01*
X263317Y200417D01*
X263633Y200750D01*
G01X265757Y200000D02*
Y205000D01*
X267023D01*
X267530Y204750D01*
X267910Y204417D01*
X268227Y203917D01*
X268480Y203333D01*
X268543Y202500D01*
X268480Y201667D01*
X268227Y201083D01*
X267910Y200583D01*
X267530Y200250D01*
X267023Y200000D01*
X265757D01*
G01X273010D02*
Y205000D01*
X270667Y201417D01*
X273833D01*
G01X275957Y200750D02*
X276337Y200333D01*
X276780Y200083D01*
X277350Y200000D01*
X277920Y200167D01*
X278363Y200500D01*
X278680Y201083D01*
X278743Y201750D01*
X278617Y202417D01*
X278300Y202833D01*
X277857Y203167D01*
X277413Y203250D01*
X276970Y203167D01*
X276400Y202833D01*
X276590Y205000D01*
X278300D01*
G01X282450Y200000D02*
Y205000D01*
X281690Y204000D01*
G01Y200000D02*
X283210D01*
G01X286347Y204167D02*
X286727Y204667D01*
X287170Y204917D01*
X287677Y205000D01*
X288310Y204833D01*
X288753Y204417D01*
X288880Y203917D01*
X288817Y203417D01*
X288563Y203000D01*
X287297Y202167D01*
X286727Y201583D01*
X286347Y200750D01*
X286220Y200000D01*
X288880D01*
G01X293157Y202667D02*
X293410Y202917D01*
X293600Y203333D01*
X293727Y203917D01*
X293600Y204417D01*
X293347Y204750D01*
X292903Y205000D01*
X291193D01*
Y200000D01*
X293283D01*
X293727Y200333D01*
X293980Y200833D01*
X294107Y201417D01*
X293980Y202000D01*
X293600Y202500D01*
X293157Y202667D01*
X291193D01*
G01X296293Y200000D02*
Y205000D01*
X299207Y200000D01*
Y205000D01*
G01X301520Y200667D02*
X302027Y200250D01*
X302597Y200000D01*
X303103D01*
X303610Y200250D01*
X303990Y200667D01*
X304180Y201250D01*
X304053Y201833D01*
X303737Y202333D01*
X303167Y202667D01*
X302407Y202833D01*
X301963Y203167D01*
X301773Y203750D01*
X301900Y204333D01*
X302217Y204750D01*
X302660Y205000D01*
X303103D01*
X303547Y204833D01*
X303927Y204417D01*
G01X306683Y200000D02*
Y205000D01*
X308267D01*
X308773Y204750D01*
X309090Y204417D01*
X309217Y203750D01*
X309090Y203083D01*
X308710Y202667D01*
X308267Y202417D01*
X306683D01*
G01X308267D02*
X309217Y200000D01*
G01X298957Y210417D02*
X299337Y210167D01*
X299780Y210000D01*
X300287D01*
X300857Y210250D01*
X301300Y210667D01*
X301617Y211167D01*
X301870Y212000D01*
X301933Y212750D01*
X301807Y213500D01*
X301617Y214000D01*
X301237Y214500D01*
X300793Y214833D01*
X300350Y215000D01*
X299907D01*
X299463Y214833D01*
X299083Y214583D01*
X298767Y214250D01*
G01X296643Y215000D02*
Y210000D01*
X295377D01*
X294870Y210250D01*
X294490Y210583D01*
X294173Y211083D01*
X293920Y211667D01*
X293857Y212500D01*
X293920Y213333D01*
X294173Y213917D01*
X294490Y214417D01*
X294870Y214750D01*
X295377Y215000D01*
X296643D01*
G01X289390D02*
Y210000D01*
X291733Y213583D01*
X288567D01*
G01X285050Y210000D02*
X285557Y210167D01*
X285937Y210583D01*
X286190Y211083D01*
X286380Y211750D01*
X286443Y212500D01*
X286380Y213250D01*
X286190Y213917D01*
X285937Y214417D01*
X285557Y214833D01*
X285050Y215000D01*
X284543Y214833D01*
X284163Y214417D01*
X283910Y213917D01*
X283720Y213250D01*
X283657Y212500D01*
X283720Y211750D01*
X283910Y211083D01*
X284163Y210583D01*
X284543Y210167D01*
X285050Y210000D01*
G01X280077Y215000D02*
X279950Y213917D01*
X279760Y213000D01*
X279507Y212167D01*
X279190Y211250D01*
X278683Y210000D01*
X281217D01*
G01X276053Y212917D02*
X275610Y212333D01*
X275230Y212000D01*
X274723Y211833D01*
X274280Y212000D01*
X273963Y212333D01*
X273710Y212833D01*
X273647Y213417D01*
X273710Y213917D01*
X273963Y214417D01*
X274343Y214833D01*
X274787Y215000D01*
X275293Y214833D01*
X275737Y214333D01*
X275990Y213583D01*
X276053Y212750D01*
X275927Y211667D01*
X275737Y211083D01*
X275420Y210500D01*
X274977Y210083D01*
X274533Y210000D01*
X274090Y210167D01*
X273773Y210583D01*
G01X269243Y212333D02*
X268990Y212083D01*
X268800Y211667D01*
X268673Y211083D01*
X268800Y210583D01*
X269053Y210250D01*
X269497Y210000D01*
X271207D01*
Y215000D01*
X269117D01*
X268673Y214667D01*
X268420Y214167D01*
X268293Y213583D01*
X268420Y213000D01*
X268800Y212500D01*
X269243Y212333D01*
X271207D01*
G01X266297Y215000D02*
Y210000D01*
X264650Y214167D01*
X263003Y210000D01*
Y215000D01*
G01X293500Y211000D02*
X287500D01*
X285000Y213750D01*
X280000D01*
X277500Y211000D01*
X271500D01*
Y230039D01*
G01Y232361D02*
Y244334D01*
G01Y245166D02*
Y280039D01*
G01Y282361D02*
Y290039D01*
G01Y292361D02*
Y298500D01*
X293500D01*
Y211000D01*
G01X273457Y327500D02*
Y323917D01*
X273710Y323167D01*
X274217Y322667D01*
X274850Y322500D01*
X275483Y322667D01*
X275990Y323167D01*
X276243Y323917D01*
Y327500D01*
G01X279950Y322500D02*
Y327500D01*
X279190Y326500D01*
G01Y322500D02*
X280710D01*
G01X285810D02*
Y327500D01*
X283467Y323917D01*
X286633D01*
G01X290023Y322500D02*
X290150Y323583D01*
X290340Y324500D01*
X290593Y325333D01*
X290910Y326250D01*
X291417Y327500D01*
X288883D01*
G01X271500Y350000D02*
X277500D01*
X280000Y347500D01*
X285000D01*
X287500Y350000D01*
X293500D01*
Y310000D01*
X271500D01*
Y330039D01*
G01Y332361D02*
Y350000D01*
G01X260833Y352500D02*
Y347500D01*
X263367D01*
G01X265553D02*
Y352500D01*
X267200Y348333D01*
X268847Y352500D01*
Y347500D01*
G01X271097Y351667D02*
X271477Y352167D01*
X271920Y352417D01*
X272427Y352500D01*
X273060Y352333D01*
X273503Y351917D01*
X273630Y351417D01*
X273567Y350917D01*
X273313Y350500D01*
X272047Y349667D01*
X271477Y349083D01*
X271097Y348250D01*
X270970Y347500D01*
X273630D01*
G01X276323Y348083D02*
X276767Y347667D01*
X277273Y347500D01*
X277780Y347667D01*
X278223Y348167D01*
X278540Y348917D01*
X278667Y349667D01*
Y350583D01*
X278540Y351333D01*
X278223Y352000D01*
X277843Y352333D01*
X277400Y352500D01*
X276893Y352333D01*
X276513Y352000D01*
X276260Y351500D01*
X276133Y350833D01*
X276260Y350250D01*
X276577Y349667D01*
X276957Y349333D01*
X277400Y349250D01*
X277907Y349417D01*
X278287Y349833D01*
X278667Y350583D01*
G01X282500Y352500D02*
X281993Y352333D01*
X281613Y351917D01*
X281360Y351417D01*
X281170Y350750D01*
X281107Y350000D01*
X281170Y349250D01*
X281360Y348583D01*
X281613Y348083D01*
X281993Y347667D01*
X282500Y347500D01*
X283007Y347667D01*
X283387Y348083D01*
X283640Y348583D01*
X283830Y349250D01*
X283893Y350000D01*
X283830Y350750D01*
X283640Y351417D01*
X283387Y351917D01*
X283007Y352333D01*
X282500Y352500D01*
G01X286207Y348500D02*
X286587Y347917D01*
X287093Y347583D01*
X287663Y347500D01*
X288170Y347583D01*
X288677Y348000D01*
X288993Y348500D01*
X289057Y349000D01*
X288930Y349583D01*
X288487Y350000D01*
X288043Y350167D01*
X287473D01*
G01X288043D02*
X288423Y350417D01*
X288740Y350833D01*
X288867Y351333D01*
X288740Y351833D01*
X288423Y352250D01*
X287853Y352500D01*
X287283Y352417D01*
X286713Y352083D01*
G01X291560Y347333D02*
X293840Y352500D01*
G01X296470Y348167D02*
X296977Y347750D01*
X297547Y347500D01*
X298053D01*
X298560Y347750D01*
X298940Y348167D01*
X299130Y348750D01*
X299003Y349333D01*
X298687Y349833D01*
X298117Y350167D01*
X297357Y350333D01*
X296913Y350667D01*
X296723Y351250D01*
X296850Y351833D01*
X297167Y352250D01*
X297610Y352500D01*
X298053D01*
X298497Y352333D01*
X298877Y351917D01*
G01X302900Y347500D02*
X302393Y347583D01*
X301950Y347917D01*
X301570Y348417D01*
X301317Y349000D01*
X301190Y349667D01*
Y350333D01*
X301317Y351000D01*
X301570Y351583D01*
X301950Y352083D01*
X302393Y352417D01*
X302900Y352500D01*
X303407Y352417D01*
X303850Y352083D01*
X304230Y351583D01*
X304483Y351000D01*
X304610Y350333D01*
Y349667D01*
X304483Y349000D01*
X304230Y348417D01*
X303850Y347917D01*
X303407Y347583D01*
X302900Y347500D01*
G01X281157Y355417D02*
X281537Y355167D01*
X281980Y355000D01*
X282487D01*
X283057Y355250D01*
X283500Y355667D01*
X283817Y356167D01*
X284070Y357000D01*
X284133Y357750D01*
X284007Y358500D01*
X283817Y359000D01*
X283437Y359500D01*
X282993Y359833D01*
X282550Y360000D01*
X282107D01*
X281663Y359833D01*
X281283Y359583D01*
X280967Y359250D01*
G01X277450Y360000D02*
Y355000D01*
X278210Y356000D01*
G01Y360000D02*
X276690D01*
G01X282500Y362500D02*
G03X279648Y369493I-9999J0D01*
G01X272500Y372500D02*
G03X262500Y362500I0J-10000D01*
G01D02*
G03X272500Y352500I10000J0D01*
G01D02*
G03X282500Y362500I0J10000D01*
G01X278065Y370809D02*
G03X272500Y372500I-5564J-8309D01*
G01X273050Y388117D02*
X280550D01*
Y385783D01*
X280175Y385037D01*
X279675Y384570D01*
X278675Y384383D01*
X277675Y384570D01*
X277050Y385130D01*
X276675Y385783D01*
Y388117D01*
G01Y385783D02*
X273050Y384383D01*
G01X274175Y380803D02*
X273550Y380243D01*
X273175Y379590D01*
X273050Y378750D01*
X273300Y377910D01*
X273800Y377257D01*
X274675Y376790D01*
X275675Y376697D01*
X276675Y376883D01*
X277300Y377350D01*
X277800Y378003D01*
X277925Y378657D01*
X277800Y379310D01*
X277300Y380150D01*
X280550Y379870D01*
Y377350D01*
G01X293500Y18500D02*
X287500D01*
X285000Y21250D01*
X282398D01*
G01X305417Y351343D02*
X305167Y350963D01*
X305000Y350520D01*
Y350013D01*
X305250Y349443D01*
X305667Y349000D01*
X306167Y348683D01*
X307000Y348430D01*
X307750Y348367D01*
X308500Y348493D01*
X309000Y348683D01*
X309500Y349063D01*
X309833Y349507D01*
X310000Y349950D01*
Y350393D01*
X309833Y350837D01*
X309583Y351217D01*
X309250Y351533D01*
G01X310000Y355810D02*
X305000D01*
X308583Y353467D01*
Y356633D01*
G01X307500Y362500D02*
G03X302399Y371218I-10000J0D01*
G01X297500Y372500D02*
G03X287500Y362500I0J-10000D01*
G01D02*
G03X297500Y352500I10000J0D01*
G01D02*
G03X307500Y362500I0J10000D01*
G01X300381Y372076D02*
G03X297500Y372500I-2881J-9576D01*
G01X323300Y37500D02*
Y38625D01*
X322767Y40000D01*
G01X323833D02*
X323300Y38625D01*
G01X325500Y40000D02*
X325287Y39917D01*
X325127Y39708D01*
X325020Y39458D01*
X324940Y39125D01*
X324913Y38750D01*
X324940Y38375D01*
X325020Y38042D01*
X325127Y37792D01*
X325287Y37583D01*
X325500Y37500D01*
X325713Y37583D01*
X325873Y37792D01*
X325980Y38042D01*
X326060Y38375D01*
X326087Y38750D01*
X326060Y39125D01*
X325980Y39458D01*
X325873Y39708D01*
X325713Y39917D01*
X325500Y40000D01*
G01X327500Y32500D02*
X347500D01*
Y57084D01*
G01Y57916D02*
Y72500D01*
X327500D01*
Y32500D01*
G01X324300Y56500D02*
Y57625D01*
X323767Y59000D01*
G01X324833D02*
X324300Y57625D01*
G01X326820Y56500D02*
Y59000D01*
X325833Y57208D01*
X327167D01*
G01X323300Y47500D02*
Y48625D01*
X322767Y50000D01*
G01X323833D02*
X323300Y48625D01*
G01X324993Y49583D02*
X325153Y49833D01*
X325340Y49958D01*
X325553Y50000D01*
X325820Y49917D01*
X326007Y49708D01*
X326060Y49458D01*
X326033Y49208D01*
X325927Y49000D01*
X325393Y48583D01*
X325153Y48292D01*
X324993Y47875D01*
X324940Y47500D01*
X326060D01*
G01X323300Y65000D02*
Y66125D01*
X322767Y67500D01*
G01X323833D02*
X323300Y66125D01*
G01X324993Y66042D02*
X325180Y66333D01*
X325340Y66500D01*
X325553Y66583D01*
X325740Y66500D01*
X325873Y66333D01*
X325980Y66083D01*
X326007Y65792D01*
X325980Y65542D01*
X325873Y65292D01*
X325713Y65083D01*
X325527Y65000D01*
X325313Y65083D01*
X325127Y65333D01*
X325020Y65708D01*
X324993Y66125D01*
X325047Y66667D01*
X325127Y66958D01*
X325260Y67250D01*
X325447Y67458D01*
X325633Y67500D01*
X325820Y67417D01*
X325953Y67208D01*
G01X324000Y199000D02*
X330000D01*
X332500Y196250D01*
X337500D01*
X340000Y199000D01*
X346000D01*
Y111500D01*
X324000D01*
Y199000D01*
G01X321500Y296500D02*
X327500D01*
X330000Y293750D01*
X335000D01*
X337500Y296500D01*
X343500D01*
Y209000D01*
X321500D01*
Y210039D01*
G01Y212361D02*
Y220039D01*
G01Y222361D02*
Y226835D01*
G01Y228165D02*
Y260135D01*
G01Y261465D02*
Y296500D01*
G01X324090Y290000D02*
X325610D01*
G01X324850D02*
Y285000D01*
G01X324090D02*
X325610D01*
G01X331343Y289583D02*
X330963Y289833D01*
X330520Y290000D01*
X330013D01*
X329443Y289750D01*
X329000Y289333D01*
X328683Y288833D01*
X328430Y288000D01*
X328367Y287250D01*
X328493Y286500D01*
X328683Y286000D01*
X329063Y285500D01*
X329507Y285167D01*
X329950Y285000D01*
X330393D01*
X330837Y285167D01*
X331217Y285417D01*
X331533Y285750D01*
G01X335050Y285000D02*
Y290000D01*
X334290Y289000D01*
G01Y285000D02*
X335810D01*
G01X340150Y290000D02*
X339643Y289833D01*
X339263Y289417D01*
X339010Y288917D01*
X338820Y288250D01*
X338757Y287500D01*
X338820Y286750D01*
X339010Y286083D01*
X339263Y285583D01*
X339643Y285167D01*
X340150Y285000D01*
X340657Y285167D01*
X341037Y285583D01*
X341290Y286083D01*
X341480Y286750D01*
X341543Y287500D01*
X341480Y288250D01*
X341290Y288917D01*
X341037Y289417D01*
X340657Y289833D01*
X340150Y290000D01*
G01X313010Y311940D02*
Y316940D01*
X312250Y315940D01*
G01Y311940D02*
X313770D01*
G01X323133Y322500D02*
Y327500D01*
X324717D01*
X325223Y327250D01*
X325540Y326917D01*
X325667Y326250D01*
X325540Y325583D01*
X325160Y325167D01*
X324717Y324917D01*
X323133D01*
G01X324717D02*
X325667Y322500D01*
G01X328297Y324583D02*
X328740Y325167D01*
X329120Y325500D01*
X329627Y325667D01*
X330070Y325500D01*
X330387Y325167D01*
X330640Y324667D01*
X330703Y324083D01*
X330640Y323583D01*
X330387Y323083D01*
X330007Y322667D01*
X329563Y322500D01*
X329057Y322667D01*
X328613Y323167D01*
X328360Y323917D01*
X328297Y324750D01*
X328423Y325833D01*
X328613Y326417D01*
X328930Y327000D01*
X329373Y327417D01*
X329817Y327500D01*
X330260Y327333D01*
X330577Y326917D01*
G01X326550Y364617D02*
X334050D01*
Y362283D01*
X333675Y361537D01*
X333175Y361070D01*
X332175Y360883D01*
X331175Y361070D01*
X330550Y361630D01*
X330175Y362283D01*
Y364617D01*
G01Y362283D02*
X326550Y360883D01*
G01Y355437D02*
X328175Y355250D01*
X329550Y354970D01*
X330800Y354597D01*
X332175Y354130D01*
X334050Y353383D01*
Y357117D01*
G01X330050Y384617D02*
X337550D01*
Y382283D01*
X337175Y381537D01*
X336675Y381070D01*
X335675Y380883D01*
X334675Y381070D01*
X334050Y381630D01*
X333675Y382283D01*
Y384617D01*
G01Y382283D02*
X330050Y380883D01*
G01X331550Y377303D02*
X330675Y376743D01*
X330175Y375997D01*
X330050Y375157D01*
X330175Y374410D01*
X330800Y373663D01*
X331550Y373197D01*
X332300Y373103D01*
X333175Y373290D01*
X333800Y373943D01*
X334050Y374597D01*
Y375437D01*
G01Y374597D02*
X334425Y374037D01*
X335050Y373570D01*
X335800Y373383D01*
X336550Y373570D01*
X337175Y374037D01*
X337550Y374877D01*
X337425Y375717D01*
X336925Y376557D01*
G01X348300Y37500D02*
Y38625D01*
X347767Y40000D01*
G01X348833D02*
X348300Y38625D01*
G01X350500Y37500D02*
Y40000D01*
X350180Y39500D01*
G01Y37500D02*
X350820D01*
G01X348300Y57500D02*
Y58625D01*
X347767Y60000D01*
G01X348833D02*
X348300Y58625D01*
G01X349913Y57875D02*
X350073Y57667D01*
X350260Y57542D01*
X350500Y57500D01*
X350740Y57583D01*
X350927Y57750D01*
X351060Y58042D01*
X351087Y58375D01*
X351033Y58708D01*
X350900Y58917D01*
X350713Y59083D01*
X350527Y59125D01*
X350340Y59083D01*
X350100Y58917D01*
X350180Y60000D01*
X350900D01*
G01X348300Y47500D02*
Y48625D01*
X347767Y50000D01*
G01X348833D02*
X348300Y48625D01*
G01X349913Y48000D02*
X350073Y47708D01*
X350287Y47542D01*
X350527Y47500D01*
X350740Y47542D01*
X350953Y47750D01*
X351087Y48000D01*
X351113Y48250D01*
X351060Y48542D01*
X350873Y48750D01*
X350687Y48833D01*
X350447D01*
G01X350687D02*
X350847Y48958D01*
X350980Y49167D01*
X351033Y49417D01*
X350980Y49667D01*
X350847Y49875D01*
X350607Y50000D01*
X350367Y49958D01*
X350127Y49792D01*
G01X348300Y65000D02*
Y66125D01*
X347767Y67500D01*
G01X348833D02*
X348300Y66125D01*
G01X350447Y65000D02*
X350500Y65542D01*
X350580Y66000D01*
X350687Y66417D01*
X350820Y66875D01*
X351033Y67500D01*
X349967D01*
G01X355000Y200500D02*
X355083Y201007D01*
X355417Y201450D01*
X355917Y201830D01*
X356500Y202083D01*
X357167Y202210D01*
X357833D01*
X358500Y202083D01*
X359083Y201830D01*
X359583Y201450D01*
X359917Y201007D01*
X360000Y200500D01*
X359917Y199993D01*
X359583Y199550D01*
X359083Y199170D01*
X358500Y198917D01*
X357833Y198790D01*
X357167D01*
X356500Y198917D01*
X355917Y199170D01*
X355417Y199550D01*
X355083Y199993D01*
X355000Y200500D01*
G01X360000Y196793D02*
X356417D01*
X355667Y196540D01*
X355167Y196033D01*
X355000Y195400D01*
X355167Y194767D01*
X355667Y194260D01*
X356417Y194007D01*
X360000D01*
G01Y190300D02*
X355000D01*
G01X360000Y191757D02*
Y188843D01*
G01X355000Y186467D02*
X360000D01*
Y184947D01*
X359750Y184440D01*
X359167Y184060D01*
X358500Y183933D01*
X357833Y184060D01*
X357333Y184377D01*
X357083Y184947D01*
Y186467D01*
G01X360000Y181493D02*
X356417D01*
X355667Y181240D01*
X355167Y180733D01*
X355000Y180100D01*
X355167Y179467D01*
X355667Y178960D01*
X356417Y178707D01*
X360000D01*
G01Y175000D02*
X355000D01*
G01X360000Y176457D02*
Y173543D01*
G01X357667Y169393D02*
X357917Y169140D01*
X358333Y168950D01*
X358917Y168823D01*
X359417Y168950D01*
X359750Y169203D01*
X360000Y169647D01*
Y171357D01*
X355000D01*
Y169267D01*
X355333Y168823D01*
X355833Y168570D01*
X356417Y168443D01*
X357000Y168570D01*
X357500Y168950D01*
X357667Y169393D01*
Y171357D01*
G01X360000Y166193D02*
X356417D01*
X355667Y165940D01*
X355167Y165433D01*
X355000Y164800D01*
X355167Y164167D01*
X355667Y163660D01*
X356417Y163407D01*
X360000D01*
G01X355000Y160903D02*
X360000D01*
Y158497D01*
G01X357583Y159383D02*
Y160903D01*
G01X355000Y155803D02*
X360000D01*
Y153397D01*
G01X357583Y154283D02*
Y155803D01*
G01X359167Y150703D02*
X359667Y150323D01*
X359917Y149880D01*
X360000Y149373D01*
X359833Y148740D01*
X359417Y148297D01*
X358917Y148170D01*
X358417Y148233D01*
X358000Y148487D01*
X357167Y149753D01*
X356583Y150323D01*
X355750Y150703D01*
X355000Y150830D01*
Y148170D01*
G01X365900Y305000D02*
Y310000D01*
X365140Y309000D01*
G01Y305000D02*
X366660D01*
G01X371000Y310000D02*
X370493Y309833D01*
X370113Y309417D01*
X369860Y308917D01*
X369670Y308250D01*
X369607Y307500D01*
X369670Y306750D01*
X369860Y306083D01*
X370113Y305583D01*
X370493Y305167D01*
X371000Y305000D01*
X371507Y305167D01*
X371887Y305583D01*
X372140Y306083D01*
X372330Y306750D01*
X372393Y307500D01*
X372330Y308250D01*
X372140Y308917D01*
X371887Y309417D01*
X371507Y309833D01*
X371000Y310000D01*
G01X375023Y308333D02*
Y306000D01*
X375277Y305417D01*
X375657Y305083D01*
X376100Y305000D01*
X376543Y305083D01*
X376923Y305417D01*
X377177Y306000D01*
G01Y305000D02*
Y308333D01*
G01X377500Y295000D02*
G03X367500Y305000I-10000J0D01*
G01D02*
G03X360601Y302240I-1J-10000D01*
G01X360151Y301782D02*
G03X357500Y295000I7350J-6782D01*
G01D02*
G03X367500Y285000I10000J0D01*
G01D02*
G03X377500Y295000I0J10000D01*
G01X357500Y337500D02*
X377500D01*
Y377500D01*
X357500D01*
Y337500D01*
G01X377500Y320000D02*
G03X367500Y330000I-10000J0D01*
G01D02*
G03X357500Y320000I0J-10000D01*
G01D02*
G03X367500Y310000I10000J0D01*
G01D02*
G03X377500Y320000I0J10000D01*
G01X346617Y312940D02*
X346997Y312357D01*
X347503Y312023D01*
X348073Y311940D01*
X348580Y312023D01*
X349087Y312440D01*
X349403Y312940D01*
X349467Y313440D01*
X349340Y314023D01*
X348897Y314440D01*
X348453Y314607D01*
X347883D01*
G01X348453D02*
X348833Y314857D01*
X349150Y315273D01*
X349277Y315773D01*
X349150Y316273D01*
X348833Y316690D01*
X348263Y316940D01*
X347693Y316857D01*
X347123Y316523D01*
G01X350507Y343333D02*
X351147D01*
G01X350800Y343875D02*
Y342792D01*
G01X352413Y342875D02*
X352573Y342667D01*
X352760Y342542D01*
X353000Y342500D01*
X353240Y342583D01*
X353427Y342750D01*
X353560Y343042D01*
X353587Y343375D01*
X353533Y343708D01*
X353400Y343917D01*
X353213Y344083D01*
X353027Y344125D01*
X352840Y344083D01*
X352600Y343917D01*
X352680Y345000D01*
X353400D01*
G01X354533D02*
X355200Y342500D01*
X355867Y345000D01*
G01X350960Y353750D02*
X351493D01*
Y353000D01*
X351333Y352750D01*
X351147Y352583D01*
X350880Y352500D01*
X350613Y352583D01*
X350427Y352750D01*
X350267Y353000D01*
X350160Y353292D01*
X350107Y353625D01*
Y353917D01*
X350160Y354167D01*
X350267Y354458D01*
X350427Y354708D01*
X350587Y354875D01*
X350800Y355000D01*
X350987D01*
X351200Y354917D01*
X351360Y354750D01*
G01X352387Y352500D02*
Y355000D01*
X353613Y352500D01*
Y355000D01*
G01X354613Y352500D02*
Y355000D01*
X355147D01*
X355360Y354875D01*
X355520Y354708D01*
X355653Y354458D01*
X355760Y354167D01*
X355787Y353750D01*
X355760Y353333D01*
X355653Y353042D01*
X355520Y352792D01*
X355360Y352625D01*
X355147Y352500D01*
X354613D01*
G01X350133Y365000D02*
X350800Y362500D01*
X351467Y365000D01*
G01X352467Y362500D02*
Y365000D01*
X353133D01*
X353347Y364875D01*
X353480Y364708D01*
X353533Y364375D01*
X353480Y364042D01*
X353320Y363833D01*
X353133Y363708D01*
X352467D01*
G01X353133D02*
X353533Y362500D01*
G01X355733D02*
X354667D01*
Y365000D01*
X355733D01*
G01X355307Y363792D02*
X354667D01*
G01X365333Y381984D02*
X364833Y381667D01*
X364500Y381287D01*
X364333Y380844D01*
X364500Y380337D01*
X364833Y379957D01*
X365333Y379577D01*
X366000Y379450D01*
X369333D01*
G01X368500Y376820D02*
X369000Y376440D01*
X369250Y375997D01*
X369333Y375490D01*
X369166Y374857D01*
X368750Y374414D01*
X368250Y374287D01*
X367750Y374350D01*
X367333Y374604D01*
X366500Y375870D01*
X365916Y376440D01*
X365083Y376820D01*
X364333Y376947D01*
Y374287D01*
G01X376343Y297083D02*
X375963Y297333D01*
X375520Y297500D01*
X375013D01*
X374443Y297250D01*
X374000Y296833D01*
X373683Y296333D01*
X373430Y295500D01*
X373367Y294750D01*
X373493Y294000D01*
X373683Y293500D01*
X374063Y293000D01*
X374507Y292667D01*
X374950Y292500D01*
X375393D01*
X375837Y292667D01*
X376217Y292917D01*
X376533Y293250D01*
G01X378847Y294583D02*
X379290Y295167D01*
X379670Y295500D01*
X380177Y295667D01*
X380620Y295500D01*
X380937Y295167D01*
X381190Y294667D01*
X381253Y294083D01*
X381190Y293583D01*
X380937Y293083D01*
X380557Y292667D01*
X380113Y292500D01*
X379607Y292667D01*
X379163Y293167D01*
X378910Y293917D01*
X378847Y294750D01*
X378973Y295833D01*
X379163Y296417D01*
X379480Y297000D01*
X379923Y297417D01*
X380367Y297500D01*
X380810Y297333D01*
X381127Y296917D01*
G01X376916Y319324D02*
X377166Y319704D01*
X377333Y320147D01*
Y320654D01*
X377083Y321224D01*
X376666Y321667D01*
X376166Y321984D01*
X375333Y322237D01*
X374583Y322300D01*
X373833Y322174D01*
X373333Y321984D01*
X372833Y321604D01*
X372500Y321160D01*
X372333Y320717D01*
Y320274D01*
X372500Y319830D01*
X372750Y319450D01*
X373083Y319134D01*
G01X372333Y315744D02*
X373416Y315617D01*
X374333Y315427D01*
X375166Y315174D01*
X376083Y314857D01*
X377333Y314350D01*
Y316884D01*
G01X377953Y343333D02*
X378647D01*
G01X379913Y342875D02*
X380073Y342667D01*
X380260Y342542D01*
X380500Y342500D01*
X380740Y342583D01*
X380927Y342750D01*
X381060Y343042D01*
X381087Y343375D01*
X381033Y343708D01*
X380900Y343917D01*
X380713Y344083D01*
X380527Y344125D01*
X380340Y344083D01*
X380100Y343917D01*
X380180Y345000D01*
X380900D01*
G01X382033D02*
X382700Y342500D01*
X383367Y345000D01*
G01X381333Y352500D02*
X380267D01*
Y355000D01*
X381333D01*
G01X380907Y353792D02*
X380267D01*
G01X382387Y352500D02*
Y355000D01*
X383613Y352500D01*
Y355000D01*
G01X377633Y365000D02*
X378300Y362500D01*
X378967Y365000D01*
G01X380180D02*
X380820D01*
G01X380500D02*
Y362500D01*
G01X380180D02*
X380820D01*
G01X382087D02*
Y365000D01*
X383313Y362500D01*
Y365000D01*
G54D11*
G01X32799Y271250D02*
X52500D01*
G01X32500Y280268D02*
Y272132D01*
G01Y310268D02*
Y302132D01*
G01Y300268D02*
Y292132D01*
G01Y290268D02*
Y282132D01*
G01Y340268D02*
Y332132D01*
G01Y330268D02*
Y312132D01*
G01X47500Y353750D02*
X37500D01*
G01X32500D02*
Y342132D01*
G01X37500Y353750D02*
X32500D01*
G01X37500Y351250D02*
Y353750D01*
G01X47500Y351250D02*
X37500D01*
G01X52500Y271250D02*
Y330268D01*
G01Y332132D02*
Y340268D01*
G01Y353750D02*
X47500D01*
G01X52500Y342132D02*
Y353750D01*
G01X47500D02*
Y351250D01*
G01X226250Y360000D02*
X223750D01*
G01X243750D02*
X246250D01*
G01X243750Y356250D02*
X226250D01*
G01X243750Y363750D02*
Y356250D01*
G01X226250Y363750D02*
X243750D01*
G01X226250Y356250D02*
Y363750D01*
G01X246250Y377500D02*
X248750D01*
G01X228750D02*
X226250D01*
G01X228750Y381250D02*
X229601D01*
G01X232799D02*
X246250D01*
G01X228750Y373750D02*
Y381250D01*
G01X246250Y373750D02*
X228750D01*
G01X246250Y381250D02*
Y373750D01*
G01X268750Y380000D02*
X266250D01*
G01X286250Y376250D02*
X268750D01*
G01Y383750D02*
X286250D01*
G01X268750Y376250D02*
Y383750D01*
G01X286250Y380000D02*
X288750D01*
G01X286250Y383750D02*
Y376250D01*
G01X340000Y332500D02*
Y340142D01*
G01X320000Y332500D02*
Y340142D01*
G01X340000Y332000D02*
X345500D01*
G01X322585D02*
X329815D01*
G01X332585D02*
X340000D01*
G01X314500D02*
X319815D01*
G01X314500Y322000D02*
Y332000D01*
G01X345500Y322000D02*
X332585D01*
G01X329815D02*
X322585D01*
G01X319815D02*
X314500D01*
G01X340000Y342258D02*
Y350142D01*
G01Y352258D02*
Y357500D01*
G01X320000Y342258D02*
Y350142D01*
G01Y352258D02*
Y357500D01*
G01X318750Y362500D02*
X316250D01*
G01X336250D02*
X338750D01*
G01X336250Y358750D02*
X318750D01*
G01X336250Y366250D02*
Y358750D01*
G01X318750Y366250D02*
X336250D01*
G01X318750Y358750D02*
Y366250D01*
G01Y375000D02*
X316250D01*
G01X336250D02*
X338750D01*
G01X336250Y371250D02*
X332799D01*
G01X329601D02*
X322799D01*
G01X319601D02*
X318750D01*
G01X336250Y378750D02*
Y371250D01*
G01X318750Y378750D02*
X336250D01*
G01X318750Y371250D02*
Y378750D01*
G01X345500Y332000D02*
Y322000D01*
M02*
