G04 ================== begin FILE IDENTIFICATION RECORD ==================*
G04 Layout Name:  adc2.brd*
G04 Film Name:    TOP_SOLDERMASK*
G04 File Format:  Gerber RS274X*
G04 File Origin:  Cadence Allegro -unreleased*
G04 Origin Date:  Sun Sep 19 23:40:03 2021*
G04 *
G04 Layer:  VIA CLASS/SOLDERMASK_TOP*
G04 Layer:  PIN/SOLDERMASK_TOP*
G04 Layer:  DRC ERROR CLASS/SOLDERMASK_TOP*
G04 *
G04 Offset:    (0.00 0.00)*
G04 Mirror:    No*
G04 Mode:      Positive*
G04 Rotation:  0*
G04 FullContactRelief:  No*
G04 UndefLineWidth:     7.00*
G04 ================== end FILE IDENTIFICATION RECORD ====================*
%FSLAX25Y25*MOIN*%
%IR0*IPPOS*OFA0.00000B0.00000*MIA0B0*SFA1.00000B1.00000*%
%ADD10C,.044*%
%ADD16C,.045*%
%ADD11C,.075*%
%ADD13C,.058*%
%ADD12R,.075X.075*%
%ADD14R,.058X.058*%
%ADD15C,.105*%
%LPD*%
G75*
G54D10*
X11200Y11200D03*
Y21200D03*
Y31200D03*
Y41200D03*
Y51200D03*
Y61200D03*
Y71200D03*
Y81200D03*
Y91200D03*
Y101200D03*
Y111200D03*
Y121200D03*
Y131200D03*
Y141200D03*
Y151200D03*
Y161200D03*
Y171200D03*
Y181200D03*
Y191200D03*
X4849Y178750D03*
X11200Y201200D03*
Y221200D03*
X4849Y211650D03*
X11200Y231200D03*
Y241200D03*
Y261200D03*
Y271200D03*
Y281200D03*
Y291200D03*
Y301200D03*
Y311200D03*
Y321200D03*
Y331200D03*
Y341200D03*
Y351200D03*
Y361200D03*
Y371200D03*
Y381200D03*
X21200Y11200D03*
X31200D03*
X41200D03*
X21200Y21200D03*
X31200D03*
X41200D03*
X21200Y31200D03*
X31200D03*
X41200D03*
X21200Y41200D03*
X41200D03*
X21200Y51200D03*
X41200D03*
X21200Y61200D03*
X41200D03*
X21200Y71200D03*
X41200D03*
Y91200D03*
X31200Y101200D03*
X41200D03*
X31200Y111200D03*
X41200D03*
X31200Y121200D03*
X41200D03*
X31200Y131200D03*
X20750Y123000D03*
X31200Y141200D03*
X40625Y149247D03*
X21200Y181200D03*
Y191200D03*
Y201200D03*
X31200D03*
X41200D03*
X21200Y221200D03*
X31200D03*
X41200D03*
X21200Y231200D03*
X41200D03*
X21200Y241200D03*
X41200D03*
X21200Y261200D03*
X31200D03*
X21200Y271200D03*
X31200D03*
X21200Y281200D03*
X31200D03*
X21200Y291200D03*
X31200D03*
X21200Y301200D03*
X31200D03*
Y311200D03*
Y331200D03*
Y341200D03*
X21200Y371200D03*
Y361200D03*
X31200D03*
X41200D03*
X31200Y371200D03*
X41200D03*
X34875Y347500D03*
X21200Y381200D03*
X31200D03*
X51200Y11200D03*
X61200D03*
X70800Y7302D03*
X51200Y21200D03*
X61200D03*
X51200Y31200D03*
Y41200D03*
Y51200D03*
Y61200D03*
Y71200D03*
Y101200D03*
X61200D03*
X51200Y111200D03*
X61200D03*
X71200D03*
X51200Y121200D03*
X61200D03*
X71200D03*
X51200Y151200D03*
X61200D03*
X71200D03*
X53750Y189750D03*
X51200Y201200D03*
X61200D03*
X71200D03*
X51200Y221200D03*
X71200D03*
X51200Y231200D03*
X71200D03*
X51200Y241200D03*
X71200D03*
Y251200D03*
X71125Y227250D03*
X57625Y237250D03*
X61200Y261200D03*
X71200D03*
X61200Y271200D03*
X71200D03*
X61200Y281200D03*
Y291200D03*
Y301200D03*
Y311200D03*
X51200Y331200D03*
X61200D03*
X51200Y341200D03*
X61200D03*
Y351200D03*
X51200Y361200D03*
X61200D03*
X51200Y371200D03*
X61200D03*
X51200Y381200D03*
X61200D03*
X81200Y11200D03*
X91200D03*
X101200D03*
X81200Y21200D03*
X91200D03*
X101200D03*
X81200Y31200D03*
X91200D03*
X101200D03*
X81200Y41200D03*
X91200D03*
X101200D03*
X81200Y51200D03*
X91200D03*
X101200D03*
X81200Y101200D03*
X91200D03*
X101200D03*
X81200Y111200D03*
X91200D03*
X101200D03*
X81200Y121200D03*
X91200D03*
X101200D03*
X91200Y131200D03*
X101200D03*
X91200Y151200D03*
X101200D03*
Y161200D03*
X85850Y155000D03*
X73625Y145000D03*
X91200Y191200D03*
X101200D03*
X86750Y171875D03*
X81200Y201200D03*
X91200D03*
X101200D03*
X81200Y221200D03*
X91200D03*
X101200D03*
X91200Y261200D03*
Y271200D03*
Y281200D03*
X80000Y267500D03*
X81200Y291200D03*
X91200D03*
X81200Y301200D03*
X91200D03*
Y311200D03*
X79000Y295250D03*
X91200Y341200D03*
Y351200D03*
Y371200D03*
X101200D03*
X89375Y357500D03*
X91200Y381200D03*
X80000Y376375D03*
X111200Y11200D03*
X119300Y9252D03*
X111200Y21200D03*
X131200D03*
X111200Y31200D03*
X131200D03*
X111200Y41200D03*
Y51200D03*
X121200D03*
X131200D03*
X121200Y71200D03*
X131200D03*
X125000Y52500D03*
X114125Y62750D03*
X111200Y81200D03*
Y101200D03*
X121200D03*
X131200D03*
X125000Y72500D03*
X111200Y111200D03*
X131200Y121200D03*
X110000Y118600D03*
X121200Y161200D03*
X114750Y146875D03*
X104875Y145000D03*
X121200Y191200D03*
X131200D03*
X120750Y183000D03*
X111200Y201200D03*
X121200D03*
X131200D03*
X121200Y211200D03*
X131200D03*
X121200Y221200D03*
X131200D03*
X121200Y241200D03*
Y251200D03*
Y261200D03*
X102250Y284375D03*
X131200Y331200D03*
X131250Y357875D03*
X113750Y364125D03*
X141200Y21200D03*
Y31200D03*
Y41200D03*
X151200D03*
X140000Y37500D03*
X141200Y51200D03*
X151200D03*
X141200Y71200D03*
X151200D03*
X161200D03*
X144998Y60800D03*
X157207Y100301D03*
X161200Y81200D03*
X141200Y101200D03*
X151200D03*
X161200D03*
X144998Y96200D03*
X141200Y121200D03*
Y141200D03*
X150750Y143875D03*
X161200Y191200D03*
Y201200D03*
Y211200D03*
X149998Y243450D03*
Y258200D03*
Y254300D03*
X132250Y264500D03*
X144450Y267498D03*
X134200D03*
X141200Y301200D03*
X149998Y287250D03*
X150002Y290150D03*
Y311868D03*
X133825Y282500D03*
X141200Y331200D03*
X148200Y339998D03*
X150150Y332375D03*
X141200Y351200D03*
X161200D03*
X141200Y361200D03*
X161200D03*
X177750Y22750D03*
X181200Y51200D03*
X171200Y101200D03*
X181200D03*
X191200D03*
X168375Y93250D03*
X171200Y121200D03*
X181200D03*
X191200D03*
X181200Y131200D03*
Y141200D03*
X162375Y152500D03*
X191250Y147500D03*
X178875Y152500D03*
X181200Y181200D03*
Y191200D03*
X163250Y169375D03*
X181200Y201200D03*
Y211200D03*
X171200Y221200D03*
X181200D03*
X170550Y197498D03*
X181200Y231200D03*
Y241200D03*
X177250Y234875D03*
X181200Y271200D03*
Y281200D03*
X178350Y252500D03*
X184875Y262500D03*
X167750Y272500D03*
X171200Y291200D03*
X181200D03*
X171200Y301200D03*
X181200D03*
X171200Y311200D03*
X181200D03*
X171200Y321200D03*
X181200D03*
Y331200D03*
X166200Y339998D03*
X179200Y342502D03*
X178250Y356500D03*
X206250Y7302D03*
X211200Y21200D03*
X221200D03*
X215250Y62500D03*
X201200Y101200D03*
X211200D03*
X211250Y74875D03*
X220000Y96375D03*
X211200Y121200D03*
X221200D03*
X211200Y131200D03*
X221200D03*
X209250Y145375D03*
X210250Y156250D03*
X212498Y152500D03*
X211200Y171200D03*
Y181200D03*
Y191200D03*
X195875Y172500D03*
X212498Y162500D03*
X201200Y201200D03*
Y211200D03*
X221200D03*
Y221200D03*
X198750Y197498D03*
X220000Y202498D03*
X216398Y202502D03*
X211498D03*
X221200Y231200D03*
X211200Y261200D03*
Y271200D03*
X201200Y291200D03*
X211200D03*
X201200Y301200D03*
Y311200D03*
X220000Y301700D03*
X221200Y321200D03*
X196150Y342502D03*
X231200Y21200D03*
X241200D03*
X251200D03*
X243373Y67500D03*
X234375Y61250D03*
X231200Y91200D03*
Y101200D03*
X251200D03*
X241200Y121200D03*
X251200D03*
X231200Y131200D03*
X241200D03*
X251200D03*
X227498Y120902D03*
X237795Y115002D03*
X230498D03*
X238746Y109998D03*
X231200Y141200D03*
X241200D03*
X231200Y151200D03*
X241200D03*
Y161200D03*
Y171200D03*
Y181200D03*
X251200D03*
X231200Y191200D03*
X241200D03*
X227498Y171368D03*
X231200Y211200D03*
X251200D03*
X231200Y221200D03*
X251200D03*
X245200Y202498D03*
X239300D03*
X231200Y231200D03*
X251200D03*
X231200Y241200D03*
Y251200D03*
Y261200D03*
Y271200D03*
Y281200D03*
X251200D03*
X231200Y291200D03*
Y301200D03*
X241200D03*
X251200D03*
X231200Y321200D03*
Y351200D03*
X241200D03*
X251200D03*
X231200Y361200D03*
X241200D03*
X231200Y381200D03*
X261200Y21200D03*
X271200D03*
X281200D03*
X271200Y31200D03*
X281200D03*
X261200Y41200D03*
X253750Y40625D03*
X271200Y81200D03*
X281200D03*
Y91200D03*
X261200Y101200D03*
X271200D03*
X281200D03*
X276250Y77500D03*
X261200Y121200D03*
X271200D03*
X281200D03*
X261200Y131200D03*
X271200D03*
X281200D03*
Y141200D03*
Y151200D03*
Y161200D03*
X255002Y158750D03*
X261200Y171200D03*
X281200Y191200D03*
X255002Y177250D03*
X281200Y201200D03*
X261200Y211200D03*
X281200D03*
X261200Y221200D03*
X281200D03*
X255002Y198200D03*
X261200Y231200D03*
X271200D03*
X281200D03*
Y241200D03*
X270375Y244750D03*
X281200Y261200D03*
X261200Y271200D03*
X281200D03*
X261200Y281200D03*
X271200D03*
X281200D03*
X261200Y291200D03*
X271200D03*
X281200D03*
X261200Y301200D03*
X271200D03*
X281200D03*
X261200Y331200D03*
X271200D03*
X281200D03*
Y341200D03*
X263750Y339875D03*
X281200Y361200D03*
X266750Y357500D03*
X279250Y370625D03*
X281200Y381200D03*
X291200Y21200D03*
X301200D03*
X311200D03*
X291200Y31200D03*
X311200D03*
X301200Y51200D03*
Y61200D03*
X299000Y42250D03*
X291200Y81200D03*
X301200D03*
X311200D03*
X291200Y91200D03*
X301200D03*
X311200D03*
X291200Y101200D03*
X301200D03*
X311200D03*
X291200Y121200D03*
X301200D03*
X311200D03*
X291200Y131200D03*
X301200D03*
X311200D03*
X286200Y109998D03*
X291200Y151200D03*
Y161200D03*
Y171200D03*
X301200Y201200D03*
Y211200D03*
X292750Y203625D03*
X291200Y241200D03*
Y251200D03*
X311200D03*
X291200Y261200D03*
Y271200D03*
X301200D03*
X291200Y281200D03*
Y291200D03*
X301200D03*
X291200Y301200D03*
X301200D03*
X309998Y283750D03*
Y300700D03*
X311200Y321200D03*
X291200Y331200D03*
X301200D03*
X311200D03*
X291200Y341200D03*
X301200D03*
X311200D03*
X301200Y351200D03*
Y361200D03*
Y371200D03*
X311200D03*
X301200Y381200D03*
X311200D03*
X304000Y375000D03*
X321200Y21200D03*
X331200D03*
X341200D03*
X321200Y31200D03*
X331200D03*
X341200D03*
X321200Y71200D03*
X334725Y43250D03*
X322375Y47500D03*
X321200Y81200D03*
Y91200D03*
Y101200D03*
Y111200D03*
Y121200D03*
X328750Y113750D03*
X332500Y108750D03*
X331200Y161200D03*
X341200D03*
X320000Y134750D03*
X331200Y181200D03*
X341200D03*
X312502Y176700D03*
X321200Y201200D03*
X331200D03*
X341200D03*
X321200Y211200D03*
X331200D03*
X341200D03*
X321200Y221200D03*
X331200D03*
X341200D03*
X312502Y199368D03*
X331200Y251200D03*
X341200D03*
X322498Y227500D03*
X331200Y281200D03*
X322498Y260800D03*
X331200Y291200D03*
X321200Y321200D03*
X331200D03*
X321200Y331200D03*
X331200D03*
X321200Y341200D03*
X331200D03*
X341200D03*
X340000Y325825D03*
X321200Y351200D03*
X331200D03*
X341200D03*
X321200Y361200D03*
X331200D03*
X321200Y371200D03*
X331200D03*
X341200D03*
X321200Y381200D03*
X331200D03*
X341200D03*
X371200Y31200D03*
X351200Y21200D03*
X361200D03*
X371200D03*
X351200Y31200D03*
X361200D03*
X351200Y41200D03*
X361200D03*
X371200D03*
X347250Y28801D03*
X351200Y51200D03*
X361200D03*
X371200D03*
X351200Y61200D03*
X361200D03*
X371200D03*
X361200Y71200D03*
X371200D03*
X348625Y57500D03*
X351200Y81200D03*
X361200D03*
X371200D03*
X351200Y91200D03*
X361200D03*
X371200D03*
X351200Y101200D03*
X361200D03*
X371200D03*
X351200Y111200D03*
X361200D03*
X371200D03*
X351200Y121200D03*
X361200D03*
X371200D03*
X351200Y131200D03*
X361200D03*
X371200D03*
X342500Y103750D03*
X361200Y141200D03*
X371200D03*
X361200Y151200D03*
X371200D03*
X361200Y161200D03*
X371200D03*
Y191200D03*
X361200Y171200D03*
X371200D03*
X351200Y181200D03*
X361200D03*
X371200D03*
X361200Y191200D03*
X351200Y201200D03*
X361200D03*
X371200D03*
X351200Y211200D03*
X361200D03*
X371200D03*
X351200Y221200D03*
X361200D03*
X371200D03*
X361200Y251200D03*
X371200D03*
X351200Y291200D03*
X361200D03*
X371200D03*
X351200Y301200D03*
X361200D03*
X367500Y306675D03*
X351200Y331200D03*
X361200D03*
X351200Y351200D03*
X361200D03*
X351200Y361200D03*
Y371200D03*
Y381200D03*
X361200D03*
X371200D03*
X396600Y1402D03*
X392700Y3352D03*
X381200Y21200D03*
Y31200D03*
Y41200D03*
Y51200D03*
Y61200D03*
Y71200D03*
Y81200D03*
Y91200D03*
Y101200D03*
Y111200D03*
Y121200D03*
Y131200D03*
Y141200D03*
Y151200D03*
Y161200D03*
Y171200D03*
Y181200D03*
Y191200D03*
Y211200D03*
Y221200D03*
X392700Y202700D03*
X381200Y251200D03*
X394650Y247100D03*
Y237150D03*
X392700Y232250D03*
Y244200D03*
X394650Y262250D03*
X392700Y273250D03*
X390750Y270350D03*
X394650Y265150D03*
X381200Y291200D03*
Y301200D03*
Y311200D03*
X391750Y283750D03*
X381200Y321200D03*
Y331200D03*
Y341200D03*
X391200Y371200D03*
Y361200D03*
X381200D03*
Y371200D03*
X391750Y352500D03*
X391200Y381200D03*
X381200D03*
X394650Y387250D03*
G54D11*
X27500Y30000D03*
Y40000D03*
Y50000D03*
Y60000D03*
Y70000D03*
Y80000D03*
Y125000D03*
Y135000D03*
Y145000D03*
Y155000D03*
Y165000D03*
Y175000D03*
Y185000D03*
Y222500D03*
Y232500D03*
Y242500D03*
X40000Y367500D03*
Y377500D03*
X57500Y30000D03*
Y40000D03*
Y50000D03*
Y60000D03*
Y70000D03*
Y80000D03*
Y90000D03*
Y125000D03*
Y155000D03*
Y145000D03*
Y135000D03*
Y185000D03*
Y175000D03*
Y165000D03*
Y195000D03*
Y222500D03*
Y232500D03*
Y242500D03*
Y252500D03*
X77500Y27500D03*
Y37500D03*
Y47500D03*
Y57500D03*
Y67500D03*
Y77500D03*
X80000Y125000D03*
Y135000D03*
Y145000D03*
Y155000D03*
Y165000D03*
Y175000D03*
Y222500D03*
Y232500D03*
Y242500D03*
Y252500D03*
Y262500D03*
Y272500D03*
Y307500D03*
Y317500D03*
Y327500D03*
Y337500D03*
Y347500D03*
Y357500D03*
X125000Y27500D03*
Y37500D03*
X107500Y27500D03*
Y37500D03*
X125000Y47500D03*
Y57500D03*
Y67500D03*
X107500Y47500D03*
Y57500D03*
Y67500D03*
X125000Y77500D03*
X107500D03*
Y87500D03*
X127500Y122500D03*
Y132500D03*
X110000Y125000D03*
X127500Y142500D03*
Y152500D03*
Y162500D03*
X110000Y135000D03*
Y145000D03*
Y155000D03*
X127500Y172500D03*
X110000Y165000D03*
Y175000D03*
Y185000D03*
Y222500D03*
X127500D03*
X110000Y232500D03*
Y242500D03*
Y252500D03*
X127500Y232500D03*
Y242500D03*
Y252500D03*
X110000Y262500D03*
Y272500D03*
Y282500D03*
X127500Y262500D03*
Y272500D03*
Y305000D03*
X110000Y307500D03*
X127500Y315000D03*
Y325000D03*
Y335000D03*
X110000Y317500D03*
Y327500D03*
Y337500D03*
X127500Y345000D03*
Y355000D03*
X110000Y347500D03*
Y357500D03*
Y367500D03*
X155000Y27500D03*
Y37500D03*
Y47500D03*
Y57500D03*
Y67500D03*
Y77500D03*
Y87500D03*
X157500Y122500D03*
Y132500D03*
Y142500D03*
Y152500D03*
Y162500D03*
Y172500D03*
Y182500D03*
Y222500D03*
Y232500D03*
Y242500D03*
Y252500D03*
Y262500D03*
Y272500D03*
Y282500D03*
Y305000D03*
Y315000D03*
Y325000D03*
Y335000D03*
Y345000D03*
Y355000D03*
Y365000D03*
X172500Y27500D03*
Y37500D03*
Y47500D03*
Y57500D03*
Y67500D03*
Y77500D03*
Y87500D03*
Y97500D03*
Y122500D03*
Y132500D03*
Y142500D03*
Y152500D03*
Y162500D03*
Y172500D03*
Y222500D03*
Y232500D03*
Y242500D03*
Y252500D03*
Y262500D03*
Y272500D03*
Y317500D03*
Y327500D03*
Y337500D03*
Y347500D03*
Y357500D03*
Y367500D03*
X202500Y37500D03*
X220000Y27500D03*
Y37500D03*
X202500Y67500D03*
Y57500D03*
Y47500D03*
X220000D03*
Y57500D03*
Y67500D03*
X202500Y97500D03*
Y87500D03*
Y77500D03*
X220000D03*
Y122500D03*
Y132500D03*
X202500Y122500D03*
Y132500D03*
X220000Y142500D03*
Y152500D03*
Y162500D03*
X202500Y142500D03*
Y152500D03*
Y162500D03*
X220000Y172500D03*
Y182500D03*
X202500Y172500D03*
Y182500D03*
X220000Y220000D03*
X202500Y222500D03*
X220000Y230000D03*
Y240000D03*
Y250000D03*
X202500Y232500D03*
Y242500D03*
Y252500D03*
X220000Y260000D03*
Y270000D03*
Y280000D03*
X202500Y262500D03*
Y272500D03*
Y282500D03*
Y317500D03*
Y327500D03*
Y337500D03*
X220000Y315000D03*
Y325000D03*
Y335000D03*
X202500Y347500D03*
Y357500D03*
Y367500D03*
Y377500D03*
X250000Y27500D03*
Y37500D03*
Y47500D03*
Y57500D03*
Y67500D03*
Y77500D03*
Y87500D03*
Y132500D03*
Y122500D03*
Y162500D03*
Y152500D03*
Y142500D03*
Y192500D03*
Y182500D03*
Y172500D03*
Y220000D03*
Y250000D03*
Y240000D03*
Y230000D03*
Y280000D03*
Y270000D03*
Y260000D03*
Y290000D03*
Y315000D03*
Y325000D03*
Y335000D03*
Y345000D03*
X267500Y27500D03*
Y37500D03*
Y47500D03*
Y57500D03*
Y67500D03*
Y77500D03*
Y87500D03*
Y97500D03*
Y122500D03*
Y132500D03*
Y142500D03*
Y152500D03*
Y162500D03*
Y172500D03*
Y182500D03*
Y220000D03*
Y230000D03*
Y240000D03*
Y250000D03*
Y260000D03*
Y270000D03*
Y280000D03*
Y290000D03*
Y315000D03*
Y325000D03*
Y335000D03*
X272500Y357500D03*
Y367500D03*
X297500Y37500D03*
Y67500D03*
Y57500D03*
Y47500D03*
Y97500D03*
Y87500D03*
Y77500D03*
Y132500D03*
Y122500D03*
Y162500D03*
Y152500D03*
Y142500D03*
Y192500D03*
Y182500D03*
Y172500D03*
Y250000D03*
Y240000D03*
Y230000D03*
Y280000D03*
Y270000D03*
Y260000D03*
Y290000D03*
Y315000D03*
Y325000D03*
Y335000D03*
Y345000D03*
X292500Y362500D03*
X302500D03*
X342500Y37500D03*
X332500D03*
X342500Y67500D03*
Y57500D03*
X332500Y67500D03*
Y57500D03*
X342500Y47500D03*
X332500D03*
X320000Y120000D03*
Y130000D03*
Y140000D03*
Y150000D03*
Y160000D03*
Y170000D03*
Y180000D03*
X317500Y217500D03*
Y227500D03*
Y237500D03*
Y247500D03*
Y257500D03*
Y267500D03*
Y277500D03*
X350000Y130000D03*
Y120000D03*
Y160000D03*
Y150000D03*
Y140000D03*
Y190000D03*
Y180000D03*
Y170000D03*
X347500Y217500D03*
Y247500D03*
Y237500D03*
Y227500D03*
Y277500D03*
Y267500D03*
Y257500D03*
Y287500D03*
X367500Y300000D03*
Y290000D03*
X372500Y342500D03*
X362500D03*
X367500Y325000D03*
Y315000D03*
X372500Y372500D03*
Y362500D03*
X362500Y372500D03*
Y362500D03*
X372500Y352500D03*
X362500D03*
G54D12*
X27500Y90000D03*
Y195000D03*
Y252500D03*
X77500Y87500D03*
X80000Y185000D03*
Y282500D03*
Y367500D03*
X125000Y87500D03*
X127500Y182500D03*
Y282500D03*
Y365000D03*
X172500Y182500D03*
Y282500D03*
Y377500D03*
X202500Y27500D03*
X220000Y87500D03*
Y192500D03*
Y290000D03*
Y345000D03*
X267500Y192500D03*
Y345000D03*
X297500Y27500D03*
Y220000D03*
X320000Y190000D03*
X317500Y287500D03*
G54D13*
X27500Y277500D03*
Y307500D03*
Y297500D03*
Y287500D03*
Y337500D03*
Y327500D03*
Y317500D03*
X57500Y277500D03*
Y287500D03*
Y297500D03*
Y307500D03*
Y317500D03*
Y327500D03*
Y337500D03*
Y347500D03*
X330000Y315000D03*
X340000D03*
G54D14*
X27500Y347500D03*
X320000Y315000D03*
G54D15*
X20000Y370000D03*
X370000Y30000D03*
Y190000D03*
G54D16*
X220000Y360000D03*
X250000D03*
X222500Y377500D03*
X262500Y380000D03*
X252500Y377500D03*
X292500Y380000D03*
X312500Y362500D03*
Y375000D03*
X342500Y362500D03*
Y375000D03*
M02*
