G04 ================== begin FILE IDENTIFICATION RECORD ==================*
G04 Layout Name:  adc2.brd*
G04 Film Name:    TOP_COPPER*
G04 File Format:  Gerber RS274X*
G04 File Origin:  Cadence Allegro -unreleased*
G04 Origin Date:  Sun Sep 19 23:40:03 2021*
G04 *
G04 Layer:  VIA CLASS/TOP*
G04 Layer:  PIN/TOP*
G04 Layer:  ETCH/TOP*
G04 *
G04 Offset:    (0.00 0.00)*
G04 Mirror:    No*
G04 Mode:      Positive*
G04 Rotation:  0*
G04 FullContactRelief:  No*
G04 UndefLineWidth:     7.00*
G04 ================== end FILE IDENTIFICATION RECORD ====================*
%FSLAX25Y25*MOIN*%
%IR0*IPPOS*OFA0.00000B0.00000*MIA0B0*SFA1.00000B1.00000*%
%ADD11C,.06*%
%ADD10C,.024*%
%ADD16C,.045*%
%ADD13C,.058*%
%ADD12R,.06X.06*%
%ADD14R,.058X.058*%
%ADD15C,.11*%
%ADD17C,.005*%
G75*
%LPD*%
G75*
G54D10*
X11200Y11200D03*
Y21200D03*
Y31200D03*
Y41200D03*
Y51200D03*
Y61200D03*
Y71200D03*
Y81200D03*
Y91200D03*
Y101200D03*
Y111200D03*
Y121200D03*
Y131200D03*
Y141200D03*
Y151200D03*
Y161200D03*
Y171200D03*
Y181200D03*
Y191200D03*
X4849Y178750D03*
X11200Y201200D03*
Y221200D03*
X4849Y211650D03*
X11200Y231200D03*
Y241200D03*
Y261200D03*
Y271200D03*
Y281200D03*
Y291200D03*
Y301200D03*
Y311200D03*
Y321200D03*
Y331200D03*
Y341200D03*
Y351200D03*
Y361200D03*
Y371200D03*
Y381200D03*
X21200Y11200D03*
X31200D03*
X41200D03*
X21200Y21200D03*
X31200D03*
X41200D03*
X21200Y31200D03*
X31200D03*
X41200D03*
X21200Y41200D03*
X41200D03*
X21200Y51200D03*
X41200D03*
X21200Y61200D03*
X41200D03*
X21200Y71200D03*
X41200D03*
Y91200D03*
X31200Y101200D03*
X41200D03*
X31200Y111200D03*
X41200D03*
X31200Y121200D03*
X41200D03*
X31200Y131200D03*
X20750Y123000D03*
X31200Y141200D03*
X40625Y149247D03*
X21200Y181200D03*
Y191200D03*
Y201200D03*
X31200D03*
X41200D03*
X21200Y221200D03*
X31200D03*
X41200D03*
X21200Y231200D03*
X41200D03*
X21200Y241200D03*
X41200D03*
X21200Y261200D03*
X31200D03*
X21200Y271200D03*
X31200D03*
X21200Y281200D03*
X31200D03*
X21200Y291200D03*
X31200D03*
X21200Y301200D03*
X31200D03*
Y311200D03*
Y331200D03*
Y341200D03*
X21200Y371200D03*
Y361200D03*
X31200D03*
X41200D03*
X31200Y371200D03*
X41200D03*
X34875Y347500D03*
X21200Y381200D03*
X31200D03*
X51200Y11200D03*
X61200D03*
X70800Y7302D03*
X51200Y21200D03*
X61200D03*
X51200Y31200D03*
Y41200D03*
Y51200D03*
Y61200D03*
Y71200D03*
Y101200D03*
X61200D03*
X51200Y111200D03*
X61200D03*
X71200D03*
X51200Y121200D03*
X61200D03*
X71200D03*
X51200Y151200D03*
X61200D03*
X71200D03*
X53750Y189750D03*
X51200Y201200D03*
X61200D03*
X71200D03*
X51200Y221200D03*
X71200D03*
X51200Y231200D03*
X71200D03*
X51200Y241200D03*
X71200D03*
Y251200D03*
X71125Y227250D03*
X57625Y237250D03*
X61200Y261200D03*
X71200D03*
X61200Y271200D03*
X71200D03*
X61200Y281200D03*
Y291200D03*
Y301200D03*
Y311200D03*
X51200Y331200D03*
X61200D03*
X51200Y341200D03*
X61200D03*
Y351200D03*
X51200Y361200D03*
X61200D03*
X51200Y371200D03*
X61200D03*
X51200Y381200D03*
X61200D03*
X81200Y11200D03*
X91200D03*
X101200D03*
X81200Y21200D03*
X91200D03*
X101200D03*
X81200Y31200D03*
X91200D03*
X101200D03*
X81200Y41200D03*
X91200D03*
X101200D03*
X81200Y51200D03*
X91200D03*
X101200D03*
X81200Y101200D03*
X91200D03*
X101200D03*
X81200Y111200D03*
X91200D03*
X101200D03*
X81200Y121200D03*
X91200D03*
X101200D03*
X91200Y131200D03*
X101200D03*
X91200Y151200D03*
X101200D03*
Y161200D03*
X85850Y155000D03*
X73625Y145000D03*
X91200Y191200D03*
X101200D03*
X86750Y171875D03*
X81200Y201200D03*
X91200D03*
X101200D03*
X81200Y221200D03*
X91200D03*
X101200D03*
X91200Y261200D03*
Y271200D03*
Y281200D03*
X80000Y267500D03*
X81200Y291200D03*
X91200D03*
X81200Y301200D03*
X91200D03*
Y311200D03*
X79000Y295250D03*
X91200Y341200D03*
Y351200D03*
Y371200D03*
X101200D03*
X89375Y357500D03*
X91200Y381200D03*
X80000Y376375D03*
X111200Y11200D03*
X119300Y9252D03*
X111200Y21200D03*
X131200D03*
X111200Y31200D03*
X131200D03*
X111200Y41200D03*
Y51200D03*
X121200D03*
X131200D03*
X121200Y71200D03*
X131200D03*
X125000Y52500D03*
X114125Y62750D03*
X111200Y81200D03*
Y101200D03*
X121200D03*
X131200D03*
X125000Y72500D03*
X111200Y111200D03*
X131200Y121200D03*
X110000Y118600D03*
X121200Y161200D03*
X114750Y146875D03*
X104875Y145000D03*
X121200Y191200D03*
X131200D03*
X120750Y183000D03*
X111200Y201200D03*
X121200D03*
X131200D03*
X121200Y211200D03*
X131200D03*
X121200Y221200D03*
X131200D03*
X121200Y241200D03*
Y251200D03*
Y261200D03*
X102250Y284375D03*
X131200Y331200D03*
X131250Y357875D03*
X113750Y364125D03*
X141200Y21200D03*
Y31200D03*
Y41200D03*
X151200D03*
X140000Y37500D03*
X141200Y51200D03*
X151200D03*
X141200Y71200D03*
X151200D03*
X161200D03*
X144998Y60800D03*
X157207Y100301D03*
X161200Y81200D03*
X141200Y101200D03*
X151200D03*
X161200D03*
X144998Y96200D03*
X141200Y121200D03*
Y141200D03*
X150750Y143875D03*
X161200Y191200D03*
Y201200D03*
Y211200D03*
X149998Y243450D03*
Y258200D03*
Y254300D03*
X132250Y264500D03*
X144450Y267498D03*
X134200D03*
X141200Y301200D03*
X149998Y287250D03*
X150002Y290150D03*
Y311868D03*
X133825Y282500D03*
X141200Y331200D03*
X148200Y339998D03*
X150150Y332375D03*
X141200Y351200D03*
X161200D03*
X141200Y361200D03*
X161200D03*
X177750Y22750D03*
X181200Y51200D03*
X171200Y101200D03*
X181200D03*
X191200D03*
X168375Y93250D03*
X171200Y121200D03*
X181200D03*
X191200D03*
X181200Y131200D03*
Y141200D03*
X162375Y152500D03*
X191250Y147500D03*
X178875Y152500D03*
X181200Y181200D03*
Y191200D03*
X163250Y169375D03*
X181200Y201200D03*
Y211200D03*
X171200Y221200D03*
X181200D03*
X170550Y197498D03*
X181200Y231200D03*
Y241200D03*
X177250Y234875D03*
X181200Y271200D03*
Y281200D03*
X178350Y252500D03*
X184875Y262500D03*
X167750Y272500D03*
X171200Y291200D03*
X181200D03*
X171200Y301200D03*
X181200D03*
X171200Y311200D03*
X181200D03*
X171200Y321200D03*
X181200D03*
Y331200D03*
X166200Y339998D03*
X179200Y342502D03*
X178250Y356500D03*
X206250Y7302D03*
X211200Y21200D03*
X221200D03*
X215250Y62500D03*
X201200Y101200D03*
X211200D03*
X211250Y74875D03*
X220000Y96375D03*
X211200Y121200D03*
X221200D03*
X211200Y131200D03*
X221200D03*
X209250Y145375D03*
X210250Y156250D03*
X212498Y152500D03*
X211200Y171200D03*
Y181200D03*
Y191200D03*
X195875Y172500D03*
X212498Y162500D03*
X201200Y201200D03*
Y211200D03*
X221200D03*
Y221200D03*
X198750Y197498D03*
X220000Y202498D03*
X216398Y202502D03*
X211498D03*
X221200Y231200D03*
X211200Y261200D03*
Y271200D03*
X201200Y291200D03*
X211200D03*
X201200Y301200D03*
Y311200D03*
X220000Y301700D03*
X221200Y321200D03*
X196150Y342502D03*
X231200Y21200D03*
X241200D03*
X251200D03*
X243373Y67500D03*
X234375Y61250D03*
X231200Y91200D03*
Y101200D03*
X251200D03*
X241200Y121200D03*
X251200D03*
X231200Y131200D03*
X241200D03*
X251200D03*
X227498Y120902D03*
X237795Y115002D03*
X230498D03*
X238746Y109998D03*
X231200Y141200D03*
X241200D03*
X231200Y151200D03*
X241200D03*
Y161200D03*
Y171200D03*
Y181200D03*
X251200D03*
X231200Y191200D03*
X241200D03*
X227498Y171368D03*
X231200Y211200D03*
X251200D03*
X231200Y221200D03*
X251200D03*
X245200Y202498D03*
X239300D03*
X231200Y231200D03*
X251200D03*
X231200Y241200D03*
Y251200D03*
Y261200D03*
Y271200D03*
Y281200D03*
X251200D03*
X231200Y291200D03*
Y301200D03*
X241200D03*
X251200D03*
X231200Y321200D03*
Y351200D03*
X241200D03*
X251200D03*
X231200Y361200D03*
X241200D03*
X231200Y381200D03*
X261200Y21200D03*
X271200D03*
X281200D03*
X271200Y31200D03*
X281200D03*
X261200Y41200D03*
X253750Y40625D03*
X271200Y81200D03*
X281200D03*
Y91200D03*
X261200Y101200D03*
X271200D03*
X281200D03*
X276250Y77500D03*
X261200Y121200D03*
X271200D03*
X281200D03*
X261200Y131200D03*
X271200D03*
X281200D03*
Y141200D03*
Y151200D03*
Y161200D03*
X255002Y158750D03*
X261200Y171200D03*
X281200Y191200D03*
X255002Y177250D03*
X281200Y201200D03*
X261200Y211200D03*
X281200D03*
X261200Y221200D03*
X281200D03*
X255002Y198200D03*
X261200Y231200D03*
X271200D03*
X281200D03*
Y241200D03*
X270375Y244750D03*
X281200Y261200D03*
X261200Y271200D03*
X281200D03*
X261200Y281200D03*
X271200D03*
X281200D03*
X261200Y291200D03*
X271200D03*
X281200D03*
X261200Y301200D03*
X271200D03*
X281200D03*
X261200Y331200D03*
X271200D03*
X281200D03*
Y341200D03*
X263750Y339875D03*
X281200Y361200D03*
X266750Y357500D03*
X279250Y370625D03*
X281200Y381200D03*
X291200Y21200D03*
X301200D03*
X311200D03*
X291200Y31200D03*
X311200D03*
X301200Y51200D03*
Y61200D03*
X299000Y42250D03*
X291200Y81200D03*
X301200D03*
X311200D03*
X291200Y91200D03*
X301200D03*
X311200D03*
X291200Y101200D03*
X301200D03*
X311200D03*
X291200Y121200D03*
X301200D03*
X311200D03*
X291200Y131200D03*
X301200D03*
X311200D03*
X286200Y109998D03*
X291200Y151200D03*
Y161200D03*
Y171200D03*
X301200Y201200D03*
Y211200D03*
X292750Y203625D03*
X291200Y241200D03*
Y251200D03*
X311200D03*
X291200Y261200D03*
Y271200D03*
X301200D03*
X291200Y281200D03*
Y291200D03*
X301200D03*
X291200Y301200D03*
X301200D03*
X309998Y283750D03*
Y300700D03*
X311200Y321200D03*
X291200Y331200D03*
X301200D03*
X311200D03*
X291200Y341200D03*
X301200D03*
X311200D03*
X301200Y351200D03*
Y361200D03*
Y371200D03*
X311200D03*
X301200Y381200D03*
X311200D03*
X304000Y375000D03*
X321200Y21200D03*
X331200D03*
X341200D03*
X321200Y31200D03*
X331200D03*
X341200D03*
X321200Y71200D03*
X334725Y43250D03*
X322375Y47500D03*
X321200Y81200D03*
Y91200D03*
Y101200D03*
Y111200D03*
Y121200D03*
X328750Y113750D03*
X332500Y108750D03*
X331200Y161200D03*
X341200D03*
X320000Y134750D03*
X331200Y181200D03*
X341200D03*
X312502Y176700D03*
X321200Y201200D03*
X331200D03*
X341200D03*
X321200Y211200D03*
X331200D03*
X341200D03*
X321200Y221200D03*
X331200D03*
X341200D03*
X312502Y199368D03*
X331200Y251200D03*
X341200D03*
X322498Y227500D03*
X331200Y281200D03*
X322498Y260800D03*
X331200Y291200D03*
X321200Y321200D03*
X331200D03*
X321200Y331200D03*
X331200D03*
X321200Y341200D03*
X331200D03*
X341200D03*
X340000Y325825D03*
X321200Y351200D03*
X331200D03*
X341200D03*
X321200Y361200D03*
X331200D03*
X321200Y371200D03*
X331200D03*
X341200D03*
X321200Y381200D03*
X331200D03*
X341200D03*
X371200Y31200D03*
X351200Y21200D03*
X361200D03*
X371200D03*
X351200Y31200D03*
X361200D03*
X351200Y41200D03*
X361200D03*
X371200D03*
X347250Y28801D03*
X351200Y51200D03*
X361200D03*
X371200D03*
X351200Y61200D03*
X361200D03*
X371200D03*
X361200Y71200D03*
X371200D03*
X348625Y57500D03*
X351200Y81200D03*
X361200D03*
X371200D03*
X351200Y91200D03*
X361200D03*
X371200D03*
X351200Y101200D03*
X361200D03*
X371200D03*
X351200Y111200D03*
X361200D03*
X371200D03*
X351200Y121200D03*
X361200D03*
X371200D03*
X351200Y131200D03*
X361200D03*
X371200D03*
X342500Y103750D03*
X361200Y141200D03*
X371200D03*
X361200Y151200D03*
X371200D03*
X361200Y161200D03*
X371200D03*
Y191200D03*
X361200Y171200D03*
X371200D03*
X351200Y181200D03*
X361200D03*
X371200D03*
X361200Y191200D03*
X351200Y201200D03*
X361200D03*
X371200D03*
X351200Y211200D03*
X361200D03*
X371200D03*
X351200Y221200D03*
X361200D03*
X371200D03*
X361200Y251200D03*
X371200D03*
X351200Y291200D03*
X361200D03*
X371200D03*
X351200Y301200D03*
X361200D03*
X367500Y306675D03*
X351200Y331200D03*
X361200D03*
X351200Y351200D03*
X361200D03*
X351200Y361200D03*
Y371200D03*
Y381200D03*
X361200D03*
X371200D03*
X396600Y1402D03*
X392700Y3352D03*
X381200Y21200D03*
Y31200D03*
Y41200D03*
Y51200D03*
Y61200D03*
Y71200D03*
Y81200D03*
Y91200D03*
Y101200D03*
Y111200D03*
Y121200D03*
Y131200D03*
Y141200D03*
Y151200D03*
Y161200D03*
Y171200D03*
Y181200D03*
Y191200D03*
Y211200D03*
Y221200D03*
X392700Y202700D03*
X381200Y251200D03*
X394650Y247100D03*
Y237150D03*
X392700Y232250D03*
Y244200D03*
X394650Y262250D03*
X392700Y273250D03*
X390750Y270350D03*
X394650Y265150D03*
X381200Y291200D03*
Y301200D03*
Y311200D03*
X391750Y283750D03*
X381200Y321200D03*
Y331200D03*
Y341200D03*
X391200Y371200D03*
Y361200D03*
X381200D03*
Y371200D03*
X391750Y352500D03*
X391200Y381200D03*
X381200D03*
X394650Y387250D03*
G54D11*
X27500Y30000D03*
Y40000D03*
Y50000D03*
Y60000D03*
Y70000D03*
Y80000D03*
Y125000D03*
Y135000D03*
Y145000D03*
Y155000D03*
Y165000D03*
Y175000D03*
Y185000D03*
Y222500D03*
Y232500D03*
Y242500D03*
X40000Y367500D03*
Y377500D03*
X57500Y30000D03*
Y40000D03*
Y50000D03*
Y60000D03*
Y70000D03*
Y80000D03*
Y90000D03*
Y125000D03*
Y155000D03*
Y145000D03*
Y135000D03*
Y185000D03*
Y175000D03*
Y165000D03*
Y195000D03*
Y222500D03*
Y232500D03*
Y242500D03*
Y252500D03*
X77500Y27500D03*
Y37500D03*
Y47500D03*
Y57500D03*
Y67500D03*
Y77500D03*
X80000Y125000D03*
Y135000D03*
Y145000D03*
Y155000D03*
Y165000D03*
Y175000D03*
Y222500D03*
Y232500D03*
Y242500D03*
Y252500D03*
Y262500D03*
Y272500D03*
Y307500D03*
Y317500D03*
Y327500D03*
Y337500D03*
Y347500D03*
Y357500D03*
X125000Y27500D03*
Y37500D03*
X107500Y27500D03*
Y37500D03*
X125000Y47500D03*
Y57500D03*
Y67500D03*
X107500Y47500D03*
Y57500D03*
Y67500D03*
X125000Y77500D03*
X107500D03*
Y87500D03*
X127500Y122500D03*
Y132500D03*
X110000Y125000D03*
X127500Y142500D03*
Y152500D03*
Y162500D03*
X110000Y135000D03*
Y145000D03*
Y155000D03*
X127500Y172500D03*
X110000Y165000D03*
Y175000D03*
Y185000D03*
Y222500D03*
X127500D03*
X110000Y232500D03*
Y242500D03*
Y252500D03*
X127500Y232500D03*
Y242500D03*
Y252500D03*
X110000Y262500D03*
Y272500D03*
Y282500D03*
X127500Y262500D03*
Y272500D03*
Y305000D03*
X110000Y307500D03*
X127500Y315000D03*
Y325000D03*
Y335000D03*
X110000Y317500D03*
Y327500D03*
Y337500D03*
X127500Y345000D03*
Y355000D03*
X110000Y347500D03*
Y357500D03*
Y367500D03*
X155000Y27500D03*
Y37500D03*
Y47500D03*
Y57500D03*
Y67500D03*
Y77500D03*
Y87500D03*
X157500Y122500D03*
Y132500D03*
Y142500D03*
Y152500D03*
Y162500D03*
Y172500D03*
Y182500D03*
Y222500D03*
Y232500D03*
Y242500D03*
Y252500D03*
Y262500D03*
Y272500D03*
Y282500D03*
Y305000D03*
Y315000D03*
Y325000D03*
Y335000D03*
Y345000D03*
Y355000D03*
Y365000D03*
X172500Y27500D03*
Y37500D03*
Y47500D03*
Y57500D03*
Y67500D03*
Y77500D03*
Y87500D03*
Y97500D03*
Y122500D03*
Y132500D03*
Y142500D03*
Y152500D03*
Y162500D03*
Y172500D03*
Y222500D03*
Y232500D03*
Y242500D03*
Y252500D03*
Y262500D03*
Y272500D03*
Y317500D03*
Y327500D03*
Y337500D03*
Y347500D03*
Y357500D03*
Y367500D03*
X202500Y37500D03*
X220000Y27500D03*
Y37500D03*
X202500Y67500D03*
Y57500D03*
Y47500D03*
X220000D03*
Y57500D03*
Y67500D03*
X202500Y97500D03*
Y87500D03*
Y77500D03*
X220000D03*
Y122500D03*
Y132500D03*
X202500Y122500D03*
Y132500D03*
X220000Y142500D03*
Y152500D03*
Y162500D03*
X202500Y142500D03*
Y152500D03*
Y162500D03*
X220000Y172500D03*
Y182500D03*
X202500Y172500D03*
Y182500D03*
X220000Y220000D03*
X202500Y222500D03*
X220000Y230000D03*
Y240000D03*
Y250000D03*
X202500Y232500D03*
Y242500D03*
Y252500D03*
X220000Y260000D03*
Y270000D03*
Y280000D03*
X202500Y262500D03*
Y272500D03*
Y282500D03*
Y317500D03*
Y327500D03*
Y337500D03*
X220000Y315000D03*
Y325000D03*
Y335000D03*
X202500Y347500D03*
Y357500D03*
Y367500D03*
Y377500D03*
X250000Y27500D03*
Y37500D03*
Y47500D03*
Y57500D03*
Y67500D03*
Y77500D03*
Y87500D03*
Y132500D03*
Y122500D03*
Y162500D03*
Y152500D03*
Y142500D03*
Y192500D03*
Y182500D03*
Y172500D03*
Y220000D03*
Y250000D03*
Y240000D03*
Y230000D03*
Y280000D03*
Y270000D03*
Y260000D03*
Y290000D03*
Y315000D03*
Y325000D03*
Y335000D03*
Y345000D03*
X267500Y27500D03*
Y37500D03*
Y47500D03*
Y57500D03*
Y67500D03*
Y77500D03*
Y87500D03*
Y97500D03*
Y122500D03*
Y132500D03*
Y142500D03*
Y152500D03*
Y162500D03*
Y172500D03*
Y182500D03*
Y220000D03*
Y230000D03*
Y240000D03*
Y250000D03*
Y260000D03*
Y270000D03*
Y280000D03*
Y290000D03*
Y315000D03*
Y325000D03*
Y335000D03*
X272500Y357500D03*
Y367500D03*
X297500Y37500D03*
Y67500D03*
Y57500D03*
Y47500D03*
Y97500D03*
Y87500D03*
Y77500D03*
Y132500D03*
Y122500D03*
Y162500D03*
Y152500D03*
Y142500D03*
Y192500D03*
Y182500D03*
Y172500D03*
Y250000D03*
Y240000D03*
Y230000D03*
Y280000D03*
Y270000D03*
Y260000D03*
Y290000D03*
Y315000D03*
Y325000D03*
Y335000D03*
Y345000D03*
X292500Y362500D03*
X302500D03*
X342500Y37500D03*
X332500D03*
X342500Y67500D03*
Y57500D03*
X332500Y67500D03*
Y57500D03*
X342500Y47500D03*
X332500D03*
X320000Y120000D03*
Y130000D03*
Y140000D03*
Y150000D03*
Y160000D03*
Y170000D03*
Y180000D03*
X317500Y217500D03*
Y227500D03*
Y237500D03*
Y247500D03*
Y257500D03*
Y267500D03*
Y277500D03*
X350000Y130000D03*
Y120000D03*
Y160000D03*
Y150000D03*
Y140000D03*
Y190000D03*
Y180000D03*
Y170000D03*
X347500Y217500D03*
Y247500D03*
Y237500D03*
Y227500D03*
Y277500D03*
Y267500D03*
Y257500D03*
Y287500D03*
X367500Y300000D03*
Y290000D03*
X372500Y342500D03*
X362500D03*
X367500Y325000D03*
Y315000D03*
X372500Y372500D03*
Y362500D03*
X362500Y372500D03*
Y362500D03*
X372500Y352500D03*
X362500D03*
G54D12*
X27500Y90000D03*
Y195000D03*
Y252500D03*
X77500Y87500D03*
X80000Y185000D03*
Y282500D03*
Y367500D03*
X125000Y87500D03*
X127500Y182500D03*
Y282500D03*
Y365000D03*
X172500Y182500D03*
Y282500D03*
Y377500D03*
X202500Y27500D03*
X220000Y87500D03*
Y192500D03*
Y290000D03*
Y345000D03*
X267500Y192500D03*
Y345000D03*
X297500Y27500D03*
Y220000D03*
X320000Y190000D03*
X317500Y287500D03*
G54D13*
X27500Y277500D03*
Y307500D03*
Y297500D03*
Y287500D03*
Y337500D03*
Y327500D03*
Y317500D03*
X57500Y277500D03*
Y287500D03*
Y297500D03*
Y307500D03*
Y317500D03*
Y327500D03*
Y337500D03*
Y347500D03*
X330000Y315000D03*
X340000D03*
G54D14*
X27500Y347500D03*
X320000Y315000D03*
G54D15*
X20000Y370000D03*
X370000Y30000D03*
Y190000D03*
G54D16*
X220000Y360000D03*
X250000D03*
X222500Y377500D03*
X262500Y380000D03*
X252500Y377500D03*
X292500Y380000D03*
X312500Y362500D03*
Y375000D03*
X342500Y362500D03*
Y375000D03*
G54D17*
G01X70800Y73750D02*
X2899D01*
Y198750D01*
G01X4849Y178750D02*
X27500D01*
G01X2899Y198750D02*
Y252500D01*
X23750D01*
G01X2899Y198750D02*
X57500D01*
Y195000D01*
G01X110000Y222500D02*
Y211650D01*
X4849D01*
G01X57500Y168750D02*
X22750D01*
Y76250D01*
X50250D01*
Y94750D01*
X69250D01*
Y82750D01*
X96250D01*
Y91250D01*
X125000D01*
Y87500D01*
G01X40625Y149247D02*
X23750D01*
Y90000D01*
X27500D01*
G01X77500Y77500D02*
X70250D01*
Y75250D01*
X20750D01*
Y123000D01*
G01X110000Y118600D02*
X45250D01*
Y80000D01*
X27500D01*
G01X20750Y123000D02*
Y170750D01*
X57500D01*
Y175000D01*
G01X27500Y145000D02*
X42250D01*
Y140250D01*
G01X27500Y155000D02*
Y159750D01*
X71200D01*
Y175000D01*
X80000D01*
G01X73625Y145000D02*
Y158750D01*
X42250D01*
Y151250D01*
X23750D01*
Y160750D01*
X63250D01*
Y179750D01*
X27500D01*
Y185000D01*
G01Y178750D02*
X61250D01*
Y168750D01*
X57500D01*
G01X27500Y175000D02*
Y178750D01*
G01X53750Y189750D02*
X27500D01*
Y195000D01*
G01X315250Y130000D02*
Y164750D01*
X327750D01*
Y173750D01*
X398600D01*
Y390200D01*
X64150D01*
Y343850D01*
X49250D01*
Y351150D01*
X23850D01*
Y322150D01*
X33250D01*
Y217750D01*
X104325D01*
Y228750D01*
X114750D01*
Y236250D01*
X95750D01*
Y248250D01*
X75250D01*
Y256250D01*
X86750D01*
Y254500D01*
X101750D01*
Y238250D01*
X120750D01*
Y227750D01*
X133250D01*
Y262500D01*
X132250D01*
Y264500D01*
G01X57625Y237250D02*
X35250D01*
Y327500D01*
X27500D01*
G01X23750Y252500D02*
Y297500D01*
G01Y252500D02*
X27500D01*
G01X23750Y307500D02*
X22850D01*
Y352150D01*
X53850D01*
G01X27500Y307500D02*
X23750D01*
G01Y297500D02*
Y307500D01*
G01X27500Y297500D02*
X23750D01*
G01X27500Y347500D02*
X34875D01*
G01D02*
X42250D01*
Y247250D01*
X90700D01*
Y232500D01*
X110000D01*
G01X53850Y352150D02*
Y377500D01*
X40000D01*
G01X57500Y90000D02*
X65250D01*
Y81250D01*
X81250D01*
G01X80000Y135000D02*
Y131250D01*
X42250D01*
Y140250D01*
G01D02*
X98750D01*
Y165000D01*
X110000D01*
G01X57500Y155000D02*
Y149247D01*
G01D02*
X40625D01*
G01X57500D02*
Y145000D01*
G01X127500Y162500D02*
Y168750D01*
X94750D01*
Y141250D01*
X57500D01*
Y145000D01*
G01X104875D02*
X101750D01*
Y138750D01*
X57500D01*
Y135000D01*
G01Y165000D02*
Y168750D01*
G01Y185000D02*
Y181250D01*
X116750D01*
Y187250D01*
X132250D01*
Y157250D01*
X123750D01*
Y148750D01*
X141150D01*
Y243450D01*
X149998D01*
G01X80000Y185000D02*
Y189750D01*
X53750D01*
G01X110000Y185000D02*
Y195000D01*
X57500D01*
G01Y222500D02*
Y227250D01*
X71125D01*
G01X80000Y232500D02*
Y237250D01*
X57625D01*
G01X123750Y242500D02*
Y247250D01*
X104750D01*
Y255500D01*
X90750D01*
Y257250D01*
X68250D01*
Y248750D01*
X52750D01*
Y322150D01*
X68150D01*
Y387250D01*
X394650D01*
G01X110000Y367500D02*
X101750D01*
Y332250D01*
X76250D01*
Y323250D01*
X113750D01*
Y313750D01*
X101250D01*
Y321250D01*
X76250D01*
Y312250D01*
X85750D01*
Y258250D01*
X57500D01*
Y252500D01*
G01Y347500D02*
X53850D01*
Y352150D01*
G01X70800Y7302D02*
Y73750D01*
G01X155000Y77500D02*
Y81250D01*
X116250D01*
Y72250D01*
X72750D01*
Y1402D01*
X396600D01*
G01X155000Y67500D02*
Y63750D01*
X116250D01*
Y71250D01*
X73750D01*
Y3352D01*
X392700D01*
G01X77500Y67500D02*
Y62750D01*
X114125D01*
G01X81250Y81250D02*
Y73750D01*
X70800D01*
G01X107500Y83750D02*
Y81250D01*
X81250D01*
G01X77500Y87500D02*
Y93250D01*
X168375D01*
G01X165750Y91250D02*
Y92250D01*
X88250D01*
Y83750D01*
X72750D01*
Y105200D01*
X113750D01*
Y129750D01*
X105250D01*
Y140750D01*
X114750D01*
Y146875D01*
G01X80000Y155000D02*
X85850D01*
G01D02*
X91700D01*
Y170500D01*
X123750D01*
Y172500D01*
X127500D01*
G01X80000Y145000D02*
X73625D01*
G01X80000Y175000D02*
Y179750D01*
X120750D01*
Y183000D01*
G01X127500Y182500D02*
Y178750D01*
X86750D01*
Y171875D01*
G01D02*
Y165000D01*
X80000D01*
G01X71125Y227250D02*
X84750D01*
Y242500D01*
X80000D01*
G01Y252500D02*
X98750D01*
Y237250D01*
X117750D01*
Y226750D01*
X134250D01*
Y265548D01*
X134200D01*
Y267498D01*
G01X80000Y272500D02*
Y267500D01*
G01D02*
Y262500D01*
G01X127500Y252500D02*
Y256500D01*
X95250D01*
Y312750D01*
G01X367500Y358750D02*
X377250D01*
Y386250D01*
X71150D01*
Y278750D01*
X83750D01*
Y295250D01*
X79000D01*
G01X80000Y282500D02*
X73250D01*
Y363250D01*
X88750D01*
Y384250D01*
X295500D01*
Y375000D01*
G01X79000Y295250D02*
X74250D01*
Y337500D01*
X80000D01*
G01X110000Y317500D02*
Y322250D01*
X75250D01*
Y333250D01*
X84750D01*
Y342250D01*
X76250D01*
Y362250D01*
X93750D01*
Y383250D01*
X258500D01*
Y375250D01*
X277250D01*
Y362750D01*
X261000D01*
Y363000D01*
X245050D01*
Y357000D01*
G01X95250Y312750D02*
X116750D01*
Y350750D01*
X131250D01*
Y357875D01*
G01X80000Y317500D02*
X95250D01*
Y312750D01*
G01X150150Y332375D02*
Y369750D01*
X115750D01*
Y342250D01*
X104750D01*
Y327500D01*
X80000D01*
G01Y357500D02*
X89375D01*
G01X80000Y347500D02*
Y357500D01*
G01X89375D02*
X98750D01*
Y382250D01*
X222500D01*
Y377500D01*
G01X80000Y367500D02*
Y376375D01*
G01D02*
Y385250D01*
X368500D01*
Y362500D01*
X372500D01*
G01X155000Y57500D02*
X139051D01*
Y42250D01*
X119300D01*
Y9252D01*
G01X140000Y37500D02*
X125000D01*
G01Y57500D02*
Y52500D01*
G01D02*
Y47500D01*
G01Y72500D02*
Y67500D01*
G01X114125Y62750D02*
X162750D01*
Y33750D01*
X180250D01*
Y37500D01*
X202500D01*
G01X155000Y87500D02*
Y83750D01*
X107500D01*
G01Y87500D02*
Y83750D01*
G01X144998Y96200D02*
X116750D01*
Y130750D01*
X106250D01*
Y138750D01*
X121750D01*
Y111052D01*
X233448D01*
Y120902D01*
X227498D01*
G01X125000Y77500D02*
Y72500D01*
G01X123750Y142500D02*
Y113052D01*
X232448D01*
Y116952D01*
X226750D01*
Y116750D01*
X162250D01*
Y137250D01*
X153750D01*
Y146250D01*
G01X220000Y96375D02*
Y105250D01*
X119750D01*
Y135000D01*
X110000D01*
G01Y125000D02*
Y118600D01*
G01Y165000D02*
X118750D01*
Y142500D01*
X123750D01*
G01X127500D02*
X123750D01*
G01X127500Y132500D02*
X148800D01*
G01X133825Y282500D02*
X136150D01*
Y152500D01*
X127500D01*
G01X120750Y183000D02*
Y186250D01*
X131250D01*
Y158250D01*
X121750D01*
Y147750D01*
X145150D01*
Y240500D01*
X153750D01*
Y242500D01*
X157500D01*
G01X114750Y146875D02*
Y155000D01*
X110000D01*
G01Y145000D02*
X104875D01*
G01X111200Y201200D02*
X121200D01*
G01X127500Y232500D02*
X131250D01*
Y257500D01*
X102250D01*
Y284375D01*
G01X127500Y315000D02*
X123750D01*
Y302251D01*
X104250D01*
Y258500D01*
X132250D01*
Y228750D01*
X123750D01*
Y242500D01*
G01X127500D02*
X123750D01*
G01X157500Y355000D02*
X153750D01*
Y339750D01*
X161250D01*
Y321250D01*
X143250D01*
Y338750D01*
X121750D01*
Y318750D01*
X131250D01*
Y300049D01*
X105250D01*
Y277750D01*
X119750D01*
Y287250D01*
X149998D01*
G01X150750Y143875D02*
Y237250D01*
X162250D01*
Y247250D01*
X140500D01*
Y282250D01*
X152948D01*
Y292100D01*
X116750D01*
Y278750D01*
X106250D01*
Y297099D01*
X132250D01*
Y319750D01*
X122750D01*
Y335000D01*
X127500D01*
G01X139500Y285300D02*
Y286250D01*
X122750D01*
Y262500D01*
X127500D01*
G01X132250Y264500D02*
Y272500D01*
X127500D01*
G01X110000Y282500D02*
Y294099D01*
X133250D01*
G01X127500Y282500D02*
X133825D01*
G01X102250Y284375D02*
Y311250D01*
X118701D01*
Y348750D01*
X133250D01*
Y368750D01*
X122750D01*
Y355000D01*
X127500D01*
G01X110000Y307500D02*
X120701D01*
Y339998D01*
X148200D01*
G01X133250Y294099D02*
Y320750D01*
X123750D01*
Y328750D01*
X140250D01*
Y309918D01*
X163250D01*
Y365000D01*
X162251D01*
G01X127500Y325000D02*
X136250D01*
Y305000D01*
X157500D01*
G01X110000Y367500D02*
Y381250D01*
X162251D01*
G01X131250Y357875D02*
Y365000D01*
X127500D01*
G01X110000Y357500D02*
X113750D01*
Y364125D01*
G01D02*
Y370750D01*
X151150D01*
Y335000D01*
X157500D01*
G01X320000Y150000D02*
X326750D01*
Y53250D01*
X349250D01*
Y4352D01*
X149250D01*
Y32250D01*
X185250D01*
Y33750D01*
X212250D01*
G01X245249Y42750D02*
Y51250D01*
X255750D01*
Y32250D01*
X190250D01*
Y31250D01*
X151250D01*
Y5352D01*
X347250D01*
Y28801D01*
G01X155000Y37500D02*
X140000D01*
G01X155000Y27500D02*
Y22750D01*
X177750D01*
G01X155000Y47500D02*
X159750D01*
Y61250D01*
X146948D01*
Y60800D01*
X144998D01*
G01X230498Y115002D02*
X157500D01*
Y122500D01*
G01X148800Y132500D02*
Y122500D01*
X157500D01*
G01X168375Y93250D02*
X211250D01*
Y83750D01*
X234448D01*
Y122852D01*
X224750D01*
Y117750D01*
X164250D01*
Y142500D01*
X157500D01*
G01Y152500D02*
X162375D01*
G01X157500Y132500D02*
X150750D01*
Y143875D01*
G01X153750Y146250D02*
X151750D01*
Y232500D01*
X157500D01*
G01X235845Y123852D02*
X223750D01*
Y118750D01*
X165250D01*
Y146250D01*
X153750D01*
G01X148800Y132500D02*
Y238250D01*
X161250D01*
Y246250D01*
X139500D01*
Y285300D01*
G01X172500Y142500D02*
X167250D01*
Y148250D01*
X153750D01*
Y162500D01*
X157500D01*
G01X165250Y267498D02*
Y254250D01*
X166250D01*
Y246250D01*
X176250D01*
Y237250D01*
X168750D01*
Y227250D01*
X176250D01*
Y178250D01*
X152750D01*
Y147250D01*
X166250D01*
Y138750D01*
X177250D01*
Y148251D01*
X168750D01*
Y156250D01*
X187250D01*
Y132500D01*
X202500D01*
G01X157500Y182500D02*
Y197498D01*
X170550D01*
G01X177250Y232500D02*
Y177250D01*
X157500D01*
Y172500D01*
G01Y162500D02*
X163250D01*
Y169375D01*
G01X167750Y218750D02*
X153750D01*
Y227250D01*
X164250D01*
Y250451D01*
X162251D01*
Y256250D01*
X149998D01*
G01X157500Y222500D02*
X165250D01*
Y252250D01*
X164250D01*
Y258200D01*
X149998D01*
G01X157500Y232500D02*
X163250D01*
Y248451D01*
X157500D01*
G01D02*
X141500D01*
Y278250D01*
X161250D01*
Y305000D01*
X157500D01*
G01Y252500D02*
Y248451D01*
G01X149998Y254300D02*
Y256250D01*
G01X172500Y377500D02*
X164250D01*
Y277250D01*
X142500D01*
Y256250D01*
X149998D01*
G01X144450Y267498D02*
X165250D01*
G01X157500Y282500D02*
Y294099D01*
X133250D01*
G01X150002Y290150D02*
X151948D01*
Y285300D01*
X139500D01*
G01X150002Y311868D02*
Y315000D01*
X157500D01*
G01Y345000D02*
X162250D01*
Y315000D01*
X157500D01*
G01Y325000D02*
X150150D01*
Y332375D01*
G01X157500Y365000D02*
X162251D01*
G01X172500Y27500D02*
X195250D01*
Y31250D01*
X206250D01*
G01X172500Y37500D02*
X165750D01*
Y91250D01*
G01X177750Y22750D02*
X202500D01*
Y27500D01*
G01X172500Y67500D02*
X197750D01*
G01X202500Y51750D02*
X190250D01*
Y63250D01*
X168750D01*
Y72250D01*
X211250D01*
Y74875D01*
G01X172500Y81250D02*
X167750D01*
Y62250D01*
X183250D01*
Y43750D01*
X220000D01*
Y47500D01*
G01X172500Y57500D02*
X168750D01*
Y41250D01*
X212250D01*
Y33750D01*
G01X172500Y47500D02*
Y42750D01*
X245249D01*
G01X172500Y77500D02*
Y73750D01*
X208250D01*
Y81250D01*
X240745D01*
G01X202500Y87500D02*
Y91250D01*
X165750D01*
G01X172500Y87500D02*
Y81250D01*
G01X202500D02*
X172500D01*
G01X178875Y152500D02*
Y128750D01*
X215250D01*
Y142500D01*
X220000D01*
G01X172500Y132500D02*
Y127250D01*
X202500D01*
G01X162375Y152500D02*
X165250D01*
Y166250D01*
X178250D01*
Y158750D01*
X214448D01*
Y240000D01*
X220000D01*
G01X172500Y162500D02*
Y157250D01*
X191250D01*
Y147500D01*
G01X172500Y152500D02*
X178875D01*
G01X178350Y252500D02*
X184200D01*
Y167750D01*
X213448D01*
Y253750D01*
X226750D01*
Y270000D01*
X220000D01*
G01X172500Y182500D02*
Y218750D01*
X167750D01*
G01X163250Y169375D02*
Y176250D01*
X179200D01*
Y248250D01*
X168750D01*
Y256250D01*
X188200D01*
Y168750D01*
X208250D01*
Y255750D01*
X223750D01*
Y264750D01*
X210250D01*
Y266250D01*
X186150D01*
Y352250D01*
X167750D01*
Y367500D01*
X172500D01*
G01Y172500D02*
X180250D01*
Y162500D01*
X202500D01*
G01X172500Y242500D02*
X167750D01*
Y218750D01*
G01X172500Y282500D02*
X176250D01*
Y268250D01*
X166750D01*
Y255250D01*
X167250D01*
Y247250D01*
X177250D01*
Y234875D01*
G01X172500Y232500D02*
X177250D01*
G01Y234875D02*
Y232500D01*
G01X198750Y197498D02*
Y242751D01*
X194250D01*
Y258250D01*
X168750D01*
Y266250D01*
X179200D01*
Y342502D01*
G01X195875Y172500D02*
X191250D01*
Y257250D01*
X167750D01*
Y267250D01*
X177250D01*
Y327500D01*
X172500D01*
G01Y252500D02*
X178350D01*
G01X172500Y262500D02*
X184875D01*
G01D02*
X197250D01*
Y258750D01*
X216250D01*
Y260000D01*
X220000D01*
G01X172500Y337500D02*
X167750D01*
Y272500D01*
G01D02*
X165250D01*
Y267498D01*
G01X172500Y272500D02*
X167750D01*
G01X172500Y347500D02*
X176250D01*
Y332250D01*
X168750D01*
Y282500D01*
X172500D01*
G01X166200Y339998D02*
Y341948D01*
X165750D01*
Y372250D01*
X215250D01*
Y371250D01*
G01X162251Y365000D02*
Y381250D01*
G01X179200Y342502D02*
Y351250D01*
X166750D01*
Y371250D01*
X214250D01*
Y331250D01*
X241253D01*
G01X222951Y297750D02*
Y304650D01*
X210250D01*
Y361250D01*
X178250D01*
Y356500D01*
G01D02*
Y353750D01*
X168750D01*
Y363250D01*
X202500D01*
Y367500D01*
G01X309998Y300700D02*
Y306650D01*
X212250D01*
Y362250D01*
X172500D01*
Y357500D01*
G01X162251Y381250D02*
X202500D01*
Y377500D01*
G01X206250Y31250D02*
Y7302D01*
G01X267500Y27500D02*
Y31250D01*
X206250D01*
G01X212250Y33750D02*
X253750D01*
Y40625D01*
G01X250000Y57500D02*
X228750D01*
Y53750D01*
X210250D01*
Y62250D01*
X197750D01*
Y67500D01*
G01D02*
Y71250D01*
X213250D01*
Y72250D01*
X239325D01*
Y63750D01*
X254750D01*
Y72250D01*
X245250D01*
Y91250D01*
X273250D01*
Y73750D01*
X323750D01*
Y134750D01*
X320000D01*
G01X297500Y47500D02*
Y52250D01*
X239750D01*
Y51750D01*
X202500D01*
G01Y47500D02*
Y51750D01*
G01X297500Y67500D02*
Y71250D01*
X262750D01*
Y62750D01*
X237325D01*
Y71250D01*
X215250D01*
Y67500D01*
G01D02*
Y62500D01*
G01X202500Y67500D02*
X215250D01*
G01Y62500D02*
Y57500D01*
X220000D01*
G01X202500D02*
Y52750D01*
X233750D01*
Y53250D01*
X254750D01*
Y61250D01*
G01X234375D02*
X220000D01*
Y67500D01*
G01X211250Y74875D02*
Y77500D01*
X220000D01*
G01X238746Y109998D02*
Y82250D01*
X202500D01*
Y81250D01*
G01Y77500D02*
Y81250D01*
G01X220000Y87500D02*
Y96375D01*
G01X202500Y122500D02*
Y127250D01*
G01X212498Y152500D02*
X207250D01*
Y148251D01*
X197750D01*
Y138750D01*
X211250D01*
Y147250D01*
X237448D01*
Y148250D01*
X261750D01*
Y146250D01*
X271250D01*
Y138750D01*
X256750D01*
Y146250D01*
X243448D01*
Y127250D01*
X202500D01*
G01X231200Y131200D02*
X225050D01*
X223750Y132500D01*
X220000D01*
G01X191250Y147500D02*
Y137750D01*
X212250D01*
Y146250D01*
X240448D01*
Y147250D01*
X259750D01*
Y142500D01*
X267500D01*
G01X202500D02*
X209250D01*
Y145375D01*
G01D02*
Y148250D01*
X233448D01*
Y156250D01*
X259952D01*
Y162500D01*
X267500D01*
G01X202500Y152500D02*
Y156250D01*
X210250D01*
G01D02*
X220000D01*
Y162500D01*
G01X229448Y158750D02*
Y152500D01*
X220000D01*
G01D02*
X212498D01*
G01X202500Y182500D02*
Y197498D01*
X198750D01*
G01X220000Y172500D02*
X225548D01*
Y171368D01*
X227498D01*
G01X202500Y172500D02*
X195875D01*
G01X267500Y182500D02*
X259952D01*
Y187250D01*
X216250D01*
Y200552D01*
X216398D01*
Y202502D01*
G01X212498Y162500D02*
X202500D01*
G01X220000Y182500D02*
X229448D01*
Y158750D01*
G01X220000Y192500D02*
Y202498D01*
G01X202500Y357500D02*
X192200D01*
Y268250D01*
X214250D01*
Y265750D01*
X224750D01*
Y254750D01*
X211498D01*
Y202502D01*
G01X220000Y250000D02*
X224750D01*
Y199548D01*
X241250D01*
Y285700D01*
X253750D01*
G01X250000Y290000D02*
X233750D01*
Y276250D01*
X211250D01*
Y282500D01*
X202500D01*
G01Y317500D02*
X198100D01*
Y345452D01*
X194200D01*
Y276250D01*
X208250D01*
Y274750D01*
X239300D01*
Y202498D01*
G01X220000Y280000D02*
X214250D01*
Y297750D01*
X222951D01*
G01X196150Y342502D02*
Y282500D01*
X202500D01*
G01X253750Y285700D02*
Y293750D01*
X228750D01*
Y286250D01*
X216250D01*
Y295750D01*
X329250D01*
Y273250D01*
X392700D01*
G01X202500Y327500D02*
X208250D01*
Y301700D01*
X220000D01*
G01X317500Y267500D02*
X313750D01*
Y282250D01*
X322250D01*
Y294750D01*
X220000D01*
Y290000D01*
G01Y315000D02*
Y309349D01*
X367500D01*
G01X220000Y335000D02*
X215250D01*
Y371250D01*
G01X241253Y341250D02*
X216250D01*
Y365000D01*
X264000D01*
Y363750D01*
X276250D01*
Y373250D01*
X256500D01*
Y380500D01*
X237500D01*
Y373750D01*
X202500D01*
Y377500D01*
G01X220000Y360000D02*
Y357000D01*
G01D02*
X245050D01*
G01X220000Y345000D02*
Y357000D01*
G01X215250Y371250D02*
X252500D01*
G01X250000Y37500D02*
X245249D01*
Y42750D01*
G01X240745Y81250D02*
Y67500D01*
X243373D01*
G01D02*
X250000D01*
G01X253750Y40625D02*
Y47500D01*
X250000D01*
G01X254750Y61250D02*
X234375D01*
G01X297500Y33750D02*
X346250D01*
Y51250D01*
X318250D01*
Y72250D01*
X259750D01*
Y87500D01*
X250000D01*
G01X320000Y170000D02*
X313250D01*
Y112948D01*
X240745D01*
Y81250D01*
G01X297500Y142500D02*
X284250D01*
Y113948D01*
X239745D01*
Y113052D01*
X235845D01*
Y123852D01*
G01X250000Y142500D02*
X245750D01*
Y123852D01*
X235845D01*
G01X237795Y115002D02*
X273250D01*
Y147250D01*
X263750D01*
Y152500D01*
G01X250000D02*
X263750D01*
G01X229448Y158750D02*
X255002D01*
G01X250000Y172500D02*
Y167750D01*
X304250D01*
Y179650D01*
X315452D01*
Y176250D01*
X324750D01*
Y184750D01*
X353750D01*
Y195750D01*
X309552D01*
Y233250D01*
X371250D01*
Y237150D01*
X394650D01*
G01X297500Y162500D02*
Y166250D01*
X250000D01*
G01D02*
X245250D01*
Y186250D01*
X257952D01*
Y178750D01*
X272250D01*
Y187251D01*
X261952D01*
Y188250D01*
X245250D01*
Y196250D01*
X257952D01*
Y200150D01*
X243250D01*
Y274750D01*
X255750D01*
Y265750D01*
G01X250000Y162500D02*
Y166250D01*
G01Y192500D02*
X262952D01*
Y188750D01*
X271250D01*
G01X267500Y192500D02*
Y202498D01*
X245200D01*
G01X309998Y283750D02*
X242250D01*
Y198200D01*
X255002D01*
G01X322498Y260800D02*
X320548D01*
Y261250D01*
X306250D01*
Y264750D01*
X278250D01*
Y256250D01*
X246250D01*
Y265751D01*
X253750D01*
Y273750D01*
X244250D01*
Y240000D01*
X250000D01*
G01X267500D02*
X250000D01*
G01Y250000D02*
X267500D01*
G01X250000Y270000D02*
X245250D01*
Y244750D01*
X270375D01*
G01X250000Y260000D02*
X255750D01*
G01X347500Y267500D02*
X394650D01*
Y281250D01*
X335250D01*
Y297750D01*
X222951D01*
G01X305503Y321250D02*
X241253D01*
Y331250D01*
G01D02*
Y341250D01*
G01X250000Y335000D02*
X263750D01*
G01X250000Y325000D02*
X246250D01*
Y339750D01*
X258750D01*
Y352750D01*
X276250D01*
Y361250D01*
G01X241253Y341250D02*
Y345000D01*
X250000D01*
G01X245050Y357000D02*
X261000D01*
Y357500D01*
X266750D01*
G01X250000Y360000D02*
X253000D01*
Y361250D01*
X276250D01*
G01X297500Y27500D02*
X267500D01*
G01X299000Y42250D02*
X267500D01*
Y47500D01*
G01X334725Y43250D02*
X306950D01*
Y53250D01*
X267500D01*
Y57500D01*
G01X322375Y47500D02*
X312250D01*
Y63250D01*
X267500D01*
Y67500D01*
G01X297500Y57500D02*
Y61250D01*
X254750D01*
G01X297500Y156250D02*
X263750D01*
Y152500D01*
G01X267500D02*
Y148750D01*
X309250D01*
Y174750D01*
X325750D01*
Y175750D01*
X354750D01*
Y207318D01*
X313750D01*
Y231250D01*
X374750D01*
Y202700D01*
X392700D01*
G01X267500Y220000D02*
X271250D01*
Y188750D01*
G01X301250Y190000D02*
Y168750D01*
X282250D01*
Y188750D01*
X271250D01*
G01X267500Y172500D02*
Y177250D01*
X255002D01*
G01X343750Y253750D02*
X305250D01*
Y263750D01*
X286250D01*
Y250000D01*
X267500D01*
G01X270375Y244750D02*
X297500D01*
Y240000D01*
G01X351250Y260300D02*
Y262750D01*
X308250D01*
Y265750D01*
X255750D01*
G01X267500Y260000D02*
X255750D01*
G01D02*
Y265750D01*
G01X317500Y287500D02*
X313750D01*
Y285700D01*
X253750D01*
G01X267500Y335000D02*
X293500D01*
Y353750D01*
X297250D01*
Y367250D01*
X339000D01*
Y362500D01*
G01X267500Y325000D02*
X263750D01*
Y335000D01*
G01D02*
Y339875D01*
G01D02*
Y350750D01*
X284250D01*
Y380000D01*
X292500D01*
G01X267500Y345000D02*
X292500D01*
Y362500D01*
G01X266750Y357500D02*
X272500D01*
G01Y367500D02*
Y371250D01*
X252500D01*
G01X276250Y361250D02*
X279250D01*
Y370625D01*
G01X252500Y377500D02*
Y371250D01*
G01X279250Y370625D02*
Y380000D01*
X262500D01*
G01X297500Y27500D02*
Y33750D01*
G01Y37500D02*
Y33750D01*
G01X332500Y37500D02*
Y42250D01*
X299000D01*
G01X297500Y87500D02*
X315250D01*
Y130000D01*
G01X297500Y77500D02*
X286200D01*
Y109998D01*
G01X347500Y227500D02*
X356750D01*
Y174750D01*
X326750D01*
Y173750D01*
X311250D01*
Y142500D01*
X297500D01*
G01Y152500D02*
Y156250D01*
G01X312502Y176700D02*
X307250D01*
Y156250D01*
X297500D01*
G01X320000Y190000D02*
X301250D01*
G01D02*
Y192500D01*
X297500D01*
G01Y172500D02*
X292750D01*
Y203625D01*
G01X297500Y220000D02*
Y192500D01*
G01Y220000D02*
Y230000D01*
G01X292750Y203625D02*
Y234750D01*
X301250D01*
Y250000D01*
X297500D01*
G01Y230000D02*
X305250D01*
Y241250D01*
X397600D01*
Y293750D01*
X376250D01*
G01X297500Y260000D02*
X303250D01*
Y242250D01*
X394650D01*
Y247100D01*
G01X297500Y280000D02*
X310999D01*
Y263750D01*
X372250D01*
Y262250D01*
X394650D01*
G01X391750Y283750D02*
X340250D01*
Y300700D01*
X309998D01*
G01X305503Y321250D02*
Y345000D01*
G01X348499Y321250D02*
Y311350D01*
X305503D01*
Y321250D01*
G01Y345000D02*
X312500D01*
Y362500D01*
G01X297500Y345000D02*
X305503D01*
G01X292500Y362500D02*
Y375000D01*
X295500D01*
G01D02*
X304000D01*
G01D02*
X312500D01*
G01X332500Y57500D02*
X328750D01*
Y113750D01*
G01X342500Y37500D02*
Y43250D01*
X334725D01*
G01X332500Y47500D02*
X322375D01*
G01X347250Y28801D02*
Y52250D01*
X325750D01*
Y140000D01*
X320000D01*
G01X332500Y67500D02*
Y108750D01*
G01X328750Y113750D02*
Y170000D01*
X350000D01*
G01X320000Y130000D02*
X315250D01*
G01X332500Y108750D02*
Y150000D01*
X350000D01*
G01X320000Y134750D02*
X316250D01*
Y160000D01*
X320000D01*
G01X350000Y190000D02*
X320000D01*
G01Y180000D02*
Y190000D01*
G01X312502Y199368D02*
Y232250D01*
X392700D01*
G01X322498Y227500D02*
X347500D01*
G01X317500Y277500D02*
Y271250D01*
X388800D01*
Y270350D01*
X390750D01*
G01X339000Y362500D02*
Y338650D01*
X340000D01*
Y325825D01*
G01D02*
Y315000D01*
G01X342500Y362500D02*
X339000D01*
G01X342500Y67500D02*
Y103750D01*
G01Y57500D02*
X348625D01*
G01D02*
X354750D01*
Y160000D01*
X350000D01*
G01X342500Y103750D02*
Y140000D01*
X350000D01*
G01X392700Y244200D02*
X390750D01*
Y243750D01*
X343750D01*
Y253750D01*
G01X347500Y247500D02*
X351250D01*
Y260300D01*
G01X347500Y257500D02*
X343750D01*
Y253750D01*
G01X394650Y265150D02*
X396600D01*
Y260300D01*
X351250D01*
G01X347500Y287500D02*
Y293750D01*
X376250D01*
G01X367500Y309349D02*
Y306675D01*
G01X372500Y342500D02*
Y309349D01*
X367500D01*
G01Y306675D02*
Y300000D01*
G01X348499Y321250D02*
Y342500D01*
G01X376250Y293750D02*
Y346250D01*
X368750D01*
Y333750D01*
X371250D01*
Y321250D01*
X348499D01*
G01X367500Y325000D02*
Y358750D01*
G01X348499Y342500D02*
Y375000D01*
X342500D01*
G01X362500Y342500D02*
X348499D01*
G01X362500Y362500D02*
X367500D01*
Y358750D01*
G01X372500Y352500D02*
X391750D01*
M02*
